<svg width="504" height="473" viewBox="0 0 504 473" fill="none" xmlns="http://www.w3.org/2000/svg">
<path d="M113.23 221.316C175.765 221.316 226.459 171.773 226.459 110.658C226.459 49.5432 175.765 0 113.23 0C50.6947 0 0 49.5432 0 110.658C0 171.773 50.6947 221.316 113.23 221.316Z" fill="#97A090"/>
<path d="M368.635 221.316C431.17 221.316 481.865 171.773 481.865 110.658C481.865 49.5432 431.17 0 368.635 0C306.1 0 255.405 49.5432 255.405 110.658C255.405 171.773 306.1 221.316 368.635 221.316Z" fill="#97A090"/>
<path d="M457.602 124.386C457.176 124.386 457.176 124.386 456.75 124.386C456.75 124.386 456.75 124.386 457.176 124.386C458.453 119.81 458.879 114.818 458.453 110.242C457.602 105.666 455.473 101.506 452.494 97.7618C450.791 95.2657 449.088 92.7697 446.534 90.6897C439.298 84.0335 428.656 81.9535 418.44 81.9535C411.629 81.9535 405.244 82.3695 398.859 84.8656C392.473 87.3616 386.94 91.5217 383.96 97.3458C381.831 101.922 380.554 106.498 380.129 111.074C379.703 113.57 379.703 116.482 379.277 118.978C379.277 120.226 378 124.386 379.277 124.386C376.298 125.634 374.595 130.21 375.872 134.786C377.149 139.362 380.554 142.691 383.96 141.443C385.237 155.171 393.75 160.579 401.413 165.987C401.838 165.987 401.838 166.403 402.264 166.403C402.264 166.403 403.541 167.235 406.095 168.483C406.095 170.563 406.095 177.635 405.669 183.459C401.838 184.291 376.298 189.283 368.636 195.523C360.122 188.867 332.879 183.875 332.879 183.875C332.879 183.875 331.602 172.643 331.602 167.235C332.453 166.819 332.879 166.403 332.879 166.403C333.304 166.403 333.73 165.987 333.73 165.571C340.967 160.995 348.203 155.171 349.48 141.027C352.46 141.443 355.865 138.53 357.142 133.954C358.419 128.962 356.717 124.386 353.737 123.554C353.311 123.554 353.311 123.554 352.886 123.554C352.886 123.554 352.886 123.554 353.311 123.554C354.588 118.978 355.014 113.986 354.588 109.41C353.737 104.834 351.609 100.674 348.629 96.9298C346.926 94.4337 345.223 91.9377 342.669 89.8576C340.115 87.7776 337.136 86.1136 334.156 84.4496C334.156 84.0335 333.73 83.6175 333.305 82.7855C333.73 82.7855 334.582 82.7855 335.007 83.2015C335.007 81.1215 334.582 78.6255 334.582 76.5454C334.582 74.4654 334.156 72.8014 333.305 70.7213C332.453 68.6413 330.75 66.9773 329.048 66.1452C328.196 66.1452 326.919 66.9773 326.068 67.3933C326.494 66.1453 324.791 64.8972 323.514 64.0652C320.109 62.8172 316.277 61.9852 312.872 62.4012C309.041 62.8172 305.636 64.4812 303.507 67.3933C303.082 66.9773 302.656 66.5613 302.23 65.7292C298.825 67.3933 296.271 70.7213 295.419 74.0494C294.568 76.9614 294.568 80.2895 295.845 83.2015C295.845 83.2015 295.845 83.2015 295.419 83.2015C289.034 85.6976 283.5 89.8576 280.521 95.6817C278.392 100.258 277.115 104.834 276.69 109.41C276.264 111.906 276.264 114.818 275.838 117.314C275.838 118.562 274.561 122.722 275.838 122.722C272.859 123.97 271.156 128.546 272.433 133.122C273.71 137.698 277.115 141.026 280.521 139.778C281.798 153.507 290.311 158.915 297.973 164.323C298.399 164.323 298.399 164.739 298.825 164.739C298.825 164.739 300.102 165.571 302.656 166.819C302.656 168.899 302.656 176.387 302.23 182.211C302.23 182.211 296.271 180.963 287.332 185.123C287.332 185.123 293.717 191.779 302.23 198.019C306.913 201.348 312.021 204.676 318.406 207.588C323.514 210.084 329.473 212.58 336.284 214.66C343.521 216.74 355.014 219.652 366.507 219.652C368.21 219.652 371.19 220.068 373.318 219.652C384.811 219.652 399.284 216.324 403.967 214.66C419.291 209.668 427.804 204.676 437.169 198.019C443.129 193.859 452.068 185.123 452.068 185.123C442.703 182.211 438.446 182.211 438.446 182.211C438.446 182.211 437.169 170.979 437.169 165.571C438.021 165.155 438.446 164.739 438.446 164.739C438.872 164.739 439.298 164.323 439.298 163.907C446.534 159.331 453.771 153.507 455.048 139.362C458.027 139.778 461.433 136.866 462.71 132.29C462.284 130.21 461.007 125.218 457.602 124.386Z" fill="black"/>
<path d="M385.237 31.6167V23.2966C385.237 16.2245 379.277 10.4004 372.041 10.4004H329.473C322.237 10.4004 316.277 16.2245 316.277 23.2966V41.1849C316.277 48.257 318.831 54.9131 331.602 53.6651L339.69 69.0574L347.777 54.0811H369.061V47.841C369.487 39.1049 376.723 32.4488 385.237 31.6167ZM360.973 20.8006C360.973 20.8006 360.122 22.4646 359.271 23.2966L348.203 46.177L346.075 40.7689C344.798 38.2729 343.521 35.3608 340.541 34.1128C339.264 33.6968 338.838 32.4488 339.264 31.2007C339.689 29.9527 340.967 29.5367 342.244 29.9527C345.223 31.2007 347.352 33.6968 348.203 35.7768L355.44 21.2166C355.865 20.8006 357.568 16.6405 360.548 16.2245C361.825 16.2245 362.676 17.0565 362.676 17.8885C363.102 19.9686 362.25 20.8006 360.973 20.8006Z" fill="black"/>
<path d="M421.419 31.6167H386.088C385.662 31.6167 385.662 31.6167 385.236 31.6167C376.723 32.0327 369.486 39.1048 369.486 47.841V54.0811V59.0732C369.486 64.0652 372.04 69.0573 375.871 71.9694C376.723 72.8014 383.108 90.6897 383.108 90.6897L390.344 75.2974H421.419C430.358 75.2974 438.02 68.2253 438.02 59.0732V47.841C438.02 39.1048 430.358 31.6167 421.419 31.6167ZM423.121 64.8973C422.696 65.7293 421.844 66.1453 421.419 66.1453C420.993 66.1453 420.567 66.1453 420.567 65.7293C416.311 63.2332 412.054 60.3212 408.223 57.4091C406.094 60.3212 403.966 63.2332 401.838 66.1453C401.412 66.5613 400.561 66.9773 400.135 66.9773C399.709 66.9773 399.284 66.9773 398.858 66.5613C398.007 65.7293 397.581 64.4813 398.432 63.6492C400.561 60.7372 402.689 57.8251 405.243 54.9131C401.412 52.001 397.155 48.673 392.473 46.593C391.621 46.1769 391.196 44.9289 391.621 43.6809C392.047 42.8489 393.324 42.4329 394.601 42.8489C399.284 45.3449 403.54 48.257 407.797 51.585C410.351 48.673 412.905 45.3449 415.459 42.4329C416.311 41.6009 417.588 41.6009 418.439 42.4329C419.29 43.2649 419.29 44.5129 418.439 45.3449C415.885 48.257 413.331 51.169 410.777 54.0811C414.608 56.9931 418.439 59.9052 422.696 61.9852C423.547 62.4012 423.547 63.6492 423.121 64.8973Z" fill="black"/>
<path d="M187.297 34.1128H104.29C100.885 34.1128 97.9053 37.0248 97.9053 40.3529V133.538C97.9053 136.867 100.885 139.779 104.29 139.779H184.317C187.723 139.779 190.703 136.867 190.703 133.538V37.8569C190.703 35.7768 189 34.1128 187.297 34.1128ZM111.101 49.9211H152.392C154.094 49.9211 155.797 51.5851 155.797 53.2491C155.797 54.9131 154.094 56.5772 152.392 56.5772H111.101C109.399 56.5772 107.696 54.9131 107.696 53.2491C107.696 51.5851 109.399 49.9211 111.101 49.9211ZM108.547 69.8894C108.547 69.0574 109.399 68.6414 109.824 68.6414H175.804C176.655 68.6414 177.081 69.4734 177.081 69.8894C177.081 70.7214 176.23 71.1374 175.804 71.1374H110.25C109.399 71.1374 108.547 70.7214 108.547 69.8894ZM111.101 84.4496H177.081C177.932 84.4496 178.358 85.2817 178.358 85.6977C178.358 86.5297 177.507 86.9457 177.081 86.9457H111.101C110.25 86.9457 109.824 86.1137 109.824 85.6977C109.824 85.2817 110.25 84.4496 111.101 84.4496ZM177.081 120.226H111.101C110.25 120.226 109.824 119.394 109.824 118.978C109.824 118.146 110.676 117.73 111.101 117.73H177.081C177.932 117.73 178.358 118.562 178.358 118.978C178.784 119.394 177.932 120.226 177.081 120.226ZM177.081 102.754H111.101C110.25 102.754 109.824 101.922 109.824 101.506C109.824 100.674 110.676 100.258 111.101 100.258H177.081C177.932 100.258 178.358 101.09 178.358 101.506C178.784 101.922 177.932 102.754 177.081 102.754Z" fill="#070606"/>
<path d="M57.0391 115.65L74.0661 132.706V99.0098L57.0391 115.65Z" fill="black"/>
<path d="M37.459 134.786H71.9387L54.9117 117.73L37.459 134.786Z" fill="black"/>
<path d="M71.9387 96.5137H37.459L54.9117 113.57L71.9387 96.5137Z" fill="black"/>
<path d="M35.3301 99.0098V132.706L52.7828 115.65L35.3301 99.0098Z" fill="black"/>
<path d="M128.553 81.5376H29.371C25.1143 81.5376 21.2832 84.8657 21.2832 89.4417V161.411C21.2832 165.571 24.6886 169.315 29.371 169.315H125.999C130.256 169.315 134.087 165.987 134.087 161.411V86.5297C133.662 84.0336 131.533 81.5376 128.553 81.5376ZM32.3508 93.6018H34.0535H75.7697H77.4724V137.699H75.7697H33.6278H32.3508V93.6018ZM125.999 159.747H33.6278C32.7764 159.747 31.9251 158.915 31.9251 158.083C31.9251 157.251 32.7764 156.419 33.6278 156.419H125.999C126.851 156.419 127.702 157.251 127.702 158.083C127.702 158.915 126.851 159.747 125.999 159.747ZM125.999 149.763H33.6278C32.7764 149.763 31.9251 148.931 31.9251 148.099C31.9251 147.267 32.7764 146.435 33.6278 146.435H125.999C126.851 146.435 127.702 147.267 127.702 148.099C127.702 148.931 126.851 149.763 125.999 149.763Z" fill="black" stroke="#97A090" stroke-width="0.25" stroke-miterlimit="10"/>
<path d="M121.743 467.176C184.278 467.176 234.973 417.633 234.973 356.518C234.973 295.404 184.278 245.86 121.743 245.86C59.2083 245.86 8.51367 295.404 8.51367 356.518C8.51367 417.633 59.2083 467.176 121.743 467.176Z" fill="#97A090"/>
<path d="M151.966 294.533C151.966 294.533 189.426 299.109 193.257 347.366C194.534 364.838 188.148 408.519 133.236 410.599" stroke="black" stroke-width="3.3793" stroke-miterlimit="10"/>
<path d="M151.966 384.807L124.297 411.431L161.756 425.991" stroke="black" stroke-width="3.3793" stroke-miterlimit="10"/>
<path d="M98.7568 414.759C98.7568 414.759 50.6555 406.439 49.8041 356.934C49.3785 326.149 62.1487 290.373 116.635 294.533" stroke="black" stroke-width="3.3793" stroke-miterlimit="10"/>
<path d="M95.3513 318.245L125.574 294.949L90.2432 276.645" stroke="black" stroke-width="3.3793" stroke-miterlimit="10"/>
<path d="M390.771 473C453.306 473 504.001 423.457 504.001 362.342C504.001 301.227 453.306 251.684 390.771 251.684C328.236 251.684 277.541 301.227 277.541 362.342C277.541 423.457 328.236 473 390.771 473Z" fill="#97A090"/>
<path d="M316.702 347.782C316.702 347.782 325.216 329.062 352.459 335.302C362.249 337.382 384.81 348.198 376.722 376.903" stroke="black" stroke-width="1.8807" stroke-miterlimit="10"/>
<path d="M365.655 362.758L375.446 381.479L389.493 364.838" stroke="black" stroke-width="1.8807" stroke-miterlimit="10"/>
<path d="M373.317 395.207C373.317 395.207 360.546 418.919 333.729 411.015C317.127 406.023 299.675 393.543 311.168 365.67" stroke="black" stroke-width="1.8807" stroke-miterlimit="10"/>
<path d="M320.107 381.063L312.445 361.51L296.695 376.487" stroke="black" stroke-width="1.8807" stroke-miterlimit="10"/>
<path d="M374.595 407.271C355.865 403.111 343.946 384.807 348.203 366.502C352.459 348.198 371.189 336.55 389.919 340.71C408.649 344.87 420.567 363.174 416.311 381.479C412.054 400.199 393.324 411.431 374.595 407.271ZM386.939 354.022C375.446 351.526 363.953 358.598 361.399 369.83C358.845 381.063 366.081 392.295 377.574 394.791C389.067 397.287 400.561 390.215 403.115 378.983C405.669 367.75 398.432 356.518 386.939 354.022Z" fill="#97A090" stroke="black" stroke-width="0.7957" stroke-miterlimit="10"/>
<path d="M364.804 385.223C364.804 385.223 378.425 396.039 391.621 385.639" stroke="black" stroke-width="0.855" stroke-miterlimit="10"/>
<path d="M398.006 360.262C398.006 360.262 405.668 375.654 391.621 385.639" stroke="black" stroke-width="0.855" stroke-miterlimit="10"/>
<path d="M399.283 363.174C395.452 364.838 391.621 366.502 388.216 368.166C390.344 367.75 392.898 369.414 393.75 371.494C389.067 371.078 384.81 372.326 380.128 373.99C376.297 375.238 372.466 376.486 368.635 377.734C368.635 377.318 369.06 376.486 369.486 376.486C373.743 373.574 378.851 371.494 384.385 371.494C382.256 370.246 380.128 369.414 378 368.166C384.81 366.918 390.77 362.342 397.581 362.758" fill="black"/>
<path d="M405.243 347.366L415.885 365.254C415.885 365.254 424.399 361.094 429.081 358.182C429.081 358.182 428.23 352.774 425.25 347.366C423.973 344.87 417.162 339.046 417.162 339.046C411.203 342.374 405.243 347.366 405.243 347.366Z" stroke="black" stroke-width="0.855" stroke-miterlimit="10" stroke-linecap="round"/>
<path d="M480.162 316.165C475.905 309.093 468.243 310.757 468.243 310.757C461.007 311.589 436.743 327.398 416.736 339.878C421.419 342.79 428.655 348.614 429.081 358.182C449.939 346.95 475.054 334.47 479.311 328.646C479.311 328.646 484.419 323.238 480.162 316.165Z" stroke="black" stroke-width="0.855" stroke-miterlimit="10" stroke-linecap="round"/>
<path opacity="0.47" d="M382.256 395.207C394.011 395.207 403.54 385.894 403.54 374.406C403.54 362.919 394.011 353.606 382.256 353.606C370.502 353.606 360.973 362.919 360.973 374.406C360.973 385.894 370.502 395.207 382.256 395.207Z" fill="black"/>
<path d="M410.777 354.854C405.669 344.454 393.75 342.374 393.75 342.374C378.426 338.214 370.338 342.79 370.338 342.79C353.311 350.278 349.905 362.342 349.905 362.342C345.649 372.743 348.628 383.975 348.628 383.975C348.628 383.975 338.838 353.606 361.824 340.294C373.318 333.638 394.601 331.558 405.669 345.286L410.777 354.854Z" fill="#97A090" stroke="black" stroke-width="0.855" stroke-miterlimit="10"/>
</svg>
