<svg width="541" height="617" viewBox="0 0 541 617" fill="none" xmlns="http://www.w3.org/2000/svg">
<path d="M184.641 364.591C286.616 364.591 369.282 282.974 369.282 182.295C369.282 81.6165 286.616 0 184.641 0C82.6667 0 0 81.6165 0 182.295C0 282.974 82.6667 364.591 184.641 364.591Z" fill="#3071D3"/>
<path d="M184.642 204.226C199.593 204.226 211.713 192.259 211.713 177.498C211.713 162.737 199.593 150.771 184.642 150.771C169.691 150.771 157.57 162.737 157.57 177.498C157.57 192.259 169.691 204.226 184.642 204.226Z" fill="black"/>
<path opacity="0.34" d="M161.043 161.736C163.125 158.995 165.902 156.253 167.29 153.512C167.984 150.771 168.679 148.029 167.984 145.288C167.29 139.12 163.82 133.638 158.266 130.211C152.713 126.785 145.772 126.785 140.219 129.526C136.054 131.582 133.277 135.008 131.195 138.435C127.724 142.547 124.254 147.344 122.171 152.141C113.841 167.904 117.312 187.093 123.559 204.226C125.642 209.708 127.724 214.506 131.195 219.303C139.525 231.639 153.407 239.177 167.984 242.604C172.149 243.289 175.62 243.974 179.785 243.289C187.42 241.233 190.891 232.324 191.585 224.785C191.585 221.359 191.585 217.247 190.197 213.82C188.114 209.023 183.95 206.282 179.091 203.54C170.761 198.743 161.737 195.317 156.878 186.407C152.713 178.869 156.184 167.904 161.043 161.736Z" fill="black"/>
<path opacity="0.69" d="M180.477 153.511C174.924 151.455 168.677 148.713 164.512 143.916C160.347 139.119 158.265 132.266 160.347 126.783C161.735 123.356 164.512 120.615 167.289 118.559C170.759 115.818 174.924 113.077 179.089 111.706C183.254 110.335 187.419 109.65 191.584 109.65C200.607 108.279 208.937 107.594 217.961 106.909C220.737 106.909 224.208 106.909 226.985 107.594C229.067 108.279 231.149 110.335 233.232 111.706C247.809 124.727 255.444 143.916 260.997 162.42C262.386 165.846 263.08 169.958 262.386 174.07C260.997 180.238 254.75 183.665 249.197 186.406C245.032 188.462 240.867 190.518 236.703 189.833C233.926 189.833 231.844 188.462 229.067 187.777C223.514 185.035 217.961 182.979 213.796 178.867C208.937 174.07 205.466 167.902 200.607 163.105C195.748 156.937 187.419 155.566 180.477 153.511Z" fill="black"/>
<path opacity="0.42" d="M193.666 209.707C192.278 210.392 190.889 211.763 190.195 213.133C189.501 214.504 189.501 215.875 189.501 217.245C189.501 222.043 188.807 227.525 191.583 232.322C194.36 237.805 200.607 240.546 206.16 241.917C208.937 242.602 212.408 242.602 215.184 241.917C216.572 241.232 217.961 240.546 220.043 240.546C222.126 239.861 223.514 239.861 225.596 239.176C234.62 237.12 242.95 231.637 247.809 224.099C252.668 216.56 255.444 206.965 255.444 198.056C255.444 196 255.444 193.944 254.75 191.888C254.056 189.832 252.668 187.776 251.279 186.406C243.644 178.867 226.29 174.07 216.572 180.923C212.408 183.665 211.019 191.203 208.937 195.315C204.078 200.798 199.219 205.595 193.666 209.707Z" fill="black"/>
<path opacity="0.42" d="M95.0972 109.652C93.709 111.708 92.3207 113.764 90.9324 115.82C74.9672 137.064 68.7199 165.163 73.5789 191.205C74.2731 193.946 74.9672 196.687 76.3555 198.743C79.8262 204.226 86.0734 206.967 92.3207 206.282C98.5679 206.282 104.815 203.541 109.674 200.114C113.145 198.058 115.921 196.687 118.004 193.261C124.945 183.666 115.921 169.275 120.78 158.309C123.557 152.142 127.722 150.086 132.581 145.974C140.91 139.12 150.628 132.267 158.264 125.414C165.205 118.561 170.758 111.022 181.171 109.652C187.418 108.966 192.971 110.337 199.218 109.652C205.465 109.652 211.713 106.91 214.489 101.428C215.183 99.3718 215.183 96.6305 215.183 94.5746C215.183 90.4627 213.795 86.3507 213.101 82.2388C212.407 78.1269 214.489 74.0149 213.101 70.5883C211.713 68.5324 208.242 67.1617 204.771 66.4764C184.641 62.3645 163.123 65.1058 143.687 71.959C132.581 76.0709 121.475 81.5535 111.757 88.4067C104.815 94.5746 99.9562 102.113 95.0972 109.652Z" fill="black"/>
<path opacity="0.66" d="M124.944 207.654C123.555 203.542 121.473 199.43 118.002 197.374C115.92 196.003 113.143 195.318 110.367 194.633C107.59 193.947 104.814 193.262 101.343 193.947C98.5664 194.633 95.7899 196.003 93.7074 198.059C83.2954 207.654 81.2129 222.731 81.9071 236.437C82.6012 243.976 84.6836 251.514 88.8485 257.682C90.9309 261.109 94.4016 264.536 97.1781 267.277C105.508 275.501 113.837 283.039 124.25 287.836C138.827 294.69 155.486 295.375 170.757 289.207C174.228 287.836 178.392 285.781 181.169 283.725C188.11 278.242 191.581 270.018 192.275 261.109C192.275 257.682 192.275 253.57 190.193 250.829C186.722 245.347 179.781 243.976 173.533 241.92C158.957 237.123 145.768 227.528 133.273 218.619C128.414 214.507 122.861 209.71 122.167 203.542" fill="black"/>
<path d="M198.525 132.267C203.892 132.267 208.243 127.972 208.243 122.673C208.243 117.374 203.892 113.078 198.525 113.078C193.158 113.078 188.807 117.374 188.807 122.673C188.807 127.972 193.158 132.267 198.525 132.267Z" fill="black"/>
<path d="M224.208 144.603C229.575 144.603 233.926 140.307 233.926 135.008C233.926 129.709 229.575 125.414 224.208 125.414C218.841 125.414 214.49 129.709 214.49 135.008C214.49 140.307 218.841 144.603 224.208 144.603Z" fill="black"/>
<path d="M242.255 170.644C247.622 170.644 251.973 166.348 251.973 161.049C251.973 155.75 247.622 151.455 242.255 151.455C236.888 151.455 232.537 155.75 232.537 161.049C232.537 166.348 236.888 170.644 242.255 170.644Z" fill="black"/>
<path d="M211.71 231.639C217.077 231.639 221.428 227.343 221.428 222.044C221.428 216.745 217.077 212.45 211.71 212.45C206.343 212.45 201.992 216.745 201.992 222.044C201.992 227.343 206.343 231.639 211.71 231.639Z" fill="black"/>
<path d="M171.451 231.639C176.818 231.639 181.169 227.343 181.169 222.044C181.169 216.745 176.818 212.45 171.451 212.45C166.084 212.45 161.733 216.745 161.733 222.044C161.733 227.343 166.084 231.639 171.451 231.639Z" fill="black"/>
<path d="M235.314 210.391C240.681 210.391 245.032 206.096 245.032 200.797C245.032 195.498 240.681 191.202 235.314 191.202C229.947 191.202 225.596 195.498 225.596 200.797C225.596 206.096 229.947 210.391 235.314 210.391Z" fill="black"/>
<path d="M137.442 189.833C142.809 189.833 147.16 185.537 147.16 180.238C147.16 174.939 142.809 170.644 137.442 170.644C132.075 170.644 127.724 174.939 127.724 180.238C127.724 185.537 132.075 189.833 137.442 189.833Z" fill="black"/>
<path d="M145.769 154.199C151.136 154.199 155.487 149.903 155.487 144.604C155.487 139.305 151.136 135.01 145.769 135.01C140.402 135.01 136.051 139.305 136.051 144.604C136.051 149.903 140.402 154.199 145.769 154.199Z" fill="black"/>
<path d="M140.911 106.91C146.278 106.91 150.629 102.615 150.629 97.3157C150.629 92.0168 146.278 87.7212 140.911 87.7212C135.544 87.7212 131.193 92.0168 131.193 97.3157C131.193 102.615 135.544 106.91 140.911 106.91Z" fill="black"/>
<path d="M190.888 98.6856C196.255 98.6856 200.606 94.39 200.606 89.0911C200.606 83.7922 196.255 79.4966 190.888 79.4966C185.521 79.4966 181.17 83.7922 181.17 89.0911C181.17 94.39 185.521 98.6856 190.888 98.6856Z" fill="black"/>
<path d="M108.288 242.603C113.655 242.603 118.006 238.307 118.006 233.008C118.006 227.709 113.655 223.414 108.288 223.414C102.921 223.414 98.5703 227.709 98.5703 233.008C98.5703 238.307 102.921 242.603 108.288 242.603Z" fill="black"/>
<path d="M105.509 141.176C110.876 141.176 115.227 136.88 115.227 131.581C115.227 126.282 110.876 121.987 105.509 121.987C100.142 121.987 95.791 126.282 95.791 131.581C95.791 136.88 100.142 141.176 105.509 141.176Z" fill="black"/>
<path d="M95.7941 180.24C101.161 180.24 105.512 175.944 105.512 170.645C105.512 165.346 101.161 161.051 95.7941 161.051C90.4271 161.051 86.0762 165.346 86.0762 170.645C86.0762 175.944 90.4271 180.24 95.7941 180.24Z" fill="black"/>
<path d="M145.769 271.386C151.136 271.386 155.487 267.091 155.487 261.792C155.487 256.493 151.136 252.197 145.769 252.197C140.402 252.197 136.051 256.493 136.051 261.792C136.051 267.091 140.402 271.386 145.769 271.386Z" fill="black"/>
<path d="M274.881 154.199C280.248 154.199 284.599 149.903 284.599 144.604C284.599 139.305 280.248 135.01 274.881 135.01C269.514 135.01 265.163 139.305 265.163 144.604C265.163 149.903 269.514 154.199 274.881 154.199Z" fill="black"/>
<path d="M279.043 210.391C284.41 210.391 288.761 206.096 288.761 200.797C288.761 195.498 284.41 191.202 279.043 191.202C273.676 191.202 269.325 195.498 269.325 200.797C269.325 206.096 273.676 210.391 279.043 210.391Z" fill="black"/>
<path d="M259.609 252.199C264.976 252.199 269.326 247.904 269.326 242.605C269.326 237.306 264.976 233.01 259.609 233.01C254.242 233.01 249.891 237.306 249.891 242.605C249.891 247.904 254.242 252.199 259.609 252.199Z" fill="black"/>
<path opacity="0.42" d="M242.948 127.471C243.642 128.842 245.03 130.212 246.418 130.898C247.807 131.583 249.195 131.583 250.583 131.583C255.442 131.583 260.995 132.268 265.854 129.527C271.407 126.786 274.184 120.618 275.572 115.135C276.266 112.394 276.266 108.967 275.572 106.226C274.878 104.856 274.184 103.485 274.184 101.429C273.49 99.373 273.49 98.0023 272.796 95.9463C270.713 87.0372 265.16 78.8133 257.525 74.0161C249.889 69.2188 240.171 66.4775 231.147 66.4775C229.065 66.4775 226.983 66.4775 224.9 67.1629C222.818 67.8482 220.735 69.2188 219.347 70.5895C211.711 78.128 206.852 95.261 213.794 104.856C216.57 108.967 224.206 110.338 228.371 112.394C233.23 117.191 238.783 121.303 242.948 127.471Z" fill="black"/>
<path d="M259.609 122.671C264.976 122.671 269.326 118.376 269.326 113.077C269.326 107.778 264.976 103.482 259.609 103.482C254.242 103.482 249.891 107.778 249.891 113.077C249.891 118.376 254.242 122.671 259.609 122.671Z" fill="black"/>
<path d="M236.702 97.3179C242.069 97.3179 246.42 93.0223 246.42 87.7234C246.42 82.4245 242.069 78.1289 236.702 78.1289C231.335 78.1289 226.984 82.4245 226.984 87.7234C226.984 93.0223 231.335 97.3179 236.702 97.3179Z" fill="black"/>
<path opacity="0.42" d="M277.655 118.561C271.408 118.561 265.161 121.302 260.996 126.099C257.525 128.84 254.749 132.952 254.054 137.064C252.666 142.547 254.054 148.715 255.443 154.197C258.219 167.904 258.913 181.61 256.137 195.317C253.36 209.023 246.419 222.044 236.007 230.953C232.536 233.695 228.371 236.436 226.289 240.548C222.818 246.716 225.595 254.254 229.76 259.737C238.783 270.702 255.443 274.814 267.937 268.646C274.185 265.905 279.044 261.107 282.514 255.625C293.62 239.862 296.397 219.988 299.174 200.799C299.868 192.575 301.256 184.351 301.256 176.128C301.256 164.477 299.174 152.141 295.009 141.176C291.538 131.582 289.456 119.246 277.655 118.561Z" fill="black"/>
</svg>
