<svg width="491" height="465" viewBox="0 0 491 465" fill="none" xmlns="http://www.w3.org/2000/svg">
<path d="M114.23 221.316C176.765 221.316 227.459 171.773 227.459 110.658C227.459 49.5432 176.765 0 114.23 0C51.6947 0 1 49.5432 1 110.658C1 171.773 51.6947 221.316 114.23 221.316Z" fill="#97A090"/>
<path d="M377.23 221.316C439.765 221.316 490.459 171.773 490.459 110.658C490.459 49.5432 439.765 0 377.23 0C314.695 0 264 49.5432 264 110.658C264 171.773 314.695 221.316 377.23 221.316Z" fill="#97A090"/>
<path d="M467.598 125.093C467.172 125.093 467.172 125.093 466.747 125.093C466.747 125.093 466.747 125.093 467.172 125.093C468.449 120.517 468.875 115.525 468.449 110.949C467.598 106.373 465.469 102.213 462.49 98.4688C460.787 95.9728 459.084 93.4767 456.53 91.3967C449.294 84.7406 438.652 82.6605 428.436 82.6605C421.625 82.6605 415.24 83.0765 408.855 85.5726C402.469 88.0686 396.936 92.2287 393.956 98.0528C391.828 102.629 390.551 107.205 390.125 111.781C389.699 114.277 389.699 117.189 389.274 119.685C389.274 120.933 387.997 125.093 389.274 125.093C386.294 126.341 384.591 130.917 385.868 135.493C387.145 140.07 390.551 143.398 393.956 142.15C395.233 155.878 403.747 161.286 411.409 166.694C411.834 166.694 411.834 167.11 412.26 167.11C412.26 167.11 413.537 167.942 416.091 169.19C416.091 171.27 416.091 178.342 415.665 184.166C411.834 184.998 386.294 189.99 378.632 196.23C370.118 189.574 342.875 184.582 342.875 184.582C342.875 184.582 341.598 173.35 341.598 167.942C342.449 167.526 342.875 167.11 342.875 167.11C343.301 167.11 343.726 166.694 343.726 166.278C350.963 161.702 358.199 155.878 359.476 141.734C362.456 142.15 365.861 139.237 367.138 134.661C368.415 129.669 366.713 125.093 363.733 124.261C363.307 124.261 363.307 124.261 362.882 124.261C362.882 124.261 362.882 124.261 363.307 124.261C364.584 119.685 365.01 114.693 364.584 110.117C363.733 105.541 361.605 101.381 358.625 97.6368C356.922 95.1408 355.22 92.6447 352.665 90.5647C350.111 88.4846 347.132 86.8206 344.152 85.1566C344.152 84.7406 343.726 84.3246 343.301 83.4926C343.726 83.4926 344.578 83.4926 345.003 83.9086C345.003 81.8285 344.578 79.3325 344.578 77.2525C344.578 75.1724 344.152 73.5084 343.301 71.4284C342.449 69.3483 340.747 67.6843 339.044 66.8523C338.193 66.8523 336.915 67.6843 336.064 68.1003C336.49 66.8523 334.787 65.6043 333.51 64.7722C330.105 63.5242 326.274 62.6922 322.868 63.1082C319.037 63.5242 315.632 65.1883 313.503 68.1003C313.078 67.6843 312.652 67.2683 312.226 66.4363C308.821 68.1003 306.267 71.4284 305.415 74.7564C304.564 77.6685 304.564 80.9965 305.841 83.9086C305.841 83.9086 305.841 83.9086 305.415 83.9086C299.03 86.4046 293.497 90.5647 290.517 96.3888C288.388 100.965 287.111 105.541 286.686 110.117C286.26 112.613 286.26 115.525 285.834 118.021C285.834 119.269 284.557 123.429 285.834 123.429C282.855 124.677 281.152 129.253 282.429 133.829C283.706 138.405 287.111 141.734 290.517 140.486C291.794 154.214 300.307 159.622 307.97 165.03C308.395 165.03 308.395 165.446 308.821 165.446C308.821 165.446 310.098 166.278 312.652 167.526C312.652 169.606 312.652 177.094 312.226 182.918C312.226 182.918 306.267 181.67 297.328 185.83C297.328 185.83 303.713 192.486 312.226 198.726C316.909 202.055 322.017 205.383 328.402 208.295C333.51 210.791 339.47 213.287 346.28 215.367C353.517 217.447 365.01 220.359 376.503 220.359C378.206 220.359 381.186 220.775 383.314 220.359C394.807 220.359 409.28 217.031 413.963 215.367C429.287 210.375 437.801 205.383 447.165 198.726C453.125 194.566 462.064 185.83 462.064 185.83C452.699 182.918 448.442 182.918 448.442 182.918C448.442 182.918 447.165 171.686 447.165 166.278C448.017 165.862 448.442 165.446 448.442 165.446C448.868 165.446 449.294 165.03 449.294 164.614C456.53 160.038 463.767 154.214 465.044 140.07C468.024 140.486 471.429 137.573 472.706 132.997C472.28 130.917 471.003 125.925 467.598 125.093Z" fill="black"/>
<path d="M397.237 33.6167V25.2966C397.237 18.2245 391.277 12.4004 384.041 12.4004H341.473C334.237 12.4004 328.277 18.2245 328.277 25.2966V43.1849C328.277 50.257 330.831 56.9131 343.602 55.6651L351.69 71.0574L359.777 56.0811H381.061V49.841C381.487 41.1049 388.723 34.4488 397.237 33.6167ZM372.973 22.8006C372.973 22.8006 372.122 24.4646 371.271 25.2966L360.203 48.177L358.075 42.7689C356.798 40.2729 355.521 37.3608 352.541 36.1128C351.264 35.6968 350.838 34.4488 351.264 33.2007C351.689 31.9527 352.967 31.5367 354.244 31.9527C357.223 33.2007 359.352 35.6968 360.203 37.7768L367.44 23.2166C367.865 22.8006 369.568 18.6405 372.548 18.2245C373.825 18.2245 374.676 19.0565 374.676 19.8885C375.102 21.9686 374.25 22.8006 372.973 22.8006Z" fill="black"/>
<path d="M433.419 33.6167H398.088C397.662 33.6167 397.662 33.6167 397.236 33.6167C388.723 34.0327 381.486 41.1048 381.486 49.841V56.0811V61.0732C381.486 66.0652 384.04 71.0573 387.871 73.9694C388.723 74.8014 395.108 92.6897 395.108 92.6897L402.344 77.2974H433.419C442.358 77.2974 450.02 70.2253 450.02 61.0732V49.841C450.02 41.1048 442.358 33.6167 433.419 33.6167ZM435.121 66.8973C434.696 67.7293 433.844 68.1453 433.419 68.1453C432.993 68.1453 432.567 68.1453 432.567 67.7293C428.311 65.2332 424.054 62.3212 420.223 59.4091C418.094 62.3212 415.966 65.2332 413.838 68.1453C413.412 68.5613 412.561 68.9773 412.135 68.9773C411.709 68.9773 411.284 68.9773 410.858 68.5613C410.007 67.7293 409.581 66.4813 410.432 65.6492C412.561 62.7372 414.689 59.8251 417.243 56.9131C413.412 54.001 409.155 50.673 404.473 48.593C403.621 48.1769 403.196 46.9289 403.621 45.6809C404.047 44.8489 405.324 44.4329 406.601 44.8489C411.284 47.3449 415.54 50.257 419.797 53.585C422.351 50.673 424.905 47.3449 427.459 44.4329C428.311 43.6009 429.588 43.6009 430.439 44.4329C431.29 45.2649 431.29 46.5129 430.439 47.3449C427.885 50.257 425.331 53.169 422.777 56.0811C426.608 58.9931 430.439 61.9052 434.696 63.9852C435.547 64.4012 435.547 65.6492 435.121 66.8973Z" fill="black"/>
<path d="M179.297 31.1123H96.2904C92.885 31.1123 89.9053 34.0244 89.9053 37.3524V130.538C89.9053 133.866 92.885 136.778 96.2904 136.778H176.317C179.723 136.778 182.703 133.866 182.703 130.538V34.8564C182.703 32.7763 181 31.1123 179.297 31.1123ZM103.101 46.9206H144.392C146.094 46.9206 147.797 48.5846 147.797 50.2486C147.797 51.9127 146.094 53.5767 144.392 53.5767H103.101C101.399 53.5767 99.6958 51.9127 99.6958 50.2486C99.6958 48.5846 101.399 46.9206 103.101 46.9206ZM100.547 66.8889C100.547 66.0569 101.399 65.6409 101.824 65.6409H167.804C168.655 65.6409 169.081 66.4729 169.081 66.8889C169.081 67.7209 168.23 68.1369 167.804 68.1369H102.25C101.399 68.1369 100.547 67.7209 100.547 66.8889ZM103.101 81.4492H169.081C169.932 81.4492 170.358 82.2812 170.358 82.6972C170.358 83.5292 169.507 83.9452 169.081 83.9452H103.101C102.25 83.9452 101.824 83.1132 101.824 82.6972C101.824 82.2812 102.25 81.4492 103.101 81.4492ZM169.081 117.226H103.101C102.25 117.226 101.824 116.394 101.824 115.978C101.824 115.146 102.676 114.73 103.101 114.73H169.081C169.932 114.73 170.358 115.562 170.358 115.978C170.784 116.394 169.932 117.226 169.081 117.226ZM169.081 99.7535H103.101C102.25 99.7535 101.824 98.9214 101.824 98.5054C101.824 97.6734 102.676 97.2574 103.101 97.2574H169.081C169.932 97.2574 170.358 98.0894 170.358 98.5054C170.784 98.9214 169.932 99.7535 169.081 99.7535Z" fill="#070606"/>
<path d="M49.0391 112.65L66.0661 129.706V96.0093L49.0391 112.65Z" fill="black"/>
<path d="M29.459 131.786H63.9387L46.9117 114.729L29.459 131.786Z" fill="black"/>
<path d="M63.9387 93.5132H29.459L46.9117 110.569L63.9387 93.5132Z" fill="black"/>
<path d="M27.3301 96.0093V129.706L44.7828 112.65L27.3301 96.0093Z" fill="black"/>
<path d="M120.553 78.5371H21.371C17.1143 78.5371 13.2832 81.8652 13.2832 86.4412V158.41C13.2832 162.571 16.6886 166.315 21.371 166.315H117.999C122.256 166.315 126.087 162.987 126.087 158.41V83.5292C125.662 81.0331 123.533 78.5371 120.553 78.5371ZM24.3508 90.6013H26.0535H67.7697H69.4724V134.698H67.7697H25.6278H24.3508V90.6013ZM117.999 156.746H25.6278C24.7764 156.746 23.9251 155.914 23.9251 155.082C23.9251 154.25 24.7764 153.418 25.6278 153.418H117.999C118.851 153.418 119.702 154.25 119.702 155.082C119.702 155.914 118.851 156.746 117.999 156.746ZM117.999 146.762H25.6278C24.7764 146.762 23.9251 145.93 23.9251 145.098C23.9251 144.266 24.7764 143.434 25.6278 143.434H117.999C118.851 143.434 119.702 144.266 119.702 145.098C119.702 145.93 118.851 146.762 117.999 146.762Z" fill="black" stroke="#97A090" stroke-width="0.25" stroke-miterlimit="10"/>
<path d="M113.743 464.176C176.278 464.176 226.973 414.633 226.973 353.518C226.973 292.404 176.278 242.86 113.743 242.86C51.2083 242.86 0.513672 292.404 0.513672 353.518C0.513672 414.633 51.2083 464.176 113.743 464.176Z" fill="#97A090"/>
<path d="M143.966 291.533C143.966 291.533 181.426 296.109 185.257 344.366C186.534 361.838 180.148 405.519 125.236 407.599" stroke="black" stroke-width="3.3793" stroke-miterlimit="10"/>
<path d="M143.966 381.807L116.297 408.431L153.756 422.991" stroke="black" stroke-width="3.3793" stroke-miterlimit="10"/>
<path d="M90.7568 411.759C90.7568 411.759 42.6555 403.439 41.8041 353.934C41.3785 323.149 54.1487 287.373 108.635 291.533" stroke="black" stroke-width="3.3793" stroke-miterlimit="10"/>
<path d="M87.3513 315.245L117.574 291.949L82.2432 273.645" stroke="black" stroke-width="3.3793" stroke-miterlimit="10"/>
<path d="M377.23 464.316C439.765 464.316 490.459 414.773 490.459 353.658C490.459 292.543 439.765 243 377.23 243C314.695 243 264 292.543 264 353.658C264 414.773 314.695 464.316 377.23 464.316Z" fill="#97A090"/>
<path d="M308.702 344.782C308.702 344.782 317.216 326.062 344.459 332.302C354.249 334.382 376.81 345.198 368.722 373.903" stroke="black" stroke-width="1.8807" stroke-miterlimit="10"/>
<path d="M357.655 359.758L367.446 378.479L381.493 361.838" stroke="black" stroke-width="1.8807" stroke-miterlimit="10"/>
<path d="M365.317 392.207C365.317 392.207 352.546 415.919 325.729 408.015C309.127 403.023 291.675 390.543 303.168 362.67" stroke="black" stroke-width="1.8807" stroke-miterlimit="10"/>
<path d="M312.107 378.063L304.445 358.51L288.695 373.487" stroke="black" stroke-width="1.8807" stroke-miterlimit="10"/>
<path d="M366.595 404.271C347.865 400.111 335.946 381.807 340.203 363.502C344.459 345.198 363.189 333.55 381.919 337.71C400.649 341.87 412.567 360.174 408.311 378.479C404.054 397.199 385.324 408.431 366.595 404.271ZM378.939 351.022C367.446 348.526 355.953 355.598 353.399 366.83C350.845 378.063 358.081 389.295 369.574 391.791C381.067 394.287 392.561 387.215 395.115 375.983C397.669 364.75 390.432 353.518 378.939 351.022Z" fill="#97A090" stroke="black" stroke-width="0.7957" stroke-miterlimit="10"/>
<path d="M356.804 382.223C356.804 382.223 370.425 393.039 383.621 382.639" stroke="black" stroke-width="0.855" stroke-miterlimit="10"/>
<path d="M390.006 357.262C390.006 357.262 397.668 372.654 383.621 382.639" stroke="black" stroke-width="0.855" stroke-miterlimit="10"/>
<path d="M391.283 360.174C387.452 361.838 383.621 363.502 380.216 365.166C382.344 364.75 384.898 366.414 385.75 368.494C381.067 368.078 376.81 369.326 372.128 370.99C368.297 372.238 364.466 373.486 360.635 374.734C360.635 374.318 361.06 373.486 361.486 373.486C365.743 370.574 370.851 368.494 376.385 368.494C374.256 367.246 372.128 366.414 370 365.166C376.81 363.918 382.77 359.342 389.581 359.758" fill="black"/>
<path d="M397.243 344.366L407.885 362.254C407.885 362.254 416.399 358.094 421.081 355.182C421.081 355.182 420.23 349.774 417.25 344.366C415.973 341.87 409.162 336.046 409.162 336.046C403.203 339.374 397.243 344.366 397.243 344.366Z" stroke="black" stroke-width="0.855" stroke-miterlimit="10" stroke-linecap="round"/>
<path d="M472.162 313.165C467.905 306.093 460.243 307.757 460.243 307.757C453.007 308.589 428.743 324.398 408.736 336.878C413.419 339.79 420.655 345.614 421.081 355.182C441.939 343.95 467.054 331.47 471.311 325.646C471.311 325.646 476.419 320.238 472.162 313.165Z" stroke="black" stroke-width="0.855" stroke-miterlimit="10" stroke-linecap="round"/>
<path opacity="0.47" d="M374.256 392.207C386.011 392.207 395.54 382.894 395.54 371.406C395.54 359.919 386.011 350.606 374.256 350.606C362.502 350.606 352.973 359.919 352.973 371.406C352.973 382.894 362.502 392.207 374.256 392.207Z" fill="black"/>
<path d="M402.777 351.854C397.669 341.454 385.75 339.374 385.75 339.374C370.426 335.214 362.338 339.79 362.338 339.79C345.311 347.278 341.905 359.342 341.905 359.342C337.649 369.743 340.628 380.975 340.628 380.975C340.628 380.975 330.838 350.606 353.824 337.294C365.318 330.638 386.601 328.558 397.669 342.286L402.777 351.854Z" fill="#97A090" stroke="black" stroke-width="0.855" stroke-miterlimit="10"/>
</svg>

