<svg width="369" height="357" viewBox="0 0 369 357" fill="none" xmlns="http://www.w3.org/2000/svg">
<path d="M184.5 357C286.397 357 369 277.083 369 178.5C369 79.9172 286.397 0 184.5 0C82.6035 0 0 79.9172 0 178.5C0 277.083 82.6035 357 184.5 357Z" fill="#FEE476"/>
<path d="M104.044 282.517C72.8318 280.504 49.2491 254.333 51.3299 224.135C53.4107 193.938 80.4615 171.122 111.674 173.135C142.886 175.148 166.469 201.32 164.388 231.517C162.307 261.714 135.257 284.53 104.044 282.517ZM110.287 194.609C91.5592 193.267 74.9126 207.359 73.5254 225.477C72.1382 243.596 86.704 259.701 105.431 261.043C124.159 262.385 140.805 248.293 142.193 230.175C143.58 212.056 129.014 195.951 110.287 194.609Z" stroke="black" stroke-width="0.7957" stroke-miterlimit="10"/>
<path d="M51.3301 216.749L93.6402 119.446C93.6402 119.446 102.657 95.2884 136.644 100.657C163.001 104.683 162.307 126.828 162.307 126.828L163.001 235.538" stroke="black" stroke-width="0.7957" stroke-miterlimit="10"/>
<path d="M204.616 232.187C203.229 201.989 226.811 175.818 258.024 174.476C289.236 173.134 316.287 195.95 317.674 226.147C319.061 256.345 295.479 282.516 264.266 283.858C233.054 285.2 206.003 262.384 204.616 232.187ZM226.118 230.845C226.811 248.963 243.458 263.727 262.185 262.384C280.913 261.042 296.172 245.608 294.785 227.49C293.398 209.371 277.445 194.608 258.717 195.95C239.99 197.292 225.424 212.726 226.118 230.845Z" stroke="black" stroke-width="0.7957" stroke-miterlimit="10"/>
<path d="M316.986 218.763L275.369 120.789C275.369 120.789 266.353 96.6307 232.366 101.999C206.009 106.025 206.009 127.499 206.009 127.499L203.928 236.21" stroke="black" stroke-width="0.7957" stroke-miterlimit="10"/>
<path d="M162.995 206.017C162.995 206.017 172.012 201.99 183.11 202.661C196.288 202.661 203.918 206.017 203.918 206.017L208.08 177.832C208.08 177.832 195.595 171.793 183.11 171.793C166.463 171.793 154.672 177.832 154.672 177.832L162.995 206.017Z" fill="#FEE476" stroke="black" stroke-width="0.7957" stroke-miterlimit="10"/>
<path d="M154.672 177.161L155.365 150.99C155.365 150.99 167.85 144.951 183.11 144.951C198.369 144.951 210.854 150.99 210.854 150.99L208.08 177.161C208.08 177.161 194.901 171.122 183.11 171.122C183.803 171.122 167.157 171.122 154.672 177.161Z" fill="#FEE476" stroke="black" stroke-width="0.7957" stroke-miterlimit="10"/>
<path d="M73.5283 222.121C73.5283 222.121 79.7708 248.964 107.515 248.293" stroke="black" stroke-width="0.855" stroke-miterlimit="10"/>
<path d="M141.505 222.121C141.505 222.121 135.263 248.964 107.519 248.293" stroke="black" stroke-width="0.855" stroke-miterlimit="10"/>
<path d="M226.807 226.815C226.807 226.815 233.049 253.658 260.793 252.987" stroke="black" stroke-width="0.855" stroke-miterlimit="10"/>
<path d="M294.784 226.815C294.784 226.815 288.541 253.658 260.797 252.987" stroke="black" stroke-width="0.855" stroke-miterlimit="10"/>
<path d="M183.115 193.936C186.945 193.936 190.051 190.932 190.051 187.226C190.051 183.52 186.945 180.516 183.115 180.516C179.284 180.516 176.179 183.52 176.179 187.226C176.179 190.932 179.284 193.936 183.115 193.936Z" stroke="black" stroke-width="0.7957" stroke-miterlimit="10"/>
<path d="M280.911 203.999C275.362 207.354 269.813 210.709 264.264 214.735C267.732 213.393 271.894 215.406 273.975 218.762C266.345 219.433 259.409 222.788 253.167 226.143C246.924 228.827 241.375 231.512 235.133 234.867C235.133 234.196 235.826 232.854 236.52 232.183C242.762 226.143 250.392 222.117 258.716 220.104C255.247 218.762 251.779 217.42 247.618 216.078C258.022 212.722 266.345 203.999 277.443 203.328" fill="black"/>
<path d="M131.79 206.016C126.241 209.372 120.692 212.727 115.143 216.753C118.611 215.411 122.773 217.424 124.854 220.779C117.224 221.45 110.288 224.806 104.046 228.161C97.8031 230.845 92.2542 233.529 86.0117 236.884C86.0117 236.213 86.7053 234.871 87.3989 234.2C93.6414 228.161 101.271 224.135 109.594 222.121C106.126 220.779 102.658 219.437 98.4967 218.095C108.901 214.74 117.224 206.016 128.322 205.345" fill="black"/>
<path d="M108.893 104.014L119.99 91.9351C119.99 91.9351 137.331 83.8823 152.59 95.2905L155.364 109.383" stroke="black" stroke-width="0.9355" stroke-miterlimit="10"/>
<path d="M260.798 105.357L249.7 93.2787C249.7 93.2787 232.36 85.2263 217.101 96.6339L214.326 110.726" stroke="black" stroke-width="0.9355" stroke-miterlimit="10"/>
</svg>
