
<svg version="1.1" id="Lag_1" xmlns="http://www.w3.org/2000/svg" xmlns:xlink="http://www.w3.org/1999/xlink" x="0px" y="0px"
	 viewBox="0 0 342.53 101.46" style="enable-background:new 0 0 342.53 101.46;" xml:space="preserve">
<path d="M31.5,66.87V32.51h17.7c3.28,0,5.79,0.28,7.52,0.84s3.13,1.61,4.2,3.13s1.59,3.38,1.59,5.57c0,1.91-0.41,3.55-1.22,4.93
	c-0.81,1.38-1.93,2.5-3.35,3.36c-0.91,0.55-2.15,1-3.73,1.36c1.26,0.42,11.09,15.16,11.09,15.16h-12l-5.82-9.96l-2.27-4.25
	l-3.04,0.02v14.19H31.5z M42.16,46.44h4.48c0.48,0,1.42-0.16,2.81-0.47c0.7-0.14,1.28-0.5,1.72-1.08s0.67-1.24,0.67-1.99
	c0-1.11-0.35-1.96-1.05-2.55s-2.02-0.89-3.96-0.89h-4.66V46.44z M66.93,32.53h28.45v7.34H77.57v5.46h9.52v7.01h-9.52v6.77H95.9v7.78
	H66.93V32.53z"/>
<path d="M120.44,32.51h15.77c3.11,0,5.62,0.42,7.54,1.27s3.5,2.05,4.75,3.63s2.16,3.41,2.72,5.51s0.84,4.31,0.84,6.66
	c0,3.67-0.42,6.52-1.25,8.54s-2,3.72-3.48,5.09c-1.48,1.37-3.08,2.28-4.78,2.73c-2.33,0.62-4.44,0.94-6.33,0.94h-15.77V32.51z
	 M131.06,40.3v18.77h2.6c2.22,0,3.8-0.25,4.73-0.74s1.67-1.35,2.2-2.58s0.8-3.21,0.8-5.96c0-3.64-0.59-6.13-1.78-7.48
	s-3.16-2.02-5.91-2.02H131.06z"/>
<path d="M158.61,32.51h28.45v7.34h-17.81v5.46h9.52v7.01h-9.52v6.77h18.33v7.78h-28.97V32.51z"/>
<polygon points="226.6,32.51 225.74,32.51 193.35,32.51 193.35,66.87 204.01,66.87 204.01,52.84 213.32,52.84 213.32,45.9 
	204.01,45.9 204.01,39.9 225.74,39.9 225.74,66.87 236.38,66.87 236.38,32.51 "/>
<path d="M244.06,32.51h9.91l12.94,19.01V32.51h10.01v34.36h-10.01l-12.87-18.87v18.87h-9.98V32.51z"/>
<path d="M283.96,32.51h28.45v7.34H294.6v5.46h9.52v7.01h-9.52v6.77h18.33v7.78h-28.97V32.51z"/>
<circle cx="108.17" cy="39.45" r="4.66"/>
<circle cx="108.17" cy="59.07" r="4.66"/>
</svg>
