<svg width="1437" height="881" viewBox="0 0 1437 881" fill="none" xmlns="http://www.w3.org/2000/svg">
<path d="M0 16.1434C0 16.1434 509.5 -20.1792 718.5 16.1434C927.5 52.4659 1437 16.1434 1437 16.1434V860.108C1437 860.108 1098 907.114 718.5 860.108C339 813.103 0 860.108 0 860.108V16.1434Z" fill="#97A090"/>
<path d="M150.664 399H146.129V373.635H150.664V385.307H150.963L160.965 373.635H166.168L156.588 384.691L166.924 399H161.387L153.371 387.803L150.664 390.914V399ZM173.85 394.078C174.682 395.18 175.859 395.73 177.383 395.73C178.906 395.73 180.078 395.18 180.898 394.078C181.73 392.965 182.146 391.4 182.146 389.385C182.146 387.381 181.73 385.822 180.898 384.709C180.066 383.596 178.895 383.039 177.383 383.039C175.859 383.039 174.682 383.596 173.85 384.709C173.018 385.822 172.602 387.381 172.602 389.385C172.602 391.4 173.018 392.965 173.85 394.078ZM177.383 399.387C174.5 399.387 172.238 398.502 170.598 396.732C168.957 394.951 168.137 392.502 168.137 389.385C168.137 386.291 168.963 383.854 170.615 382.072C172.268 380.279 174.523 379.383 177.383 379.383C180.254 379.383 182.51 380.273 184.15 382.055C185.803 383.836 186.629 386.279 186.629 389.385C186.629 392.502 185.803 394.951 184.15 396.732C182.51 398.502 180.254 399.387 177.383 399.387ZM191.023 399V379.77H195.225V382.846H195.523C195.98 381.768 196.742 380.924 197.809 380.314C198.887 379.693 200.141 379.383 201.57 379.383C203.715 379.383 205.367 380.004 206.527 381.246C207.688 382.488 208.268 384.258 208.268 386.555V399H203.926V387.592C203.926 384.65 202.602 383.18 199.953 383.18C198.547 383.18 197.434 383.596 196.613 384.428C195.793 385.26 195.383 386.385 195.383 387.803V399H191.023ZM230.064 386.238H225.916C225.705 385.266 225.236 384.492 224.51 383.918C223.783 383.332 222.84 383.039 221.68 383.039C220.18 383.039 219.008 383.59 218.164 384.691C217.332 385.793 216.916 387.34 216.916 389.332C216.916 391.348 217.338 392.918 218.182 394.043C219.025 395.168 220.191 395.73 221.68 395.73C222.816 395.73 223.748 395.467 224.475 394.939C225.213 394.412 225.693 393.65 225.916 392.654H230.064C229.818 394.705 228.957 396.34 227.48 397.559C226.016 398.777 224.088 399.387 221.697 399.387C218.803 399.387 216.547 398.502 214.93 396.732C213.312 394.963 212.504 392.496 212.504 389.332C212.504 386.203 213.312 383.766 214.93 382.02C216.547 380.262 218.797 379.383 221.68 379.383C224.094 379.383 226.033 380.01 227.498 381.264C228.975 382.506 229.83 384.164 230.064 386.238ZM242.299 382.846C240.998 382.846 239.926 383.273 239.082 384.129C238.238 384.984 237.77 386.115 237.676 387.521H246.729C246.682 386.092 246.26 384.955 245.463 384.111C244.666 383.268 243.611 382.846 242.299 382.846ZM246.764 393.709H250.895C250.484 395.467 249.518 396.855 247.994 397.875C246.482 398.883 244.602 399.387 242.352 399.387C239.527 399.387 237.307 398.508 235.689 396.75C234.084 394.98 233.281 392.549 233.281 389.455C233.281 386.361 234.09 383.912 235.707 382.107C237.324 380.291 239.527 379.383 242.316 379.383C245.059 379.383 247.203 380.244 248.75 381.967C250.309 383.678 251.088 386.051 251.088 389.086V390.492H237.658V390.721C237.717 392.326 238.174 393.598 239.029 394.535C239.896 395.461 241.045 395.924 242.475 395.924C244.678 395.924 246.107 395.186 246.764 393.709ZM265.941 379.453C268.379 379.453 270.307 380.338 271.725 382.107C273.154 383.877 273.869 386.303 273.869 389.385C273.869 392.455 273.16 394.881 271.742 396.662C270.336 398.432 268.42 399.316 265.994 399.316C264.623 399.316 263.422 399.035 262.391 398.473C261.371 397.898 260.615 397.102 260.123 396.082H259.824V405.152H255.465V379.77H259.666V382.951H259.965C260.516 381.861 261.318 381.006 262.373 380.385C263.439 379.764 264.629 379.453 265.941 379.453ZM264.57 395.607C266.082 395.607 267.26 395.057 268.104 393.955C268.959 392.854 269.387 391.33 269.387 389.385C269.387 387.439 268.959 385.916 268.104 384.814C267.26 383.713 266.088 383.162 264.588 383.162C263.1 383.162 261.922 383.719 261.055 384.832C260.188 385.945 259.748 387.463 259.736 389.385C259.748 391.307 260.182 392.824 261.037 393.938C261.904 395.051 263.082 395.607 264.57 395.607ZM279.635 375.182H283.977V379.893H288.195V383.373H283.977V392.812C283.977 393.762 284.188 394.459 284.609 394.904C285.031 395.338 285.699 395.555 286.613 395.555C287.012 395.555 287.492 395.525 288.055 395.467V398.877C287.352 399.018 286.602 399.088 285.805 399.088C283.602 399.088 282.02 398.684 281.059 397.875C280.109 397.066 279.635 395.73 279.635 393.867V383.373H276.506V379.893H279.635V375.182ZM320.17 399L318.078 396.768C317.082 397.623 315.887 398.291 314.492 398.771C313.098 399.24 311.627 399.475 310.08 399.475C307.443 399.475 305.322 398.824 303.717 397.523C302.111 396.211 301.309 394.477 301.309 392.32C301.309 390.855 301.701 389.566 302.486 388.453C303.271 387.34 304.49 386.338 306.143 385.447C306.189 385.424 306.359 385.33 306.652 385.166C306.957 385.002 307.145 384.902 307.215 384.867C306.066 383.672 305.252 382.629 304.771 381.738C304.291 380.848 304.051 379.939 304.051 379.014C304.051 377.326 304.707 375.932 306.02 374.83C307.344 373.717 309.002 373.16 310.994 373.16C312.998 373.16 314.645 373.705 315.934 374.795C317.223 375.873 317.867 377.262 317.867 378.961C317.867 380.262 317.445 381.445 316.602 382.512C315.758 383.566 314.422 384.58 312.594 385.553L317.99 391.266C318.658 390.023 318.992 388.213 318.992 385.834V384.885H322.807V386.045C322.807 389.396 322.098 392.092 320.68 394.131L325.268 399H320.17ZM308.586 387.732C306.535 388.822 305.51 390.234 305.51 391.969C305.51 393.188 305.967 394.178 306.881 394.939C307.807 395.689 309.02 396.064 310.52 396.064C311.527 396.064 312.494 395.889 313.42 395.537C314.357 395.186 315.113 394.711 315.688 394.113L309.377 387.346C309.154 387.428 308.891 387.557 308.586 387.732ZM310.449 383.338C311.75 382.682 312.676 382.037 313.227 381.404C313.789 380.771 314.07 380.051 314.07 379.242C314.07 378.375 313.783 377.672 313.209 377.133C312.646 376.594 311.914 376.324 311.012 376.324C310.121 376.324 309.389 376.6 308.814 377.15C308.252 377.689 307.971 378.387 307.971 379.242C307.971 379.863 308.152 380.479 308.516 381.088C308.891 381.697 309.535 382.447 310.449 383.338ZM146.129 403.635H155.639C159.412 403.635 162.342 404.736 164.428 406.939C166.525 409.131 167.574 412.219 167.574 416.203C167.574 420.27 166.531 423.422 164.445 425.66C162.371 427.887 159.436 429 155.639 429H146.129V403.635ZM150.664 407.555V425.08H155.041C157.572 425.08 159.523 424.318 160.895 422.795C162.266 421.271 162.951 419.098 162.951 416.273C162.951 413.508 162.254 411.363 160.859 409.84C159.477 408.316 157.537 407.555 155.041 407.555H150.664ZM180.354 412.846C179.053 412.846 177.98 413.273 177.137 414.129C176.293 414.984 175.824 416.115 175.73 417.521H184.783C184.736 416.092 184.314 414.955 183.518 414.111C182.721 413.268 181.666 412.846 180.354 412.846ZM184.818 423.709H188.949C188.539 425.467 187.572 426.855 186.049 427.875C184.537 428.883 182.656 429.387 180.406 429.387C177.582 429.387 175.361 428.508 173.744 426.75C172.139 424.98 171.336 422.549 171.336 419.455C171.336 416.361 172.145 413.912 173.762 412.107C175.379 410.291 177.582 409.383 180.371 409.383C183.113 409.383 185.258 410.244 186.805 411.967C188.363 413.678 189.143 416.051 189.143 419.086V420.492H175.713V420.721C175.771 422.326 176.229 423.598 177.084 424.535C177.951 425.461 179.1 425.924 180.529 425.924C182.732 425.924 184.162 425.186 184.818 423.709ZM193.08 415.271C193.08 413.537 193.795 412.125 195.225 411.035C196.654 409.934 198.506 409.383 200.779 409.383C203.064 409.383 204.887 409.869 206.246 410.842C207.617 411.803 208.379 413.156 208.531 414.902H204.436C204.271 414.211 203.873 413.672 203.24 413.285C202.619 412.887 201.805 412.688 200.797 412.688C199.789 412.688 198.957 412.904 198.301 413.338C197.645 413.771 197.316 414.334 197.316 415.025C197.316 415.564 197.545 416.01 198.002 416.361C198.471 416.713 199.191 417 200.164 417.223L203.557 417.996C205.408 418.418 206.768 419.045 207.635 419.877C208.502 420.709 208.936 421.828 208.936 423.234C208.936 425.074 208.174 426.562 206.65 427.699C205.127 428.824 203.158 429.387 200.744 429.387C198.342 429.387 196.42 428.895 194.979 427.91C193.549 426.926 192.752 425.561 192.588 423.814H196.895C197.105 424.541 197.545 425.104 198.213 425.502C198.893 425.889 199.771 426.082 200.85 426.082C201.951 426.082 202.848 425.865 203.539 425.432C204.23 424.986 204.576 424.406 204.576 423.691C204.576 422.625 203.691 421.898 201.922 421.512L198.512 420.721C196.66 420.299 195.289 419.648 194.398 418.77C193.52 417.879 193.08 416.713 193.08 415.271ZM213.4 429V409.77H217.742V429H213.4ZM215.562 406.641C214.777 406.641 214.133 406.418 213.629 405.973C213.125 405.516 212.873 404.936 212.873 404.232C212.873 403.529 213.125 402.955 213.629 402.51C214.133 402.053 214.777 401.824 215.562 401.824C216.359 401.824 217.004 402.053 217.496 402.51C218 402.955 218.252 403.529 218.252 404.232C218.252 404.936 218 405.516 217.496 405.973C217.004 406.418 216.359 406.641 215.562 406.641ZM234.986 423.551C235.854 422.473 236.287 421.014 236.287 419.174C236.287 417.334 235.854 415.875 234.986 414.797C234.119 413.707 232.93 413.162 231.418 413.162C229.918 413.162 228.746 413.701 227.902 414.779C227.07 415.857 226.654 417.322 226.654 419.174C226.654 421.025 227.07 422.49 227.902 423.568C228.734 424.635 229.906 425.168 231.418 425.168C232.93 425.168 234.119 424.629 234.986 423.551ZM231.418 436.312C228.969 436.312 226.977 435.814 225.441 434.818C223.918 433.822 223.068 432.492 222.893 430.828H227.27C227.41 431.496 227.85 432.023 228.588 432.41C229.338 432.797 230.305 432.99 231.488 432.99C232.977 432.99 234.137 432.656 234.969 431.988C235.801 431.32 236.217 430.383 236.217 429.176V425.537H235.918C235.367 426.568 234.582 427.359 233.562 427.91C232.555 428.449 231.383 428.719 230.047 428.719C227.633 428.719 225.717 427.857 224.299 426.135C222.881 424.4 222.172 422.08 222.172 419.174C222.172 416.221 222.887 413.865 224.316 412.107C225.746 410.338 227.68 409.453 230.117 409.453C231.43 409.453 232.619 409.758 233.686 410.367C234.752 410.977 235.549 411.803 236.076 412.846H236.375V409.77H240.576V429.07C240.576 431.297 239.75 433.061 238.098 434.361C236.445 435.662 234.219 436.312 231.418 436.312ZM245.938 429V409.77H250.139V412.846H250.438C250.895 411.768 251.656 410.924 252.723 410.314C253.801 409.693 255.055 409.383 256.484 409.383C258.629 409.383 260.281 410.004 261.441 411.246C262.602 412.488 263.182 414.258 263.182 416.555V429H258.84V417.592C258.84 414.65 257.516 413.18 254.867 413.18C253.461 413.18 252.348 413.596 251.527 414.428C250.707 415.26 250.297 416.385 250.297 417.803V429H245.938Z" fill="white"/>
<path d="M144.969 177.109H149.398C149.539 178.246 150.131 179.154 151.174 179.834C152.217 180.502 153.541 180.836 155.146 180.836C156.646 180.836 157.877 180.496 158.838 179.816C159.811 179.125 160.297 178.246 160.297 177.18C160.297 176.266 159.928 175.521 159.189 174.947C158.463 174.373 157.285 173.898 155.656 173.523L152.369 172.768C150.072 172.252 148.367 171.414 147.254 170.254C146.152 169.082 145.602 167.553 145.602 165.666C145.602 163.357 146.463 161.506 148.186 160.111C149.92 158.705 152.205 158.002 155.041 158.002C157.701 158.002 159.904 158.693 161.65 160.076C163.396 161.459 164.322 163.24 164.428 165.42H160.086C159.934 164.307 159.4 163.422 158.486 162.766C157.572 162.109 156.418 161.781 155.023 161.781C153.559 161.781 152.381 162.109 151.49 162.766C150.611 163.41 150.172 164.271 150.172 165.35C150.172 166.205 150.518 166.902 151.209 167.441C151.9 167.969 153.031 168.414 154.602 168.777L157.52 169.445C160.086 170.02 161.943 170.875 163.092 172.012C164.252 173.148 164.832 174.684 164.832 176.617C164.832 179.09 163.936 181.047 162.143 182.488C160.361 183.918 157.936 184.633 154.865 184.633C151.959 184.633 149.609 183.953 147.816 182.594C146.035 181.234 145.086 179.406 144.969 177.109ZM177.541 167.846C176.24 167.846 175.168 168.273 174.324 169.129C173.48 169.984 173.012 171.115 172.918 172.521H181.971C181.924 171.092 181.502 169.955 180.705 169.111C179.908 168.268 178.854 167.846 177.541 167.846ZM182.006 178.709H186.137C185.727 180.467 184.76 181.855 183.236 182.875C181.725 183.883 179.844 184.387 177.594 184.387C174.77 184.387 172.549 183.508 170.932 181.75C169.326 179.98 168.523 177.549 168.523 174.455C168.523 171.361 169.332 168.912 170.949 167.107C172.566 165.291 174.77 164.383 177.559 164.383C180.301 164.383 182.445 165.244 183.992 166.967C185.551 168.678 186.33 171.051 186.33 174.086V175.492H172.9V175.721C172.959 177.326 173.416 178.598 174.271 179.535C175.139 180.461 176.287 180.924 177.717 180.924C179.92 180.924 181.35 180.186 182.006 178.709ZM190.707 184V164.77H194.908V167.758H195.207C195.477 166.797 196.08 166.006 197.018 165.385C197.955 164.764 199.033 164.453 200.252 164.453C201.002 164.453 201.6 164.518 202.045 164.646V168.689C201.6 168.525 200.861 168.443 199.83 168.443C198.424 168.443 197.275 168.854 196.385 169.674C195.506 170.482 195.066 171.555 195.066 172.891V184H190.707ZM203.979 164.77H208.654L213.102 179.641H213.4L217.812 164.77H222.418L215.615 184H210.816L203.979 164.77ZM226.162 184V164.77H230.504V184H226.162ZM228.324 161.641C227.539 161.641 226.895 161.418 226.391 160.973C225.887 160.516 225.635 159.936 225.635 159.232C225.635 158.529 225.887 157.955 226.391 157.51C226.895 157.053 227.539 156.824 228.324 156.824C229.121 156.824 229.766 157.053 230.258 157.51C230.762 157.955 231.014 158.529 231.014 159.232C231.014 159.936 230.762 160.516 230.258 160.973C229.766 161.418 229.121 161.641 228.324 161.641ZM252.529 171.238H248.381C248.17 170.266 247.701 169.492 246.975 168.918C246.248 168.332 245.305 168.039 244.145 168.039C242.645 168.039 241.473 168.59 240.629 169.691C239.797 170.793 239.381 172.34 239.381 174.332C239.381 176.348 239.803 177.918 240.646 179.043C241.49 180.168 242.656 180.73 244.145 180.73C245.281 180.73 246.213 180.467 246.939 179.939C247.678 179.412 248.158 178.65 248.381 177.654H252.529C252.283 179.705 251.422 181.34 249.945 182.559C248.48 183.777 246.553 184.387 244.162 184.387C241.268 184.387 239.012 183.502 237.395 181.732C235.777 179.963 234.969 177.496 234.969 174.332C234.969 171.203 235.777 168.766 237.395 167.02C239.012 165.262 241.262 164.383 244.145 164.383C246.559 164.383 248.498 165.01 249.963 166.264C251.439 167.506 252.295 169.164 252.529 171.238ZM264.764 167.846C263.463 167.846 262.391 168.273 261.547 169.129C260.703 169.984 260.234 171.115 260.141 172.521H269.193C269.146 171.092 268.725 169.955 267.928 169.111C267.131 168.268 266.076 167.846 264.764 167.846ZM269.229 178.709H273.359C272.949 180.467 271.982 181.855 270.459 182.875C268.947 183.883 267.066 184.387 264.816 184.387C261.992 184.387 259.771 183.508 258.154 181.75C256.549 179.98 255.746 177.549 255.746 174.455C255.746 171.361 256.555 168.912 258.172 167.107C259.789 165.291 261.992 164.383 264.781 164.383C267.523 164.383 269.668 165.244 271.215 166.967C272.773 168.678 273.553 171.051 273.553 174.086V175.492H260.123V175.721C260.182 177.326 260.639 178.598 261.494 179.535C262.361 180.461 263.51 180.924 264.939 180.924C267.143 180.924 268.572 180.186 269.229 178.709ZM287.984 158.635H297.494C301.268 158.635 304.197 159.736 306.283 161.939C308.381 164.131 309.43 167.219 309.43 171.203C309.43 175.27 308.387 178.422 306.301 180.66C304.227 182.887 301.291 184 297.494 184H287.984V158.635ZM292.52 162.555V180.08H296.896C299.428 180.08 301.379 179.318 302.75 177.795C304.121 176.271 304.807 174.098 304.807 171.273C304.807 168.508 304.109 166.363 302.715 164.84C301.332 163.316 299.393 162.555 296.896 162.555H292.52ZM322.209 167.846C320.908 167.846 319.836 168.273 318.992 169.129C318.148 169.984 317.68 171.115 317.586 172.521H326.639C326.592 171.092 326.17 169.955 325.373 169.111C324.576 168.268 323.521 167.846 322.209 167.846ZM326.674 178.709H330.805C330.395 180.467 329.428 181.855 327.904 182.875C326.393 183.883 324.512 184.387 322.262 184.387C319.438 184.387 317.217 183.508 315.6 181.75C313.994 179.98 313.191 177.549 313.191 174.455C313.191 171.361 314 168.912 315.617 167.107C317.234 165.291 319.438 164.383 322.227 164.383C324.969 164.383 327.113 165.244 328.66 166.967C330.219 168.678 330.998 171.051 330.998 174.086V175.492H317.568V175.721C317.627 177.326 318.084 178.598 318.939 179.535C319.807 180.461 320.955 180.924 322.385 180.924C324.588 180.924 326.018 180.186 326.674 178.709ZM334.936 170.271C334.936 168.537 335.65 167.125 337.08 166.035C338.51 164.934 340.361 164.383 342.635 164.383C344.92 164.383 346.742 164.869 348.102 165.842C349.473 166.803 350.234 168.156 350.387 169.902H346.291C346.127 169.211 345.729 168.672 345.096 168.285C344.475 167.887 343.66 167.688 342.652 167.688C341.645 167.688 340.812 167.904 340.156 168.338C339.5 168.771 339.172 169.334 339.172 170.025C339.172 170.564 339.4 171.01 339.857 171.361C340.326 171.713 341.047 172 342.02 172.223L345.412 172.996C347.264 173.418 348.623 174.045 349.49 174.877C350.357 175.709 350.791 176.828 350.791 178.234C350.791 180.074 350.029 181.562 348.506 182.699C346.982 183.824 345.014 184.387 342.6 184.387C340.197 184.387 338.275 183.895 336.834 182.91C335.404 181.926 334.607 180.561 334.443 178.814H338.75C338.961 179.541 339.4 180.104 340.068 180.502C340.748 180.889 341.627 181.082 342.705 181.082C343.807 181.082 344.703 180.865 345.395 180.432C346.086 179.986 346.432 179.406 346.432 178.691C346.432 177.625 345.547 176.898 343.777 176.512L340.367 175.721C338.516 175.299 337.145 174.648 336.254 173.77C335.375 172.879 334.936 171.713 334.936 170.271ZM355.256 184V164.77H359.598V184H355.256ZM357.418 161.641C356.633 161.641 355.988 161.418 355.484 160.973C354.98 160.516 354.729 159.936 354.729 159.232C354.729 158.529 354.98 157.955 355.484 157.51C355.988 157.053 356.633 156.824 357.418 156.824C358.215 156.824 358.859 157.053 359.352 157.51C359.855 157.955 360.107 158.529 360.107 159.232C360.107 159.936 359.855 160.516 359.352 160.973C358.859 161.418 358.215 161.641 357.418 161.641ZM376.842 178.551C377.709 177.473 378.143 176.014 378.143 174.174C378.143 172.334 377.709 170.875 376.842 169.797C375.975 168.707 374.785 168.162 373.273 168.162C371.773 168.162 370.602 168.701 369.758 169.779C368.926 170.857 368.51 172.322 368.51 174.174C368.51 176.025 368.926 177.49 369.758 178.568C370.59 179.635 371.762 180.168 373.273 180.168C374.785 180.168 375.975 179.629 376.842 178.551ZM373.273 191.312C370.824 191.312 368.832 190.814 367.297 189.818C365.773 188.822 364.924 187.492 364.748 185.828H369.125C369.266 186.496 369.705 187.023 370.443 187.41C371.193 187.797 372.16 187.99 373.344 187.99C374.832 187.99 375.992 187.656 376.824 186.988C377.656 186.32 378.072 185.383 378.072 184.176V180.537H377.773C377.223 181.568 376.438 182.359 375.418 182.91C374.41 183.449 373.238 183.719 371.902 183.719C369.488 183.719 367.572 182.857 366.154 181.135C364.736 179.4 364.027 177.08 364.027 174.174C364.027 171.221 364.742 168.865 366.172 167.107C367.602 165.338 369.535 164.453 371.973 164.453C373.285 164.453 374.475 164.758 375.541 165.367C376.607 165.977 377.404 166.803 377.932 167.846H378.23V164.77H382.432V184.07C382.432 186.297 381.605 188.061 379.953 189.361C378.301 190.662 376.074 191.312 373.273 191.312ZM387.793 184V164.77H391.994V167.846H392.293C392.75 166.768 393.512 165.924 394.578 165.314C395.656 164.693 396.91 164.383 398.34 164.383C400.484 164.383 402.137 165.004 403.297 166.246C404.457 167.488 405.037 169.258 405.037 171.555V184H400.695V172.592C400.695 169.65 399.371 168.18 396.723 168.18C395.316 168.18 394.203 168.596 393.383 169.428C392.562 170.26 392.152 171.385 392.152 172.803V184H387.793Z" fill="white"/>
<path d="M653.969 177.109H658.398C658.539 178.246 659.131 179.154 660.174 179.834C661.217 180.502 662.541 180.836 664.146 180.836C665.646 180.836 666.877 180.496 667.838 179.816C668.811 179.125 669.297 178.246 669.297 177.18C669.297 176.266 668.928 175.521 668.189 174.947C667.463 174.373 666.285 173.898 664.656 173.523L661.369 172.768C659.072 172.252 657.367 171.414 656.254 170.254C655.152 169.082 654.602 167.553 654.602 165.666C654.602 163.357 655.463 161.506 657.186 160.111C658.92 158.705 661.205 158.002 664.041 158.002C666.701 158.002 668.904 158.693 670.65 160.076C672.396 161.459 673.322 163.24 673.428 165.42H669.086C668.934 164.307 668.4 163.422 667.486 162.766C666.572 162.109 665.418 161.781 664.023 161.781C662.559 161.781 661.381 162.109 660.49 162.766C659.611 163.41 659.172 164.271 659.172 165.35C659.172 166.205 659.518 166.902 660.209 167.441C660.9 167.969 662.031 168.414 663.602 168.777L666.52 169.445C669.086 170.02 670.943 170.875 672.092 172.012C673.252 173.148 673.832 174.684 673.832 176.617C673.832 179.09 672.936 181.047 671.143 182.488C669.361 183.918 666.936 184.633 663.865 184.633C660.959 184.633 658.609 183.953 656.816 182.594C655.035 181.234 654.086 179.406 653.969 177.109ZM679.861 160.182H684.203V164.893H688.422V168.373H684.203V177.812C684.203 178.762 684.414 179.459 684.836 179.904C685.258 180.338 685.926 180.555 686.84 180.555C687.238 180.555 687.719 180.525 688.281 180.467V183.877C687.578 184.018 686.828 184.088 686.031 184.088C683.828 184.088 682.246 183.684 681.285 182.875C680.336 182.066 679.861 180.73 679.861 178.867V168.373H676.732V164.893H679.861V160.182ZM692.676 184V164.77H696.877V167.758H697.176C697.445 166.797 698.049 166.006 698.986 165.385C699.924 164.764 701.002 164.453 702.221 164.453C702.971 164.453 703.568 164.518 704.014 164.646V168.689C703.568 168.525 702.83 168.443 701.799 168.443C700.393 168.443 699.244 168.854 698.354 169.674C697.475 170.482 697.035 171.555 697.035 172.891V184H692.676ZM713.77 180.889C715.082 180.889 716.178 180.514 717.057 179.764C717.936 179.002 718.375 178.064 718.375 176.951V175.422L714.033 175.703C711.643 175.855 710.447 176.723 710.447 178.305C710.447 179.102 710.752 179.734 711.361 180.203C711.982 180.66 712.785 180.889 713.77 180.889ZM712.486 184.316C710.611 184.316 709.082 183.789 707.898 182.734C706.715 181.68 706.123 180.285 706.123 178.551C706.123 176.816 706.75 175.457 708.004 174.473C709.27 173.488 711.074 172.926 713.418 172.785L718.375 172.486V170.869C718.375 169.92 718.064 169.193 717.443 168.689C716.822 168.186 715.926 167.934 714.754 167.934C713.746 167.934 712.914 168.109 712.258 168.461C711.602 168.801 711.174 169.293 710.975 169.938H706.861C707.037 168.238 707.857 166.891 709.322 165.895C710.799 164.887 712.68 164.383 714.965 164.383C717.426 164.383 719.324 164.951 720.66 166.088C722.008 167.225 722.682 168.818 722.682 170.869V184H718.48V181.363H718.182C717.643 182.289 716.869 183.016 715.861 183.543C714.865 184.059 713.74 184.316 712.486 184.316ZM729.326 160.182H733.668V164.893H737.887V168.373H733.668V177.812C733.668 178.762 733.879 179.459 734.301 179.904C734.723 180.338 735.391 180.555 736.305 180.555C736.703 180.555 737.184 180.525 737.746 180.467V183.877C737.043 184.018 736.293 184.088 735.496 184.088C733.293 184.088 731.711 183.684 730.75 182.875C729.801 182.066 729.326 180.73 729.326 178.867V168.373H726.197V164.893H729.326V160.182ZM750.033 167.846C748.732 167.846 747.66 168.273 746.816 169.129C745.973 169.984 745.504 171.115 745.41 172.521H754.463C754.416 171.092 753.994 169.955 753.197 169.111C752.4 168.268 751.346 167.846 750.033 167.846ZM754.498 178.709H758.629C758.219 180.467 757.252 181.855 755.729 182.875C754.217 183.883 752.336 184.387 750.086 184.387C747.262 184.387 745.041 183.508 743.424 181.75C741.818 179.98 741.016 177.549 741.016 174.455C741.016 171.361 741.824 168.912 743.441 167.107C745.059 165.291 747.262 164.383 750.051 164.383C752.793 164.383 754.938 165.244 756.484 166.967C758.043 168.678 758.822 171.051 758.822 174.086V175.492H745.393V175.721C745.451 177.326 745.908 178.598 746.764 179.535C747.631 180.461 748.779 180.924 750.209 180.924C752.412 180.924 753.842 180.186 754.498 178.709ZM775.029 178.551C775.896 177.473 776.33 176.014 776.33 174.174C776.33 172.334 775.896 170.875 775.029 169.797C774.162 168.707 772.973 168.162 771.461 168.162C769.961 168.162 768.789 168.701 767.945 169.779C767.113 170.857 766.697 172.322 766.697 174.174C766.697 176.025 767.113 177.49 767.945 178.568C768.777 179.635 769.949 180.168 771.461 180.168C772.973 180.168 774.162 179.629 775.029 178.551ZM771.461 191.312C769.012 191.312 767.02 190.814 765.484 189.818C763.961 188.822 763.111 187.492 762.936 185.828H767.312C767.453 186.496 767.893 187.023 768.631 187.41C769.381 187.797 770.348 187.99 771.531 187.99C773.02 187.99 774.18 187.656 775.012 186.988C775.844 186.32 776.26 185.383 776.26 184.176V180.537H775.961C775.41 181.568 774.625 182.359 773.605 182.91C772.598 183.449 771.426 183.719 770.09 183.719C767.676 183.719 765.76 182.857 764.342 181.135C762.924 179.4 762.215 177.08 762.215 174.174C762.215 171.221 762.93 168.865 764.359 167.107C765.789 165.338 767.723 164.453 770.16 164.453C771.473 164.453 772.662 164.758 773.729 165.367C774.795 165.977 775.592 166.803 776.119 167.846H776.418V164.77H780.619V184.07C780.619 186.297 779.793 188.061 778.141 189.361C776.488 190.662 774.262 191.312 771.461 191.312ZM786.033 184V164.77H790.375V184H786.033ZM788.195 161.641C787.41 161.641 786.766 161.418 786.262 160.973C785.758 160.516 785.506 159.936 785.506 159.232C785.506 158.529 785.758 157.955 786.262 157.51C786.766 157.053 787.41 156.824 788.195 156.824C788.992 156.824 789.637 157.053 790.129 157.51C790.633 157.955 790.885 158.529 790.885 159.232C790.885 159.936 790.633 160.516 790.129 160.973C789.637 161.418 788.992 161.641 788.195 161.641Z" fill="white"/>
<path d="M1056.66 184H1052.13V158.635H1056.66V170.307H1056.96L1066.96 158.635H1072.17L1062.59 169.691L1072.92 184H1067.39L1059.37 172.803L1056.66 175.914V184ZM1079.85 179.078C1080.68 180.18 1081.86 180.73 1083.38 180.73C1084.91 180.73 1086.08 180.18 1086.9 179.078C1087.73 177.965 1088.15 176.4 1088.15 174.385C1088.15 172.381 1087.73 170.822 1086.9 169.709C1086.07 168.596 1084.89 168.039 1083.38 168.039C1081.86 168.039 1080.68 168.596 1079.85 169.709C1079.02 170.822 1078.6 172.381 1078.6 174.385C1078.6 176.4 1079.02 177.965 1079.85 179.078ZM1083.38 184.387C1080.5 184.387 1078.24 183.502 1076.6 181.732C1074.96 179.951 1074.14 177.502 1074.14 174.385C1074.14 171.291 1074.96 168.854 1076.62 167.072C1078.27 165.279 1080.52 164.383 1083.38 164.383C1086.25 164.383 1088.51 165.273 1090.15 167.055C1091.8 168.836 1092.63 171.279 1092.63 174.385C1092.63 177.502 1091.8 179.951 1090.15 181.732C1088.51 183.502 1086.25 184.387 1083.38 184.387ZM1097.02 184V164.77H1101.22V167.758H1101.52C1101.79 166.797 1102.4 166.006 1103.33 165.385C1104.27 164.764 1105.35 164.453 1106.57 164.453C1107.32 164.453 1107.92 164.518 1108.36 164.646V168.689C1107.92 168.525 1107.18 168.443 1106.15 168.443C1104.74 168.443 1103.59 168.854 1102.7 169.674C1101.82 170.482 1101.38 171.555 1101.38 172.891V184H1097.02ZM1114.06 160.182H1118.4V164.893H1122.62V168.373H1118.4V177.812C1118.4 178.762 1118.61 179.459 1119.03 179.904C1119.45 180.338 1120.12 180.555 1121.04 180.555C1121.43 180.555 1121.91 180.525 1122.48 180.467V183.877C1121.77 184.018 1121.02 184.088 1120.23 184.088C1118.02 184.088 1116.44 183.684 1115.48 182.875C1114.53 182.066 1114.06 180.73 1114.06 178.867V168.373H1110.93V164.893H1114.06V160.182ZM1127.05 184V157.334H1131.41V184H1127.05ZM1157.19 184.387C1155.68 184.387 1154.3 184.053 1153.04 183.385C1151.8 182.705 1150.9 181.809 1150.34 180.695H1150.04C1149.34 181.855 1148.37 182.764 1147.14 183.42C1145.91 184.064 1144.5 184.387 1142.9 184.387C1140.78 184.387 1139.08 183.854 1137.79 182.787C1136.5 181.709 1135.85 180.297 1135.85 178.551C1135.85 176.816 1136.48 175.457 1137.73 174.473C1139 173.488 1140.8 172.926 1143.15 172.785L1148.11 172.486V170.869C1148.11 169.92 1147.79 169.193 1147.17 168.689C1146.55 168.186 1145.66 167.934 1144.48 167.934C1143.48 167.934 1142.64 168.109 1141.99 168.461C1141.33 168.801 1140.9 169.293 1140.71 169.938H1136.59C1136.76 168.285 1137.55 166.949 1138.98 165.93C1140.42 164.898 1142.21 164.383 1144.34 164.383C1145.82 164.383 1147.09 164.646 1148.14 165.174C1149.2 165.701 1150 166.422 1150.57 167.336H1150.87C1151.5 166.445 1152.37 165.73 1153.48 165.191C1154.6 164.652 1155.81 164.383 1157.12 164.383C1159.74 164.383 1161.79 165.238 1163.29 166.949C1164.79 168.648 1165.54 170.969 1165.54 173.91V175.387H1152.29V175.791C1152.35 177.338 1152.82 178.58 1153.7 179.518C1154.59 180.443 1155.75 180.906 1157.18 180.906C1159.17 180.906 1160.52 180.174 1161.24 178.709H1165.35C1164.93 180.479 1163.99 181.867 1162.54 182.875C1161.1 183.883 1159.31 184.387 1157.19 184.387ZM1156.88 167.846C1155.55 167.846 1154.47 168.262 1153.64 169.094C1152.82 169.926 1152.37 171.039 1152.29 172.434H1161.2C1161.15 171.074 1160.73 169.973 1159.92 169.129C1159.12 168.273 1158.11 167.846 1156.88 167.846ZM1143.62 180.924C1144.89 180.924 1145.95 180.531 1146.8 179.746C1147.67 178.949 1148.11 177.988 1148.11 176.863V175.422L1143.76 175.703C1141.37 175.855 1140.18 176.734 1140.18 178.34C1140.18 179.137 1140.49 179.77 1141.11 180.238C1141.74 180.695 1142.58 180.924 1143.62 180.924ZM1181.77 178.551C1182.63 177.473 1183.07 176.014 1183.07 174.174C1183.07 172.334 1182.63 170.875 1181.77 169.797C1180.9 168.707 1179.71 168.162 1178.2 168.162C1176.7 168.162 1175.53 168.701 1174.68 169.779C1173.85 170.857 1173.44 172.322 1173.44 174.174C1173.44 176.025 1173.85 177.49 1174.68 178.568C1175.52 179.635 1176.69 180.168 1178.2 180.168C1179.71 180.168 1180.9 179.629 1181.77 178.551ZM1178.2 191.312C1175.75 191.312 1173.76 190.814 1172.22 189.818C1170.7 188.822 1169.85 187.492 1169.67 185.828H1174.05C1174.19 186.496 1174.63 187.023 1175.37 187.41C1176.12 187.797 1177.09 187.99 1178.27 187.99C1179.76 187.99 1180.92 187.656 1181.75 186.988C1182.58 186.32 1183 185.383 1183 184.176V180.537H1182.7C1182.15 181.568 1181.36 182.359 1180.34 182.91C1179.34 183.449 1178.16 183.719 1176.83 183.719C1174.41 183.719 1172.5 182.857 1171.08 181.135C1169.66 179.4 1168.95 177.08 1168.95 174.174C1168.95 171.221 1169.67 168.865 1171.1 167.107C1172.53 165.338 1174.46 164.453 1176.9 164.453C1178.21 164.453 1179.4 164.758 1180.47 165.367C1181.53 165.977 1182.33 166.803 1182.86 167.846H1183.16V164.77H1187.36V184.07C1187.36 186.297 1186.53 188.061 1184.88 189.361C1183.23 190.662 1181 191.312 1178.2 191.312ZM1192.72 184V164.77H1196.92V167.846H1197.22C1197.68 166.768 1198.44 165.924 1199.5 165.314C1200.58 164.693 1201.84 164.383 1203.27 164.383C1205.41 164.383 1207.06 165.004 1208.22 166.246C1209.38 167.488 1209.96 169.258 1209.96 171.555V184H1205.62V172.592C1205.62 169.65 1204.3 168.18 1201.65 168.18C1200.24 168.18 1199.13 168.596 1198.31 169.428C1197.49 170.26 1197.08 171.385 1197.08 172.803V184H1192.72ZM1215.2 184V164.77H1219.54V184H1215.2ZM1217.36 161.641C1216.58 161.641 1215.93 161.418 1215.43 160.973C1214.93 160.516 1214.67 159.936 1214.67 159.232C1214.67 158.529 1214.93 157.955 1215.43 157.51C1215.93 157.053 1216.58 156.824 1217.36 156.824C1218.16 156.824 1218.8 157.053 1219.3 157.51C1219.8 157.955 1220.05 158.529 1220.05 159.232C1220.05 159.936 1219.8 160.516 1219.3 160.973C1218.8 161.418 1218.16 161.641 1217.36 161.641ZM1224.96 184V164.77H1229.16V167.846H1229.46C1229.91 166.768 1230.68 165.924 1231.74 165.314C1232.82 164.693 1234.07 164.383 1235.5 164.383C1237.65 164.383 1239.3 165.004 1240.46 166.246C1241.62 167.488 1242.2 169.258 1242.2 171.555V184H1237.86V172.592C1237.86 169.65 1236.54 168.18 1233.89 168.18C1232.48 168.18 1231.37 168.596 1230.55 169.428C1229.73 170.26 1229.32 171.385 1229.32 172.803V184H1224.96ZM1259.22 178.551C1260.08 177.473 1260.52 176.014 1260.52 174.174C1260.52 172.334 1260.08 170.875 1259.22 169.797C1258.35 168.707 1257.16 168.162 1255.65 168.162C1254.15 168.162 1252.98 168.701 1252.13 169.779C1251.3 170.857 1250.88 172.322 1250.88 174.174C1250.88 176.025 1251.3 177.49 1252.13 178.568C1252.96 179.635 1254.14 180.168 1255.65 180.168C1257.16 180.168 1258.35 179.629 1259.22 178.551ZM1255.65 191.312C1253.2 191.312 1251.21 190.814 1249.67 189.818C1248.15 188.822 1247.3 187.492 1247.12 185.828H1251.5C1251.64 186.496 1252.08 187.023 1252.82 187.41C1253.57 187.797 1254.54 187.99 1255.72 187.99C1257.21 187.99 1258.37 187.656 1259.2 186.988C1260.03 186.32 1260.45 185.383 1260.45 184.176V180.537H1260.15C1259.6 181.568 1258.81 182.359 1257.79 182.91C1256.79 183.449 1255.61 183.719 1254.28 183.719C1251.86 183.719 1249.95 182.857 1248.53 181.135C1247.11 179.4 1246.4 177.08 1246.4 174.174C1246.4 171.221 1247.12 168.865 1248.55 167.107C1249.98 165.338 1251.91 164.453 1254.35 164.453C1255.66 164.453 1256.85 164.758 1257.92 165.367C1258.98 165.977 1259.78 166.803 1260.31 167.846H1260.61V164.77H1264.81V184.07C1264.81 186.297 1263.98 188.061 1262.33 189.361C1260.68 190.662 1258.45 191.312 1255.65 191.312ZM1286.34 180.889C1287.65 180.889 1288.75 180.514 1289.63 179.764C1290.51 179.002 1290.95 178.064 1290.95 176.951V175.422L1286.6 175.703C1284.21 175.855 1283.02 176.723 1283.02 178.305C1283.02 179.102 1283.32 179.734 1283.93 180.203C1284.55 180.66 1285.36 180.889 1286.34 180.889ZM1285.06 184.316C1283.18 184.316 1281.65 183.789 1280.47 182.734C1279.29 181.68 1278.69 180.285 1278.69 178.551C1278.69 176.816 1279.32 175.457 1280.57 174.473C1281.84 173.488 1283.64 172.926 1285.99 172.785L1290.95 172.486V170.869C1290.95 169.92 1290.63 169.193 1290.01 168.689C1289.39 168.186 1288.5 167.934 1287.32 167.934C1286.32 167.934 1285.48 168.109 1284.83 168.461C1284.17 168.801 1283.74 169.293 1283.54 169.938H1279.43C1279.61 168.238 1280.43 166.891 1281.89 165.895C1283.37 164.887 1285.25 164.383 1287.54 164.383C1290 164.383 1291.89 164.951 1293.23 166.088C1294.58 167.225 1295.25 168.818 1295.25 170.869V184H1291.05V181.363H1290.75C1290.21 182.289 1289.44 183.016 1288.43 183.543C1287.44 184.059 1286.31 184.316 1285.06 184.316ZM1301.9 184V168.373H1298.77V164.893H1301.9V162.977C1301.9 161.055 1302.4 159.66 1303.41 158.793C1304.43 157.926 1306 157.492 1308.14 157.492C1308.86 157.492 1309.63 157.557 1310.44 157.686V160.938C1310.03 160.844 1309.47 160.797 1308.77 160.797C1307.04 160.797 1306.17 161.617 1306.17 163.258V164.893H1310.33V168.373H1306.24V184H1301.9ZM1051.72 214V194.77H1056.07V214H1051.72ZM1053.89 191.641C1053.1 191.641 1052.46 191.418 1051.95 190.973C1051.45 190.516 1051.2 189.936 1051.2 189.232C1051.2 188.529 1051.45 187.955 1051.95 187.51C1052.46 187.053 1053.1 186.824 1053.89 186.824C1054.68 186.824 1055.33 187.053 1055.82 187.51C1056.32 187.955 1056.58 188.529 1056.58 189.232C1056.58 189.936 1056.32 190.516 1055.82 190.973C1055.33 191.418 1054.68 191.641 1053.89 191.641ZM1061.48 214V194.77H1065.68V197.846H1065.98C1066.44 196.768 1067.2 195.924 1068.27 195.314C1069.34 194.693 1070.6 194.383 1072.03 194.383C1074.17 194.383 1075.82 195.004 1076.98 196.246C1078.14 197.488 1078.72 199.258 1078.72 201.555V214H1074.38V202.592C1074.38 199.65 1073.06 198.18 1070.41 198.18C1069 198.18 1067.89 198.596 1067.07 199.428C1066.25 200.26 1065.84 201.385 1065.84 202.803V214H1061.48ZM1085.3 190.182H1089.64V194.893H1093.86V198.373H1089.64V207.812C1089.64 208.762 1089.85 209.459 1090.27 209.904C1090.7 210.338 1091.36 210.555 1092.28 210.555C1092.68 210.555 1093.16 210.525 1093.72 210.467V213.877C1093.02 214.018 1092.27 214.088 1091.47 214.088C1089.27 214.088 1087.68 213.684 1086.72 212.875C1085.77 212.066 1085.3 210.73 1085.3 208.867V198.373H1082.17V194.893H1085.3V190.182ZM1106.01 197.846C1104.71 197.846 1103.63 198.273 1102.79 199.129C1101.95 199.984 1101.48 201.115 1101.38 202.521H1110.44C1110.39 201.092 1109.97 199.955 1109.17 199.111C1108.37 198.268 1107.32 197.846 1106.01 197.846ZM1110.47 208.709H1114.6C1114.19 210.467 1113.22 211.855 1111.7 212.875C1110.19 213.883 1108.31 214.387 1106.06 214.387C1103.23 214.387 1101.01 213.508 1099.4 211.75C1097.79 209.98 1096.99 207.549 1096.99 204.455C1096.99 201.361 1097.8 198.912 1099.41 197.107C1101.03 195.291 1103.23 194.383 1106.02 194.383C1108.77 194.383 1110.91 195.244 1112.46 196.967C1114.02 198.678 1114.79 201.051 1114.79 204.086V205.492H1101.37V205.721C1101.42 207.326 1101.88 208.598 1102.74 209.535C1103.6 210.461 1104.75 210.924 1106.18 210.924C1108.38 210.924 1109.81 210.186 1110.47 208.709ZM1119.17 214V194.77H1123.37V197.758H1123.67C1123.94 196.797 1124.54 196.006 1125.48 195.385C1126.42 194.764 1127.5 194.453 1128.72 194.453C1129.47 194.453 1130.06 194.518 1130.51 194.646V198.689C1130.06 198.525 1129.33 198.443 1128.29 198.443C1126.89 198.443 1125.74 198.854 1124.85 199.674C1123.97 200.482 1123.53 201.555 1123.53 202.891V214H1119.17ZM1141.65 197.846C1140.35 197.846 1139.28 198.273 1138.44 199.129C1137.59 199.984 1137.12 201.115 1137.03 202.521H1146.08C1146.04 201.092 1145.62 199.955 1144.82 199.111C1144.02 198.268 1142.97 197.846 1141.65 197.846ZM1146.12 208.709H1150.25C1149.84 210.467 1148.87 211.855 1147.35 212.875C1145.84 213.883 1143.96 214.387 1141.71 214.387C1138.88 214.387 1136.66 213.508 1135.04 211.75C1133.44 209.98 1132.64 207.549 1132.64 204.455C1132.64 201.361 1133.45 198.912 1135.06 197.107C1136.68 195.291 1138.88 194.383 1141.67 194.383C1144.41 194.383 1146.56 195.244 1148.11 196.967C1149.66 198.678 1150.44 201.051 1150.44 204.086V205.492H1137.01V205.721C1137.07 207.326 1137.53 208.598 1138.38 209.535C1139.25 210.461 1140.4 210.924 1141.83 210.924C1144.03 210.924 1145.46 210.186 1146.12 208.709ZM1154.38 200.271C1154.38 198.537 1155.1 197.125 1156.53 196.035C1157.96 194.934 1159.81 194.383 1162.08 194.383C1164.37 194.383 1166.19 194.869 1167.55 195.842C1168.92 196.803 1169.68 198.156 1169.83 199.902H1165.74C1165.57 199.211 1165.17 198.672 1164.54 198.285C1163.92 197.887 1163.11 197.688 1162.1 197.688C1161.09 197.688 1160.26 197.904 1159.6 198.338C1158.95 198.771 1158.62 199.334 1158.62 200.025C1158.62 200.564 1158.85 201.01 1159.3 201.361C1159.77 201.713 1160.49 202 1161.46 202.223L1164.86 202.996C1166.71 203.418 1168.07 204.045 1168.94 204.877C1169.8 205.709 1170.24 206.828 1170.24 208.234C1170.24 210.074 1169.47 211.562 1167.95 212.699C1166.43 213.824 1164.46 214.387 1162.04 214.387C1159.64 214.387 1157.72 213.895 1156.28 212.91C1154.85 211.926 1154.05 210.561 1153.89 208.814H1158.2C1158.41 209.541 1158.85 210.104 1159.51 210.502C1160.19 210.889 1161.07 211.082 1162.15 211.082C1163.25 211.082 1164.15 210.865 1164.84 210.432C1165.53 209.986 1165.88 209.406 1165.88 208.691C1165.88 207.625 1164.99 206.898 1163.22 206.512L1159.81 205.721C1157.96 205.299 1156.59 204.648 1155.7 203.77C1154.82 202.879 1154.38 201.713 1154.38 200.271ZM1173.86 200.271C1173.86 198.537 1174.57 197.125 1176 196.035C1177.43 194.934 1179.28 194.383 1181.56 194.383C1183.84 194.383 1185.66 194.869 1187.02 195.842C1188.39 196.803 1189.16 198.156 1189.31 199.902H1185.21C1185.05 199.211 1184.65 198.672 1184.02 198.285C1183.4 197.887 1182.58 197.688 1181.57 197.688C1180.57 197.688 1179.73 197.904 1179.08 198.338C1178.42 198.771 1178.09 199.334 1178.09 200.025C1178.09 200.564 1178.32 201.01 1178.78 201.361C1179.25 201.713 1179.97 202 1180.94 202.223L1184.33 202.996C1186.19 203.418 1187.54 204.045 1188.41 204.877C1189.28 205.709 1189.71 206.828 1189.71 208.234C1189.71 210.074 1188.95 211.562 1187.43 212.699C1185.9 213.824 1183.94 214.387 1181.52 214.387C1179.12 214.387 1177.2 213.895 1175.76 212.91C1174.33 211.926 1173.53 210.561 1173.37 208.814H1177.67C1177.88 209.541 1178.32 210.104 1178.99 210.502C1179.67 210.889 1180.55 211.082 1181.63 211.082C1182.73 211.082 1183.62 210.865 1184.32 210.432C1185.01 209.986 1185.35 209.406 1185.35 208.691C1185.35 207.625 1184.47 206.898 1182.7 206.512L1179.29 205.721C1177.44 205.299 1176.07 204.648 1175.18 203.77C1174.3 202.879 1173.86 201.713 1173.86 200.271ZM1202.19 197.846C1200.89 197.846 1199.82 198.273 1198.98 199.129C1198.13 199.984 1197.66 201.115 1197.57 202.521H1206.62C1206.58 201.092 1206.15 199.955 1205.36 199.111C1204.56 198.268 1203.51 197.846 1202.19 197.846ZM1206.66 208.709H1210.79C1210.38 210.467 1209.41 211.855 1207.89 212.875C1206.38 213.883 1204.5 214.387 1202.25 214.387C1199.42 214.387 1197.2 213.508 1195.58 211.75C1193.98 209.98 1193.18 207.549 1193.18 204.455C1193.18 201.361 1193.98 198.912 1195.6 197.107C1197.22 195.291 1199.42 194.383 1202.21 194.383C1204.95 194.383 1207.1 195.244 1208.64 196.967C1210.2 198.678 1210.98 201.051 1210.98 204.086V205.492H1197.55V205.721C1197.61 207.326 1198.07 208.598 1198.92 209.535C1199.79 210.461 1200.94 210.924 1202.37 210.924C1204.57 210.924 1206 210.186 1206.66 208.709ZM1215.36 214V194.77H1219.56V197.846H1219.86C1220.32 196.768 1221.08 195.924 1222.14 195.314C1223.22 194.693 1224.48 194.383 1225.91 194.383C1228.05 194.383 1229.7 195.004 1230.86 196.246C1232.02 197.488 1232.6 199.258 1232.6 201.555V214H1228.26V202.592C1228.26 199.65 1226.94 198.18 1224.29 198.18C1222.88 198.18 1221.77 198.596 1220.95 199.428C1220.13 200.26 1219.72 201.385 1219.72 202.803V214H1215.36ZM1239.18 190.182H1243.52V194.893H1247.74V198.373H1243.52V207.812C1243.52 208.762 1243.73 209.459 1244.15 209.904C1244.57 210.338 1245.24 210.555 1246.16 210.555C1246.55 210.555 1247.04 210.525 1247.6 210.467V213.877C1246.89 214.018 1246.14 214.088 1245.35 214.088C1243.14 214.088 1241.56 213.684 1240.6 212.875C1239.65 212.066 1239.18 210.73 1239.18 208.867V198.373H1236.05V194.893H1239.18V190.182ZM1259.88 197.846C1258.58 197.846 1257.51 198.273 1256.67 199.129C1255.82 199.984 1255.36 201.115 1255.26 202.521H1264.31C1264.27 201.092 1263.85 199.955 1263.05 199.111C1262.25 198.268 1261.2 197.846 1259.88 197.846ZM1264.35 208.709H1268.48C1268.07 210.467 1267.1 211.855 1265.58 212.875C1264.07 213.883 1262.19 214.387 1259.94 214.387C1257.11 214.387 1254.89 213.508 1253.28 211.75C1251.67 209.98 1250.87 207.549 1250.87 204.455C1250.87 201.361 1251.68 198.912 1253.29 197.107C1254.91 195.291 1257.11 194.383 1259.9 194.383C1262.64 194.383 1264.79 195.244 1266.34 196.967C1267.89 198.678 1268.67 201.051 1268.67 204.086V205.492H1255.24V205.721C1255.3 207.326 1255.76 208.598 1256.62 209.535C1257.48 210.461 1258.63 210.924 1260.06 210.924C1262.26 210.924 1263.69 210.186 1264.35 208.709ZM1273.05 214V194.77H1277.25V197.758H1277.55C1277.82 196.797 1278.42 196.006 1279.36 195.385C1280.3 194.764 1281.38 194.453 1282.6 194.453C1283.35 194.453 1283.94 194.518 1284.39 194.646V198.689C1283.94 198.525 1283.21 198.443 1282.17 198.443C1280.77 198.443 1279.62 198.854 1278.73 199.674C1277.85 200.482 1277.41 201.555 1277.41 202.891V214H1273.05Z" fill="white"/>
<path d="M1052.13 373.635H1061.64C1065.41 373.635 1068.34 374.736 1070.43 376.939C1072.53 379.131 1073.57 382.219 1073.57 386.203C1073.57 390.27 1072.53 393.422 1070.45 395.66C1068.37 397.887 1065.44 399 1061.64 399H1052.13V373.635ZM1056.66 377.555V395.08H1061.04C1063.57 395.08 1065.52 394.318 1066.89 392.795C1068.27 391.271 1068.95 389.098 1068.95 386.273C1068.95 383.508 1068.25 381.363 1066.86 379.84C1065.48 378.316 1063.54 377.555 1061.04 377.555H1056.66ZM1084.75 395.889C1086.07 395.889 1087.16 395.514 1088.04 394.764C1088.92 394.002 1089.36 393.064 1089.36 391.951V390.422L1085.02 390.703C1082.63 390.855 1081.43 391.723 1081.43 393.305C1081.43 394.102 1081.74 394.734 1082.35 395.203C1082.97 395.66 1083.77 395.889 1084.75 395.889ZM1083.47 399.316C1081.6 399.316 1080.07 398.789 1078.88 397.734C1077.7 396.68 1077.11 395.285 1077.11 393.551C1077.11 391.816 1077.73 390.457 1078.99 389.473C1080.25 388.488 1082.06 387.926 1084.4 387.785L1089.36 387.486V385.869C1089.36 384.92 1089.05 384.193 1088.43 383.689C1087.81 383.186 1086.91 382.934 1085.74 382.934C1084.73 382.934 1083.9 383.109 1083.24 383.461C1082.59 383.801 1082.16 384.293 1081.96 384.938H1077.85C1078.02 383.238 1078.84 381.891 1080.31 380.895C1081.78 379.887 1083.66 379.383 1085.95 379.383C1088.41 379.383 1090.31 379.951 1091.64 381.088C1092.99 382.225 1093.67 383.818 1093.67 385.869V399H1089.46V396.363H1089.17C1088.63 397.289 1087.85 398.016 1086.85 398.543C1085.85 399.059 1084.72 399.316 1083.47 399.316ZM1100.31 375.182H1104.65V379.893H1108.87V383.373H1104.65V392.812C1104.65 393.762 1104.86 394.459 1105.29 394.904C1105.71 395.338 1106.38 395.555 1107.29 395.555C1107.69 395.555 1108.17 395.525 1108.73 395.467V398.877C1108.03 399.018 1107.28 399.088 1106.48 399.088C1104.28 399.088 1102.7 398.684 1101.73 397.875C1100.79 397.066 1100.31 395.73 1100.31 393.867V383.373H1097.18V379.893H1100.31V375.182ZM1119.7 395.889C1121.01 395.889 1122.11 395.514 1122.99 394.764C1123.87 394.002 1124.3 393.064 1124.3 391.951V390.422L1119.96 390.703C1117.57 390.855 1116.38 391.723 1116.38 393.305C1116.38 394.102 1116.68 394.734 1117.29 395.203C1117.91 395.66 1118.71 395.889 1119.7 395.889ZM1118.42 399.316C1116.54 399.316 1115.01 398.789 1113.83 397.734C1112.64 396.68 1112.05 395.285 1112.05 393.551C1112.05 391.816 1112.68 390.457 1113.93 389.473C1115.2 388.488 1117 387.926 1119.35 387.785L1124.3 387.486V385.869C1124.3 384.92 1123.99 384.193 1123.37 383.689C1122.75 383.186 1121.86 382.934 1120.68 382.934C1119.68 382.934 1118.84 383.109 1118.19 383.461C1117.53 383.801 1117.1 384.293 1116.9 384.938H1112.79C1112.97 383.238 1113.79 381.891 1115.25 380.895C1116.73 379.887 1118.61 379.383 1120.89 379.383C1123.36 379.383 1125.25 379.951 1126.59 381.088C1127.94 382.225 1128.61 383.818 1128.61 385.869V399H1124.41V396.363H1124.11C1123.57 397.289 1122.8 398.016 1121.79 398.543C1120.79 399.059 1119.67 399.316 1118.42 399.316ZM1161.59 399L1159.5 396.768C1158.5 397.623 1157.3 398.291 1155.91 398.771C1154.52 399.24 1153.04 399.475 1151.5 399.475C1148.86 399.475 1146.74 398.824 1145.13 397.523C1143.53 396.211 1142.73 394.477 1142.73 392.32C1142.73 390.855 1143.12 389.566 1143.9 388.453C1144.69 387.34 1145.91 386.338 1147.56 385.447C1147.61 385.424 1147.78 385.33 1148.07 385.166C1148.38 385.002 1148.56 384.902 1148.63 384.867C1147.48 383.672 1146.67 382.629 1146.19 381.738C1145.71 380.848 1145.47 379.939 1145.47 379.014C1145.47 377.326 1146.12 375.932 1147.44 374.83C1148.76 373.717 1150.42 373.16 1152.41 373.16C1154.42 373.16 1156.06 373.705 1157.35 374.795C1158.64 375.873 1159.29 377.262 1159.29 378.961C1159.29 380.262 1158.86 381.445 1158.02 382.512C1157.18 383.566 1155.84 384.58 1154.01 385.553L1159.41 391.266C1160.08 390.023 1160.41 388.213 1160.41 385.834V384.885H1164.22V386.045C1164.22 389.396 1163.52 392.092 1162.1 394.131L1166.69 399H1161.59ZM1150 387.732C1147.95 388.822 1146.93 390.234 1146.93 391.969C1146.93 393.188 1147.38 394.178 1148.3 394.939C1149.22 395.689 1150.44 396.064 1151.94 396.064C1152.95 396.064 1153.91 395.889 1154.84 395.537C1155.78 395.186 1156.53 394.711 1157.11 394.113L1150.79 387.346C1150.57 387.428 1150.31 387.557 1150 387.732ZM1151.87 383.338C1153.17 382.682 1154.09 382.037 1154.64 381.404C1155.21 380.771 1155.49 380.051 1155.49 379.242C1155.49 378.375 1155.2 377.672 1154.63 377.133C1154.06 376.594 1153.33 376.324 1152.43 376.324C1151.54 376.324 1150.81 376.6 1150.23 377.15C1149.67 377.689 1149.39 378.387 1149.39 379.242C1149.39 379.863 1149.57 380.479 1149.93 381.088C1150.31 381.697 1150.95 382.447 1151.87 383.338ZM1051.72 429V409.77H1056.07V429H1051.72ZM1053.89 406.641C1053.1 406.641 1052.46 406.418 1051.95 405.973C1051.45 405.516 1051.2 404.936 1051.2 404.232C1051.2 403.529 1051.45 402.955 1051.95 402.51C1052.46 402.053 1053.1 401.824 1053.89 401.824C1054.68 401.824 1055.33 402.053 1055.82 402.51C1056.32 402.955 1056.58 403.529 1056.58 404.232C1056.58 404.936 1056.32 405.516 1055.82 405.973C1055.33 406.418 1054.68 406.641 1053.89 406.641ZM1061.48 429V409.77H1065.68V412.846H1065.98C1066.44 411.768 1067.2 410.924 1068.27 410.314C1069.34 409.693 1070.6 409.383 1072.03 409.383C1074.17 409.383 1075.82 410.004 1076.98 411.246C1078.14 412.488 1078.72 414.258 1078.72 416.555V429H1074.38V417.592C1074.38 414.65 1073.06 413.18 1070.41 413.18C1069 413.18 1067.89 413.596 1067.07 414.428C1066.25 415.26 1065.84 416.385 1065.84 417.803V429H1061.48ZM1090.87 429.316C1088.43 429.316 1086.51 428.426 1085.09 426.645C1083.67 424.852 1082.96 422.426 1082.96 419.367C1082.96 416.332 1083.67 413.924 1085.09 412.143C1086.52 410.35 1088.45 409.453 1090.87 409.453C1092.18 409.453 1093.36 409.752 1094.39 410.35C1095.42 410.947 1096.19 411.773 1096.71 412.828H1097.01V402.334H1101.37V429H1097.15V425.959H1096.85C1096.3 427.014 1095.49 427.84 1094.44 428.438C1093.4 429.023 1092.21 429.316 1090.87 429.316ZM1095.76 414.832C1094.89 413.719 1093.71 413.162 1092.22 413.162C1090.74 413.162 1089.56 413.719 1088.71 414.832C1087.85 415.934 1087.43 417.451 1087.43 419.385C1087.43 421.33 1087.85 422.854 1088.69 423.955C1089.55 425.057 1090.72 425.607 1092.22 425.607C1093.72 425.607 1094.9 425.057 1095.76 423.955C1096.62 422.842 1097.06 421.318 1097.06 419.385C1097.06 417.463 1096.62 415.945 1095.76 414.832ZM1106.43 415.271C1106.43 413.537 1107.14 412.125 1108.57 411.035C1110 409.934 1111.85 409.383 1114.13 409.383C1116.41 409.383 1118.23 409.869 1119.59 410.842C1120.96 411.803 1121.73 413.156 1121.88 414.902H1117.78C1117.62 414.211 1117.22 413.672 1116.59 413.285C1115.97 412.887 1115.15 412.688 1114.14 412.688C1113.14 412.688 1112.3 412.904 1111.65 413.338C1110.99 413.771 1110.66 414.334 1110.66 415.025C1110.66 415.564 1110.89 416.01 1111.35 416.361C1111.82 416.713 1112.54 417 1113.51 417.223L1116.9 417.996C1118.76 418.418 1120.12 419.045 1120.98 419.877C1121.85 420.709 1122.28 421.828 1122.28 423.234C1122.28 425.074 1121.52 426.562 1120 427.699C1118.47 428.824 1116.51 429.387 1114.09 429.387C1111.69 429.387 1109.77 428.895 1108.33 427.91C1106.9 426.926 1106.1 425.561 1105.94 423.814H1110.24C1110.45 424.541 1110.89 425.104 1111.56 425.502C1112.24 425.889 1113.12 426.082 1114.2 426.082C1115.3 426.082 1116.2 425.865 1116.89 425.432C1117.58 424.986 1117.92 424.406 1117.92 423.691C1117.92 422.625 1117.04 421.898 1115.27 421.512L1111.86 420.721C1110.01 420.299 1108.64 419.648 1107.75 418.77C1106.87 417.879 1106.43 416.713 1106.43 415.271ZM1126.75 429V409.77H1131.09V429H1126.75ZM1128.91 406.641C1128.12 406.641 1127.48 406.418 1126.98 405.973C1126.47 405.516 1126.22 404.936 1126.22 404.232C1126.22 403.529 1126.47 402.955 1126.98 402.51C1127.48 402.053 1128.12 401.824 1128.91 401.824C1129.71 401.824 1130.35 402.053 1130.84 402.51C1131.35 402.955 1131.6 403.529 1131.6 404.232C1131.6 404.936 1131.35 405.516 1130.84 405.973C1130.35 406.418 1129.71 406.641 1128.91 406.641ZM1148.33 423.551C1149.2 422.473 1149.63 421.014 1149.63 419.174C1149.63 417.334 1149.2 415.875 1148.33 414.797C1147.47 413.707 1146.28 413.162 1144.77 413.162C1143.27 413.162 1142.09 413.701 1141.25 414.779C1140.42 415.857 1140 417.322 1140 419.174C1140 421.025 1140.42 422.49 1141.25 423.568C1142.08 424.635 1143.25 425.168 1144.77 425.168C1146.28 425.168 1147.47 424.629 1148.33 423.551ZM1144.77 436.312C1142.32 436.312 1140.32 435.814 1138.79 434.818C1137.27 433.822 1136.42 432.492 1136.24 430.828H1140.62C1140.76 431.496 1141.2 432.023 1141.94 432.41C1142.69 432.797 1143.65 432.99 1144.84 432.99C1146.32 432.99 1147.48 432.656 1148.32 431.988C1149.15 431.32 1149.56 430.383 1149.56 429.176V425.537H1149.27C1148.71 426.568 1147.93 427.359 1146.91 427.91C1145.9 428.449 1144.73 428.719 1143.39 428.719C1140.98 428.719 1139.06 427.857 1137.65 426.135C1136.23 424.4 1135.52 422.08 1135.52 419.174C1135.52 416.221 1136.23 413.865 1137.66 412.107C1139.09 410.338 1141.03 409.453 1143.46 409.453C1144.78 409.453 1145.97 409.758 1147.03 410.367C1148.1 410.977 1148.9 411.803 1149.42 412.846H1149.72V409.77H1153.92V429.07C1153.92 431.297 1153.1 433.061 1151.45 434.361C1149.79 435.662 1147.57 436.312 1144.77 436.312ZM1160.67 405.182H1165.02V409.893H1169.23V413.373H1165.02V422.812C1165.02 423.762 1165.23 424.459 1165.65 424.904C1166.07 425.338 1166.74 425.555 1167.65 425.555C1168.05 425.555 1168.53 425.525 1169.09 425.467V428.877C1168.39 429.018 1167.64 429.088 1166.84 429.088C1164.64 429.088 1163.06 428.684 1162.1 427.875C1161.15 427.066 1160.67 425.73 1160.67 423.867V413.373H1157.54V409.893H1160.67V405.182ZM1181.38 412.846C1180.08 412.846 1179.01 413.273 1178.16 414.129C1177.32 414.984 1176.85 416.115 1176.76 417.521H1185.81C1185.76 416.092 1185.34 414.955 1184.54 414.111C1183.75 413.268 1182.69 412.846 1181.38 412.846ZM1185.85 423.709H1189.98C1189.57 425.467 1188.6 426.855 1187.08 427.875C1185.56 428.883 1183.68 429.387 1181.43 429.387C1178.61 429.387 1176.39 428.508 1174.77 426.75C1173.17 424.98 1172.36 422.549 1172.36 419.455C1172.36 416.361 1173.17 413.912 1174.79 412.107C1176.41 410.291 1178.61 409.383 1181.4 409.383C1184.14 409.383 1186.29 410.244 1187.83 411.967C1189.39 413.678 1190.17 416.051 1190.17 419.086V420.492H1176.74V420.721C1176.8 422.326 1177.26 423.598 1178.11 424.535C1178.98 425.461 1180.13 425.924 1181.56 425.924C1183.76 425.924 1185.19 425.186 1185.85 423.709ZM1194.55 429V409.77H1198.75V412.758H1199.05C1199.32 411.797 1199.92 411.006 1200.86 410.385C1201.79 409.764 1202.87 409.453 1204.09 409.453C1204.84 409.453 1205.44 409.518 1205.88 409.646V413.689C1205.44 413.525 1204.7 413.443 1203.67 413.443C1202.26 413.443 1201.12 413.854 1200.22 414.674C1199.35 415.482 1198.91 416.555 1198.91 417.891V429H1194.55Z" fill="white"/>
<path d="M160.754 600.035L155.621 618H151.35L144.547 592.635H149.275L153.617 611.514H153.881L158.873 592.635H162.898L167.961 611.514H168.207L172.549 592.635H177.242L170.439 618H166.186L161.018 600.035H160.754ZM184.221 613.078C185.053 614.18 186.23 614.73 187.754 614.73C189.277 614.73 190.449 614.18 191.27 613.078C192.102 611.965 192.518 610.4 192.518 608.385C192.518 606.381 192.102 604.822 191.27 603.709C190.438 602.596 189.266 602.039 187.754 602.039C186.23 602.039 185.053 602.596 184.221 603.709C183.389 604.822 182.973 606.381 182.973 608.385C182.973 610.4 183.389 611.965 184.221 613.078ZM187.754 618.387C184.871 618.387 182.609 617.502 180.969 615.732C179.328 613.951 178.508 611.502 178.508 608.385C178.508 605.291 179.334 602.854 180.986 601.072C182.639 599.279 184.895 598.383 187.754 598.383C190.625 598.383 192.881 599.273 194.521 601.055C196.174 602.836 197 605.279 197 608.385C197 611.502 196.174 613.951 194.521 615.732C192.881 617.502 190.625 618.387 187.754 618.387ZM201.395 618V598.77H205.596V601.758H205.895C206.164 600.797 206.768 600.006 207.705 599.385C208.643 598.764 209.721 598.453 210.939 598.453C211.689 598.453 212.287 598.518 212.732 598.646V602.689C212.287 602.525 211.549 602.443 210.518 602.443C209.111 602.443 207.963 602.854 207.072 603.674C206.193 604.482 205.754 605.555 205.754 606.891V618H201.395ZM220.994 606.609L228.096 598.77H233.158L225.494 607.014L233.686 618H228.412L222.242 609.756L220.695 611.303V618H216.336V591.334H220.695V606.609H220.994ZM235.83 604.271C235.83 602.537 236.545 601.125 237.975 600.035C239.404 598.934 241.256 598.383 243.529 598.383C245.814 598.383 247.637 598.869 248.996 599.842C250.367 600.803 251.129 602.156 251.281 603.902H247.186C247.021 603.211 246.623 602.672 245.99 602.285C245.369 601.887 244.555 601.688 243.547 601.688C242.539 601.688 241.707 601.904 241.051 602.338C240.395 602.771 240.066 603.334 240.066 604.025C240.066 604.564 240.295 605.01 240.752 605.361C241.221 605.713 241.941 606 242.914 606.223L246.307 606.996C248.158 607.418 249.518 608.045 250.385 608.877C251.252 609.709 251.686 610.828 251.686 612.234C251.686 614.074 250.924 615.562 249.4 616.699C247.877 617.824 245.908 618.387 243.494 618.387C241.092 618.387 239.17 617.895 237.729 616.91C236.299 615.926 235.502 614.561 235.338 612.814H239.645C239.855 613.541 240.295 614.104 240.963 614.502C241.643 614.889 242.521 615.082 243.6 615.082C244.701 615.082 245.598 614.865 246.289 614.432C246.98 613.986 247.326 613.406 247.326 612.691C247.326 611.625 246.441 610.898 244.672 610.512L241.262 609.721C239.41 609.299 238.039 608.648 237.148 607.77C236.27 606.879 235.83 605.713 235.83 604.271ZM256.273 618V591.334H260.562V601.881H260.879C261.336 600.803 262.098 599.959 263.164 599.35C264.242 598.729 265.496 598.418 266.926 598.418C269.082 598.418 270.752 599.045 271.936 600.299C273.131 601.541 273.729 603.305 273.729 605.59V618H269.387V606.627C269.387 605.174 269.041 604.078 268.35 603.34C267.658 602.59 266.645 602.215 265.309 602.215C263.879 602.215 262.742 602.637 261.898 603.48C261.055 604.324 260.633 605.443 260.633 606.838V618H256.273ZM283.678 613.078C284.51 614.18 285.688 614.73 287.211 614.73C288.734 614.73 289.906 614.18 290.727 613.078C291.559 611.965 291.975 610.4 291.975 608.385C291.975 606.381 291.559 604.822 290.727 603.709C289.895 602.596 288.723 602.039 287.211 602.039C285.688 602.039 284.51 602.596 283.678 603.709C282.846 604.822 282.43 606.381 282.43 608.385C282.43 610.4 282.846 611.965 283.678 613.078ZM287.211 618.387C284.328 618.387 282.066 617.502 280.426 615.732C278.785 613.951 277.965 611.502 277.965 608.385C277.965 605.291 278.791 602.854 280.443 601.072C282.096 599.279 284.352 598.383 287.211 598.383C290.082 598.383 292.338 599.273 293.979 601.055C295.631 602.836 296.457 605.279 296.457 608.385C296.457 611.502 295.631 613.951 293.979 615.732C292.338 617.502 290.082 618.387 287.211 618.387ZM311.328 598.453C313.766 598.453 315.693 599.338 317.111 601.107C318.541 602.877 319.256 605.303 319.256 608.385C319.256 611.455 318.547 613.881 317.129 615.662C315.723 617.432 313.807 618.316 311.381 618.316C310.01 618.316 308.809 618.035 307.777 617.473C306.758 616.898 306.002 616.102 305.51 615.082H305.211V624.152H300.852V598.77H305.053V601.951H305.352C305.902 600.861 306.705 600.006 307.76 599.385C308.826 598.764 310.016 598.453 311.328 598.453ZM309.957 614.607C311.469 614.607 312.646 614.057 313.49 612.955C314.346 611.854 314.773 610.33 314.773 608.385C314.773 606.439 314.346 604.916 313.49 603.814C312.646 602.713 311.475 602.162 309.975 602.162C308.486 602.162 307.309 602.719 306.441 603.832C305.574 604.945 305.135 606.463 305.123 608.385C305.135 610.307 305.568 611.824 306.424 612.938C307.291 614.051 308.469 614.607 309.957 614.607ZM323.193 604.271C323.193 602.537 323.908 601.125 325.338 600.035C326.768 598.934 328.619 598.383 330.893 598.383C333.178 598.383 335 598.869 336.359 599.842C337.73 600.803 338.492 602.156 338.645 603.902H334.549C334.385 603.211 333.986 602.672 333.354 602.285C332.732 601.887 331.918 601.688 330.91 601.688C329.902 601.688 329.07 601.904 328.414 602.338C327.758 602.771 327.43 603.334 327.43 604.025C327.43 604.564 327.658 605.01 328.115 605.361C328.584 605.713 329.305 606 330.277 606.223L333.67 606.996C335.521 607.418 336.881 608.045 337.748 608.877C338.615 609.709 339.049 610.828 339.049 612.234C339.049 614.074 338.287 615.562 336.764 616.699C335.24 617.824 333.271 618.387 330.857 618.387C328.455 618.387 326.533 617.895 325.092 616.91C323.662 615.926 322.865 614.561 322.701 612.814H327.008C327.219 613.541 327.658 614.104 328.326 614.502C329.006 614.889 329.885 615.082 330.963 615.082C332.064 615.082 332.961 614.865 333.652 614.432C334.344 613.986 334.689 613.406 334.689 612.691C334.689 611.625 333.805 610.898 332.035 610.512L328.625 609.721C326.773 609.299 325.402 608.648 324.512 607.77C323.633 606.879 323.193 605.713 323.193 604.271Z" fill="white"/>
<path d="M588.975 399H578.129V373.635H588.729C591.131 373.635 593.018 374.203 594.389 375.34C595.76 376.465 596.445 378.006 596.445 379.963C596.445 381.299 596.012 382.488 595.145 383.531C594.277 384.574 593.205 385.195 591.928 385.395V385.711C593.639 385.875 595.027 386.52 596.094 387.645C597.16 388.758 597.693 390.141 597.693 391.793C597.693 394.02 596.914 395.777 595.355 397.066C593.809 398.355 591.682 399 588.975 399ZM582.664 377.238V384.305H587.041C588.646 384.305 589.865 384.006 590.697 383.408C591.541 382.799 591.963 381.92 591.963 380.771C591.963 379.658 591.582 378.791 590.82 378.17C590.059 377.549 588.992 377.238 587.621 377.238H582.664ZM582.664 395.396H587.938C589.613 395.396 590.885 395.062 591.752 394.395C592.619 393.715 593.053 392.73 593.053 391.441C593.053 390.176 592.602 389.215 591.699 388.559C590.809 387.902 589.496 387.574 587.762 387.574H582.664V395.396ZM602.176 399V379.77H606.377V382.758H606.676C606.945 381.797 607.549 381.006 608.486 380.385C609.424 379.764 610.502 379.453 611.721 379.453C612.471 379.453 613.068 379.518 613.514 379.646V383.689C613.068 383.525 612.33 383.443 611.299 383.443C609.893 383.443 608.744 383.854 607.854 384.674C606.975 385.482 606.535 386.555 606.535 387.891V399H602.176ZM634.08 379.77V399H629.879V395.941H629.58C629.111 397.043 628.355 397.893 627.312 398.49C626.281 399.088 625.051 399.387 623.621 399.387C621.488 399.387 619.812 398.76 618.594 397.506C617.375 396.24 616.766 394.477 616.766 392.215V379.77H621.125V391.178C621.125 394.096 622.461 395.555 625.133 395.555C626.539 395.555 627.652 395.145 628.473 394.324C629.305 393.504 629.721 392.385 629.721 390.967V379.77H634.08ZM651.271 393.551C652.139 392.473 652.572 391.014 652.572 389.174C652.572 387.334 652.139 385.875 651.271 384.797C650.404 383.707 649.215 383.162 647.703 383.162C646.203 383.162 645.031 383.701 644.188 384.779C643.355 385.857 642.939 387.322 642.939 389.174C642.939 391.025 643.355 392.49 644.188 393.568C645.02 394.635 646.191 395.168 647.703 395.168C649.215 395.168 650.404 394.629 651.271 393.551ZM647.703 406.312C645.254 406.312 643.262 405.814 641.727 404.818C640.203 403.822 639.354 402.492 639.178 400.828H643.555C643.695 401.496 644.135 402.023 644.873 402.41C645.623 402.797 646.59 402.99 647.773 402.99C649.262 402.99 650.422 402.656 651.254 401.988C652.086 401.32 652.502 400.383 652.502 399.176V395.537H652.203C651.652 396.568 650.867 397.359 649.848 397.91C648.84 398.449 647.668 398.719 646.332 398.719C643.918 398.719 642.002 397.857 640.584 396.135C639.166 394.4 638.457 392.08 638.457 389.174C638.457 386.221 639.172 383.865 640.602 382.107C642.031 380.338 643.965 379.453 646.402 379.453C647.715 379.453 648.904 379.758 649.971 380.367C651.037 380.977 651.834 381.803 652.361 382.846H652.66V379.77H656.861V399.07C656.861 401.297 656.035 403.061 654.383 404.361C652.73 405.662 650.504 406.312 647.703 406.312ZM670.291 382.846C668.99 382.846 667.918 383.273 667.074 384.129C666.23 384.984 665.762 386.115 665.668 387.521H674.721C674.674 386.092 674.252 384.955 673.455 384.111C672.658 383.268 671.604 382.846 670.291 382.846ZM674.756 393.709H678.887C678.477 395.467 677.51 396.855 675.986 397.875C674.475 398.883 672.594 399.387 670.344 399.387C667.52 399.387 665.299 398.508 663.682 396.75C662.076 394.98 661.273 392.549 661.273 389.455C661.273 386.361 662.082 383.912 663.699 382.107C665.316 380.291 667.52 379.383 670.309 379.383C673.051 379.383 675.195 380.244 676.742 381.967C678.301 383.678 679.08 386.051 679.08 389.086V390.492H665.65V390.721C665.709 392.326 666.166 393.598 667.021 394.535C667.889 395.461 669.037 395.924 670.467 395.924C672.67 395.924 674.1 395.186 674.756 393.709ZM683.457 399V379.77H687.658V382.758H687.957C688.227 381.797 688.83 381.006 689.768 380.385C690.705 379.764 691.783 379.453 693.002 379.453C693.752 379.453 694.35 379.518 694.795 379.646V383.689C694.35 383.525 693.611 383.443 692.58 383.443C691.174 383.443 690.025 383.854 689.135 384.674C688.256 385.482 687.816 386.555 687.816 387.891V399H683.457ZM698.521 399V379.77H702.863V399H698.521ZM700.684 376.641C699.898 376.641 699.254 376.418 698.75 375.973C698.246 375.516 697.994 374.936 697.994 374.232C697.994 373.529 698.246 372.955 698.75 372.51C699.254 372.053 699.898 371.824 700.684 371.824C701.48 371.824 702.125 372.053 702.617 372.51C703.121 372.955 703.373 373.529 703.373 374.232C703.373 374.936 703.121 375.516 702.617 375.973C702.125 376.418 701.48 376.641 700.684 376.641ZM708.277 399V379.77H712.479V382.846H712.777C713.234 381.768 713.996 380.924 715.062 380.314C716.141 379.693 717.395 379.383 718.824 379.383C720.969 379.383 722.621 380.004 723.781 381.246C724.941 382.488 725.521 384.258 725.521 386.555V399H721.18V387.592C721.18 384.65 719.855 383.18 717.207 383.18C715.801 383.18 714.688 383.596 713.867 384.428C713.047 385.26 712.637 386.385 712.637 387.803V399H708.277ZM728.439 379.77H733.115L737.562 394.641H737.861L742.273 379.77H746.879L740.076 399H735.277L728.439 379.77ZM754.561 394.078C755.393 395.18 756.57 395.73 758.094 395.73C759.617 395.73 760.789 395.18 761.609 394.078C762.441 392.965 762.857 391.4 762.857 389.385C762.857 387.381 762.441 385.822 761.609 384.709C760.777 383.596 759.605 383.039 758.094 383.039C756.57 383.039 755.393 383.596 754.561 384.709C753.729 385.822 753.312 387.381 753.312 389.385C753.312 391.4 753.729 392.965 754.561 394.078ZM758.094 399.387C755.211 399.387 752.949 398.502 751.309 396.732C749.668 394.951 748.848 392.502 748.848 389.385C748.848 386.291 749.674 383.854 751.326 382.072C752.979 380.279 755.234 379.383 758.094 379.383C760.965 379.383 763.221 380.273 764.861 382.055C766.514 383.836 767.34 386.279 767.34 389.385C767.34 392.502 766.514 394.951 764.861 396.732C763.221 398.502 760.965 399.387 758.094 399.387ZM771.91 399V372.334H776.27V399H771.91ZM780.119 379.77H784.795L789.242 394.641H789.541L793.953 379.77H798.559L791.756 399H786.957L780.119 379.77ZM809.545 382.846C808.244 382.846 807.172 383.273 806.328 384.129C805.484 384.984 805.016 386.115 804.922 387.521H813.975C813.928 386.092 813.506 384.955 812.709 384.111C811.912 383.268 810.857 382.846 809.545 382.846ZM814.01 393.709H818.141C817.73 395.467 816.764 396.855 815.24 397.875C813.729 398.883 811.848 399.387 809.598 399.387C806.773 399.387 804.553 398.508 802.936 396.75C801.33 394.98 800.527 392.549 800.527 389.455C800.527 386.361 801.336 383.912 802.953 382.107C804.57 380.291 806.773 379.383 809.562 379.383C812.305 379.383 814.449 380.244 815.996 381.967C817.555 383.678 818.334 386.051 818.334 389.086V390.492H804.904V390.721C804.963 392.326 805.42 393.598 806.275 394.535C807.143 395.461 808.291 395.924 809.721 395.924C811.924 395.924 813.354 395.186 814.01 393.709ZM822.711 399V379.77H826.912V382.758H827.211C827.48 381.797 828.084 381.006 829.021 380.385C829.959 379.764 831.037 379.453 832.256 379.453C833.006 379.453 833.604 379.518 834.049 379.646V383.689C833.604 383.525 832.865 383.443 831.834 383.443C830.428 383.443 829.279 383.854 828.389 384.674C827.51 385.482 827.07 386.555 827.07 387.891V399H822.711ZM837.775 399V379.77H842.117V399H837.775ZM839.938 376.641C839.152 376.641 838.508 376.418 838.004 375.973C837.5 375.516 837.248 374.936 837.248 374.232C837.248 373.529 837.5 372.955 838.004 372.51C838.508 372.053 839.152 371.824 839.938 371.824C840.734 371.824 841.379 372.053 841.871 372.51C842.375 372.955 842.627 373.529 842.627 374.232C842.627 374.936 842.375 375.516 841.871 375.973C841.379 376.418 840.734 376.641 839.938 376.641ZM847.531 399V379.77H851.732V382.846H852.031C852.488 381.768 853.25 380.924 854.316 380.314C855.395 379.693 856.648 379.383 858.078 379.383C860.223 379.383 861.875 380.004 863.035 381.246C864.195 382.488 864.775 384.258 864.775 386.555V399H860.434V387.592C860.434 384.65 859.109 383.18 856.461 383.18C855.055 383.18 853.941 383.596 853.121 384.428C852.301 385.26 851.891 386.385 851.891 387.803V399H847.531ZM881.791 393.551C882.658 392.473 883.092 391.014 883.092 389.174C883.092 387.334 882.658 385.875 881.791 384.797C880.924 383.707 879.734 383.162 878.223 383.162C876.723 383.162 875.551 383.701 874.707 384.779C873.875 385.857 873.459 387.322 873.459 389.174C873.459 391.025 873.875 392.49 874.707 393.568C875.539 394.635 876.711 395.168 878.223 395.168C879.734 395.168 880.924 394.629 881.791 393.551ZM878.223 406.312C875.773 406.312 873.781 405.814 872.246 404.818C870.723 403.822 869.873 402.492 869.697 400.828H874.074C874.215 401.496 874.654 402.023 875.393 402.41C876.143 402.797 877.109 402.99 878.293 402.99C879.781 402.99 880.941 402.656 881.773 401.988C882.605 401.32 883.021 400.383 883.021 399.176V395.537H882.723C882.172 396.568 881.387 397.359 880.367 397.91C879.359 398.449 878.188 398.719 876.852 398.719C874.438 398.719 872.521 397.857 871.104 396.135C869.686 394.4 868.977 392.08 868.977 389.174C868.977 386.221 869.691 383.865 871.121 382.107C872.551 380.338 874.484 379.453 876.922 379.453C878.234 379.453 879.424 379.758 880.49 380.367C881.557 380.977 882.354 381.803 882.881 382.846H883.18V379.77H887.381V399.07C887.381 401.297 886.555 403.061 884.902 404.361C883.25 405.662 881.023 406.312 878.223 406.312Z" fill="white"/>
<path d="M630.129 590.635H640.359C642.891 590.635 644.941 591.426 646.512 593.008C648.094 594.59 648.885 596.658 648.885 599.213C648.885 601.721 648.07 603.76 646.441 605.33C644.824 606.9 642.732 607.686 640.166 607.686H634.664V616H630.129V590.635ZM634.664 594.432V603.924H639.146C640.775 603.924 642.035 603.514 642.926 602.693C643.828 601.873 644.279 600.713 644.279 599.213C644.279 597.666 643.834 596.482 642.943 595.662C642.064 594.842 640.805 594.432 639.164 594.432H634.664ZM653.438 616V596.77H657.639V599.758H657.938C658.207 598.797 658.811 598.006 659.748 597.385C660.686 596.764 661.764 596.453 662.982 596.453C663.732 596.453 664.33 596.518 664.775 596.646V600.689C664.33 600.525 663.592 600.443 662.561 600.443C661.154 600.443 660.006 600.854 659.115 601.674C658.236 602.482 657.797 603.555 657.797 604.891V616H653.438ZM672.615 611.078C673.447 612.18 674.625 612.73 676.148 612.73C677.672 612.73 678.844 612.18 679.664 611.078C680.496 609.965 680.912 608.4 680.912 606.385C680.912 604.381 680.496 602.822 679.664 601.709C678.832 600.596 677.66 600.039 676.148 600.039C674.625 600.039 673.447 600.596 672.615 601.709C671.783 602.822 671.367 604.381 671.367 606.385C671.367 608.4 671.783 609.965 672.615 611.078ZM676.148 616.387C673.266 616.387 671.004 615.502 669.363 613.732C667.723 611.951 666.902 609.502 666.902 606.385C666.902 603.291 667.729 600.854 669.381 599.072C671.033 597.279 673.289 596.383 676.148 596.383C679.02 596.383 681.275 597.273 682.916 599.055C684.568 600.836 685.395 603.279 685.395 606.385C685.395 609.502 684.568 611.951 682.916 613.732C681.275 615.502 679.02 616.387 676.148 616.387ZM691.178 592.182H695.52V596.893H699.738V600.373H695.52V609.812C695.52 610.762 695.73 611.459 696.152 611.904C696.574 612.338 697.242 612.555 698.156 612.555C698.555 612.555 699.035 612.525 699.598 612.467V615.877C698.895 616.018 698.145 616.088 697.348 616.088C695.145 616.088 693.562 615.684 692.602 614.875C691.652 614.066 691.178 612.73 691.178 610.867V600.373H688.049V596.893H691.178V592.182ZM708.58 611.078C709.412 612.18 710.59 612.73 712.113 612.73C713.637 612.73 714.809 612.18 715.629 611.078C716.461 609.965 716.877 608.4 716.877 606.385C716.877 604.381 716.461 602.822 715.629 601.709C714.797 600.596 713.625 600.039 712.113 600.039C710.59 600.039 709.412 600.596 708.58 601.709C707.748 602.822 707.332 604.381 707.332 606.385C707.332 608.4 707.748 609.965 708.58 611.078ZM712.113 616.387C709.23 616.387 706.969 615.502 705.328 613.732C703.688 611.951 702.867 609.502 702.867 606.385C702.867 603.291 703.693 600.854 705.346 599.072C706.998 597.279 709.254 596.383 712.113 596.383C714.984 596.383 717.24 597.273 718.881 599.055C720.533 600.836 721.359 603.279 721.359 606.385C721.359 609.502 720.533 611.951 718.881 613.732C717.24 615.502 714.984 616.387 712.113 616.387ZM727.143 592.182H731.484V596.893H735.703V600.373H731.484V609.812C731.484 610.762 731.695 611.459 732.117 611.904C732.539 612.338 733.207 612.555 734.121 612.555C734.52 612.555 735 612.525 735.562 612.467V615.877C734.859 616.018 734.109 616.088 733.312 616.088C731.109 616.088 729.527 615.684 728.566 614.875C727.617 614.066 727.143 612.73 727.143 610.867V600.373H724.014V596.893H727.143V592.182ZM742.066 622.996C741.164 622.996 740.59 622.973 740.344 622.926V619.375C740.59 619.41 740.988 619.428 741.539 619.428C742.465 619.428 743.197 619.229 743.736 618.83C744.287 618.443 744.703 617.811 744.984 616.932L745.213 616.088L738.34 596.77H743.121L747.621 611.781H747.92L752.402 596.77H757.008L750.064 616.615C749.244 618.994 748.242 620.652 747.059 621.59C745.887 622.527 744.223 622.996 742.066 622.996ZM771.246 596.453C773.684 596.453 775.611 597.338 777.029 599.107C778.459 600.877 779.174 603.303 779.174 606.385C779.174 609.455 778.465 611.881 777.047 613.662C775.641 615.432 773.725 616.316 771.299 616.316C769.928 616.316 768.727 616.035 767.695 615.473C766.676 614.898 765.92 614.102 765.428 613.082H765.129V622.152H760.77V596.77H764.971V599.951H765.27C765.82 598.861 766.623 598.006 767.678 597.385C768.744 596.764 769.934 596.453 771.246 596.453ZM769.875 612.607C771.387 612.607 772.564 612.057 773.408 610.955C774.264 609.854 774.691 608.33 774.691 606.385C774.691 604.439 774.264 602.916 773.408 601.814C772.564 600.713 771.393 600.162 769.893 600.162C768.404 600.162 767.227 600.719 766.359 601.832C765.492 602.945 765.053 604.463 765.041 606.385C765.053 608.307 765.486 609.824 766.342 610.938C767.209 612.051 768.387 612.607 769.875 612.607ZM791.619 599.846C790.318 599.846 789.246 600.273 788.402 601.129C787.559 601.984 787.09 603.115 786.996 604.521H796.049C796.002 603.092 795.58 601.955 794.783 601.111C793.986 600.268 792.932 599.846 791.619 599.846ZM796.084 610.709H800.215C799.805 612.467 798.838 613.855 797.314 614.875C795.803 615.883 793.922 616.387 791.672 616.387C788.848 616.387 786.627 615.508 785.01 613.75C783.404 611.98 782.602 609.549 782.602 606.455C782.602 603.361 783.41 600.912 785.027 599.107C786.645 597.291 788.848 596.383 791.637 596.383C794.379 596.383 796.523 597.244 798.07 598.967C799.629 600.678 800.408 603.051 800.408 606.086V607.492H786.979V607.721C787.037 609.326 787.494 610.598 788.35 611.535C789.217 612.461 790.365 612.924 791.795 612.924C793.998 612.924 795.428 612.186 796.084 610.709ZM804.785 616V596.77H808.986V599.758H809.285C809.555 598.797 810.158 598.006 811.096 597.385C812.033 596.764 813.111 596.453 814.33 596.453C815.08 596.453 815.678 596.518 816.123 596.646V600.689C815.678 600.525 814.939 600.443 813.908 600.443C812.502 600.443 811.354 600.854 810.463 601.674C809.584 602.482 809.145 603.555 809.145 604.891V616H804.785Z" fill="white"/>
<path d="M1062.71 616.633C1059.11 616.633 1056.27 615.443 1054.19 613.064C1052.1 610.674 1051.06 607.428 1051.06 603.326C1051.06 599.201 1052.09 595.949 1054.17 593.57C1056.25 591.191 1059.1 590.002 1062.69 590.002C1065.58 590.002 1068.02 590.852 1070.02 592.551C1072.03 594.238 1073.16 596.406 1073.43 599.055H1068.97C1068.65 597.531 1067.93 596.318 1066.79 595.416C1065.65 594.502 1064.29 594.045 1062.69 594.045C1060.54 594.045 1058.83 594.877 1057.58 596.541C1056.32 598.193 1055.7 600.449 1055.7 603.309C1055.7 606.168 1056.32 608.43 1057.58 610.094C1058.83 611.758 1060.54 612.59 1062.71 612.59C1064.32 612.59 1065.69 612.174 1066.82 611.342C1067.96 610.498 1068.68 609.367 1068.99 607.949H1073.45C1073.15 610.551 1072.01 612.648 1070.04 614.242C1068.07 615.836 1065.63 616.633 1062.71 616.633ZM1078.09 616V596.77H1082.43V616H1078.09ZM1080.25 593.641C1079.47 593.641 1078.82 593.418 1078.32 592.973C1077.82 592.516 1077.56 591.936 1077.56 591.232C1077.56 590.529 1077.82 589.955 1078.32 589.51C1078.82 589.053 1079.47 588.824 1080.25 588.824C1081.05 588.824 1081.7 589.053 1082.19 589.51C1082.69 589.955 1082.94 590.529 1082.94 591.232C1082.94 591.936 1082.69 592.516 1082.19 592.973C1081.7 593.418 1081.05 593.641 1080.25 593.641ZM1087.85 616V596.77H1092.05V599.758H1092.35C1092.62 598.797 1093.22 598.006 1094.16 597.385C1095.1 596.764 1096.17 596.453 1097.39 596.453C1098.14 596.453 1098.74 596.518 1099.19 596.646V600.689C1098.74 600.525 1098 600.443 1096.97 600.443C1095.56 600.443 1094.42 600.854 1093.53 601.674C1092.65 602.482 1092.21 603.555 1092.21 604.891V616H1087.85ZM1118.87 603.238H1114.72C1114.51 602.266 1114.04 601.492 1113.32 600.918C1112.59 600.332 1111.65 600.039 1110.49 600.039C1108.99 600.039 1107.82 600.59 1106.97 601.691C1106.14 602.793 1105.72 604.34 1105.72 606.332C1105.72 608.348 1106.15 609.918 1106.99 611.043C1107.83 612.168 1109 612.73 1110.49 612.73C1111.62 612.73 1112.56 612.467 1113.28 611.939C1114.02 611.412 1114.5 610.65 1114.72 609.654H1118.87C1118.63 611.705 1117.77 613.34 1116.29 614.559C1114.82 615.777 1112.9 616.387 1110.51 616.387C1107.61 616.387 1105.36 615.502 1103.74 613.732C1102.12 611.963 1101.31 609.496 1101.31 606.332C1101.31 603.203 1102.12 600.766 1103.74 599.02C1105.36 597.262 1107.61 596.383 1110.49 596.383C1112.9 596.383 1114.84 597.01 1116.31 598.264C1117.78 599.506 1118.64 601.164 1118.87 603.238ZM1140.18 596.77V616H1135.98V612.941H1135.68C1135.21 614.043 1134.45 614.893 1133.41 615.49C1132.38 616.088 1131.15 616.387 1129.72 616.387C1127.59 616.387 1125.91 615.76 1124.69 614.506C1123.47 613.24 1122.86 611.477 1122.86 609.215V596.77H1127.22V608.178C1127.22 611.096 1128.56 612.555 1131.23 612.555C1132.64 612.555 1133.75 612.145 1134.57 611.324C1135.4 610.504 1135.82 609.385 1135.82 607.967V596.77H1140.18ZM1145.71 616V589.334H1150.07V616H1145.71ZM1175.86 616.387C1174.35 616.387 1172.97 616.053 1171.71 615.385C1170.47 614.705 1169.57 613.809 1169.01 612.695H1168.71C1168 613.855 1167.04 614.764 1165.81 615.42C1164.58 616.064 1163.16 616.387 1161.57 616.387C1159.45 616.387 1157.74 615.854 1156.46 614.787C1155.17 613.709 1154.52 612.297 1154.52 610.551C1154.52 608.816 1155.15 607.457 1156.4 606.473C1157.67 605.488 1159.47 604.926 1161.82 604.785L1166.77 604.486V602.869C1166.77 601.92 1166.46 601.193 1165.84 600.689C1165.22 600.186 1164.32 599.934 1163.15 599.934C1162.14 599.934 1161.31 600.109 1160.66 600.461C1160 600.801 1159.57 601.293 1159.37 601.938H1155.26C1155.42 600.285 1156.22 598.949 1157.65 597.93C1159.09 596.898 1160.88 596.383 1163.01 596.383C1164.49 596.383 1165.75 596.646 1166.81 597.174C1167.86 597.701 1168.67 598.422 1169.23 599.336H1169.53C1170.17 598.445 1171.04 597.73 1172.15 597.191C1173.27 596.652 1174.48 596.383 1175.79 596.383C1178.4 596.383 1180.46 597.238 1181.96 598.949C1183.46 600.648 1184.21 602.969 1184.21 605.91V607.387H1170.96V607.791C1171.02 609.338 1171.48 610.58 1172.36 611.518C1173.25 612.443 1174.41 612.906 1175.84 612.906C1177.84 612.906 1179.19 612.174 1179.9 610.709H1184.02C1183.6 612.479 1182.66 613.867 1181.21 614.875C1179.76 615.883 1177.98 616.387 1175.86 616.387ZM1175.54 599.846C1174.22 599.846 1173.14 600.262 1172.31 601.094C1171.49 601.926 1171.04 603.039 1170.96 604.434H1179.87C1179.82 603.074 1179.39 601.973 1178.59 601.129C1177.79 600.273 1176.78 599.846 1175.54 599.846ZM1162.29 612.924C1163.56 612.924 1164.62 612.531 1165.47 611.746C1166.34 610.949 1166.77 609.988 1166.77 608.863V607.422L1162.43 607.703C1160.04 607.855 1158.85 608.734 1158.85 610.34C1158.85 611.137 1159.16 611.77 1159.78 612.238C1160.41 612.695 1161.25 612.924 1162.29 612.924ZM1188.61 616V596.77H1192.81V599.758H1193.11C1193.38 598.797 1193.98 598.006 1194.92 597.385C1195.85 596.764 1196.93 596.453 1198.15 596.453C1198.9 596.453 1199.5 596.518 1199.94 596.646V600.689C1199.5 600.525 1198.76 600.443 1197.73 600.443C1196.32 600.443 1195.17 600.854 1194.28 601.674C1193.4 602.482 1192.96 603.555 1192.96 604.891V616H1188.61ZM1063.87 632.324L1057.58 642.115C1058.26 642.525 1059.05 642.73 1059.97 642.73C1061.49 642.73 1062.66 642.18 1063.48 641.078C1064.32 639.965 1064.73 638.4 1064.73 636.385C1064.73 634.732 1064.45 633.379 1063.87 632.324ZM1056.08 640.516L1062.39 630.689C1061.7 630.256 1060.89 630.039 1059.97 630.039C1058.45 630.039 1057.27 630.596 1056.44 631.709C1055.6 632.822 1055.19 634.381 1055.19 636.385C1055.19 638.049 1055.49 639.426 1056.08 640.516ZM1067.42 626.805L1066.28 628.58C1068.24 630.396 1069.21 632.998 1069.21 636.385C1069.21 639.502 1068.39 641.951 1066.74 643.732C1065.1 645.502 1062.84 646.387 1059.97 646.387C1058.26 646.387 1056.76 646.064 1055.47 645.42L1054.41 647.055L1052.6 645.912L1053.69 644.225C1051.71 642.443 1050.72 639.83 1050.72 636.385C1050.72 633.291 1051.55 630.854 1053.2 629.072C1054.85 627.279 1057.11 626.383 1059.97 626.383C1061.69 626.383 1063.21 626.717 1064.52 627.385L1065.59 625.732L1067.42 626.805ZM1078.44 634.609L1085.54 626.77H1090.61L1082.94 635.014L1091.13 646H1085.86L1079.69 637.756L1078.14 639.303V646H1073.79V619.334H1078.14V634.609H1078.44ZM1098.2 641.078C1099.03 642.18 1100.21 642.73 1101.73 642.73C1103.26 642.73 1104.43 642.18 1105.25 641.078C1106.08 639.965 1106.5 638.4 1106.5 636.385C1106.5 634.381 1106.08 632.822 1105.25 631.709C1104.42 630.596 1103.25 630.039 1101.73 630.039C1100.21 630.039 1099.03 630.596 1098.2 631.709C1097.37 632.822 1096.95 634.381 1096.95 636.385C1096.95 638.4 1097.37 639.965 1098.2 641.078ZM1101.73 646.387C1098.85 646.387 1096.59 645.502 1094.95 643.732C1093.31 641.951 1092.49 639.502 1092.49 636.385C1092.49 633.291 1093.31 630.854 1094.97 629.072C1096.62 627.279 1098.88 626.383 1101.73 626.383C1104.61 626.383 1106.86 627.273 1108.5 629.055C1110.15 630.836 1110.98 633.279 1110.98 636.385C1110.98 639.502 1110.15 641.951 1108.5 643.732C1106.86 645.502 1104.61 646.387 1101.73 646.387ZM1115.38 646V626.77H1119.58V629.846H1119.88C1120.33 628.768 1121.09 627.924 1122.16 627.314C1123.24 626.693 1124.49 626.383 1125.92 626.383C1128.07 626.383 1129.72 627.004 1130.88 628.246C1132.04 629.488 1132.62 631.258 1132.62 633.555V646H1128.28V634.592C1128.28 631.65 1126.95 630.18 1124.3 630.18C1122.9 630.18 1121.79 630.596 1120.96 631.428C1120.14 632.26 1119.73 633.385 1119.73 634.803V646H1115.38ZM1142.57 641.078C1143.4 642.18 1144.58 642.73 1146.1 642.73C1147.62 642.73 1148.8 642.18 1149.62 641.078C1150.45 639.965 1150.87 638.4 1150.87 636.385C1150.87 634.381 1150.45 632.822 1149.62 631.709C1148.79 630.596 1147.61 630.039 1146.1 630.039C1144.58 630.039 1143.4 630.596 1142.57 631.709C1141.74 632.822 1141.32 634.381 1141.32 636.385C1141.32 638.4 1141.74 639.965 1142.57 641.078ZM1146.1 646.387C1143.22 646.387 1140.96 645.502 1139.32 643.732C1137.68 641.951 1136.86 639.502 1136.86 636.385C1136.86 633.291 1137.68 630.854 1139.33 629.072C1140.99 627.279 1143.24 626.383 1146.1 626.383C1148.97 626.383 1151.23 627.273 1152.87 629.055C1154.52 630.836 1155.35 633.279 1155.35 636.385C1155.35 639.502 1154.52 641.951 1152.87 643.732C1151.23 645.502 1148.97 646.387 1146.1 646.387ZM1159.74 646V626.77H1163.94V629.881H1164.24C1164.65 628.779 1165.33 627.924 1166.26 627.314C1167.2 626.693 1168.31 626.383 1169.59 626.383C1170.89 626.383 1171.99 626.693 1172.91 627.314C1173.82 627.924 1174.48 628.779 1174.89 629.881H1175.19C1175.67 628.814 1176.44 627.965 1177.48 627.332C1178.52 626.699 1179.71 626.383 1181.03 626.383C1182.95 626.383 1184.46 626.951 1185.55 628.088C1186.65 629.225 1187.2 630.789 1187.2 632.781V646H1182.86V633.889C1182.86 631.416 1181.69 630.18 1179.34 630.18C1178.22 630.18 1177.31 630.543 1176.62 631.27C1175.93 631.996 1175.58 632.916 1175.58 634.029V646H1171.34V633.572C1171.34 632.518 1171.03 631.691 1170.41 631.094C1169.79 630.484 1168.94 630.18 1167.86 630.18C1166.79 630.18 1165.89 630.572 1165.17 631.357C1164.46 632.143 1164.1 633.127 1164.1 634.311V646H1159.74ZM1192.42 646V626.77H1196.76V646H1192.42ZM1194.58 623.641C1193.8 623.641 1193.15 623.418 1192.65 622.973C1192.14 622.516 1191.89 621.936 1191.89 621.232C1191.89 620.529 1192.14 619.955 1192.65 619.51C1193.15 619.053 1193.8 618.824 1194.58 618.824C1195.38 618.824 1196.02 619.053 1196.52 619.51C1197.02 619.955 1197.27 620.529 1197.27 621.232C1197.27 621.936 1197.02 622.516 1196.52 622.973C1196.02 623.418 1195.38 623.641 1194.58 623.641Z" fill="white"/>
</svg>

