<svg width="1437" height="881" viewBox="0 0 1437 881" fill="none" xmlns="http://www.w3.org/2000/svg">
<path d="M0 16.1434C0 16.1434 509.5 -20.1792 718.5 16.1434C927.5 52.4659 1437 16.1434 1437 16.1434V860.108C1437 860.108 1098 907.114 718.5 860.108C339 813.103 0 860.108 0 860.108V16.1434Z" fill="#97A090"/>
<path d="M197.664 386H193.129V360.635H197.664V372.307H197.963L207.965 360.635H213.168L203.588 371.691L213.924 386H208.387L200.371 374.803L197.664 377.914V386ZM220.85 381.078C221.682 382.18 222.859 382.73 224.383 382.73C225.906 382.73 227.078 382.18 227.898 381.078C228.73 379.965 229.146 378.4 229.146 376.385C229.146 374.381 228.73 372.822 227.898 371.709C227.066 370.596 225.895 370.039 224.383 370.039C222.859 370.039 221.682 370.596 220.85 371.709C220.018 372.822 219.602 374.381 219.602 376.385C219.602 378.4 220.018 379.965 220.85 381.078ZM224.383 386.387C221.5 386.387 219.238 385.502 217.598 383.732C215.957 381.951 215.137 379.502 215.137 376.385C215.137 373.291 215.963 370.854 217.615 369.072C219.268 367.279 221.523 366.383 224.383 366.383C227.254 366.383 229.51 367.273 231.15 369.055C232.803 370.836 233.629 373.279 233.629 376.385C233.629 379.502 232.803 381.951 231.15 383.732C229.51 385.502 227.254 386.387 224.383 386.387ZM238.023 386V366.77H242.225V369.846H242.523C242.98 368.768 243.742 367.924 244.809 367.314C245.887 366.693 247.141 366.383 248.57 366.383C250.715 366.383 252.367 367.004 253.527 368.246C254.688 369.488 255.268 371.258 255.268 373.555V386H250.926V374.592C250.926 371.65 249.602 370.18 246.953 370.18C245.547 370.18 244.434 370.596 243.613 371.428C242.793 372.26 242.383 373.385 242.383 374.803V386H238.023ZM277.064 373.238H272.916C272.705 372.266 272.236 371.492 271.51 370.918C270.783 370.332 269.84 370.039 268.68 370.039C267.18 370.039 266.008 370.59 265.164 371.691C264.332 372.793 263.916 374.34 263.916 376.332C263.916 378.348 264.338 379.918 265.182 381.043C266.025 382.168 267.191 382.73 268.68 382.73C269.816 382.73 270.748 382.467 271.475 381.939C272.213 381.412 272.693 380.65 272.916 379.654H277.064C276.818 381.705 275.957 383.34 274.48 384.559C273.016 385.777 271.088 386.387 268.697 386.387C265.803 386.387 263.547 385.502 261.93 383.732C260.312 381.963 259.504 379.496 259.504 376.332C259.504 373.203 260.312 370.766 261.93 369.02C263.547 367.262 265.797 366.383 268.68 366.383C271.094 366.383 273.033 367.01 274.498 368.264C275.975 369.506 276.83 371.164 277.064 373.238ZM289.299 369.846C287.998 369.846 286.926 370.273 286.082 371.129C285.238 371.984 284.77 373.115 284.676 374.521H293.729C293.682 373.092 293.26 371.955 292.463 371.111C291.666 370.268 290.611 369.846 289.299 369.846ZM293.764 380.709H297.895C297.484 382.467 296.518 383.855 294.994 384.875C293.482 385.883 291.602 386.387 289.352 386.387C286.527 386.387 284.307 385.508 282.689 383.75C281.084 381.98 280.281 379.549 280.281 376.455C280.281 373.361 281.09 370.912 282.707 369.107C284.324 367.291 286.527 366.383 289.316 366.383C292.059 366.383 294.203 367.244 295.75 368.967C297.309 370.678 298.088 373.051 298.088 376.086V377.492H284.658V377.721C284.717 379.326 285.174 380.598 286.029 381.535C286.896 382.461 288.045 382.924 289.475 382.924C291.678 382.924 293.107 382.186 293.764 380.709ZM312.941 366.453C315.379 366.453 317.307 367.338 318.725 369.107C320.154 370.877 320.869 373.303 320.869 376.385C320.869 379.455 320.16 381.881 318.742 383.662C317.336 385.432 315.42 386.316 312.994 386.316C311.623 386.316 310.422 386.035 309.391 385.473C308.371 384.898 307.615 384.102 307.123 383.082H306.824V392.152H302.465V366.77H306.666V369.951H306.965C307.516 368.861 308.318 368.006 309.373 367.385C310.439 366.764 311.629 366.453 312.941 366.453ZM311.57 382.607C313.082 382.607 314.26 382.057 315.104 380.955C315.959 379.854 316.387 378.33 316.387 376.385C316.387 374.439 315.959 372.916 315.104 371.814C314.26 370.713 313.088 370.162 311.588 370.162C310.1 370.162 308.922 370.719 308.055 371.832C307.188 372.945 306.748 374.463 306.736 376.385C306.748 378.307 307.182 379.824 308.037 380.938C308.904 382.051 310.082 382.607 311.57 382.607ZM326.635 362.182H330.977V366.893H335.195V370.373H330.977V379.812C330.977 380.762 331.188 381.459 331.609 381.904C332.031 382.338 332.699 382.555 333.613 382.555C334.012 382.555 334.492 382.525 335.055 382.467V385.877C334.352 386.018 333.602 386.088 332.805 386.088C330.602 386.088 329.02 385.684 328.059 384.875C327.109 384.066 326.635 382.73 326.635 380.867V370.373H323.506V366.893H326.635V362.182ZM367.17 386L365.078 383.768C364.082 384.623 362.887 385.291 361.492 385.771C360.098 386.24 358.627 386.475 357.08 386.475C354.443 386.475 352.322 385.824 350.717 384.523C349.111 383.211 348.309 381.477 348.309 379.32C348.309 377.855 348.701 376.566 349.486 375.453C350.271 374.34 351.49 373.338 353.143 372.447C353.189 372.424 353.359 372.33 353.652 372.166C353.957 372.002 354.145 371.902 354.215 371.867C353.066 370.672 352.252 369.629 351.771 368.738C351.291 367.848 351.051 366.939 351.051 366.014C351.051 364.326 351.707 362.932 353.02 361.83C354.344 360.717 356.002 360.16 357.994 360.16C359.998 360.16 361.645 360.705 362.934 361.795C364.223 362.873 364.867 364.262 364.867 365.961C364.867 367.262 364.445 368.445 363.602 369.512C362.758 370.566 361.422 371.58 359.594 372.553L364.99 378.266C365.658 377.023 365.992 375.213 365.992 372.834V371.885H369.807V373.045C369.807 376.396 369.098 379.092 367.68 381.131L372.268 386H367.17ZM355.586 374.732C353.535 375.822 352.51 377.234 352.51 378.969C352.51 380.188 352.967 381.178 353.881 381.939C354.807 382.689 356.02 383.064 357.52 383.064C358.527 383.064 359.494 382.889 360.42 382.537C361.357 382.186 362.113 381.711 362.688 381.113L356.377 374.346C356.154 374.428 355.891 374.557 355.586 374.732ZM357.449 370.338C358.75 369.682 359.676 369.037 360.227 368.404C360.789 367.771 361.07 367.051 361.07 366.242C361.07 365.375 360.783 364.672 360.209 364.133C359.646 363.594 358.914 363.324 358.012 363.324C357.121 363.324 356.389 363.6 355.814 364.15C355.252 364.689 354.971 365.387 354.971 366.242C354.971 366.863 355.152 367.479 355.516 368.088C355.891 368.697 356.535 369.447 357.449 370.338ZM193.129 390.635H202.639C206.412 390.635 209.342 391.736 211.428 393.939C213.525 396.131 214.574 399.219 214.574 403.203C214.574 407.27 213.531 410.422 211.445 412.66C209.371 414.887 206.436 416 202.639 416H193.129V390.635ZM197.664 394.555V412.08H202.041C204.572 412.08 206.523 411.318 207.895 409.795C209.266 408.271 209.951 406.098 209.951 403.273C209.951 400.508 209.254 398.363 207.859 396.84C206.477 395.316 204.537 394.555 202.041 394.555H197.664ZM227.354 399.846C226.053 399.846 224.98 400.273 224.137 401.129C223.293 401.984 222.824 403.115 222.73 404.521H231.783C231.736 403.092 231.314 401.955 230.518 401.111C229.721 400.268 228.666 399.846 227.354 399.846ZM231.818 410.709H235.949C235.539 412.467 234.572 413.855 233.049 414.875C231.537 415.883 229.656 416.387 227.406 416.387C224.582 416.387 222.361 415.508 220.744 413.75C219.139 411.98 218.336 409.549 218.336 406.455C218.336 403.361 219.145 400.912 220.762 399.107C222.379 397.291 224.582 396.383 227.371 396.383C230.113 396.383 232.258 397.244 233.805 398.967C235.363 400.678 236.143 403.051 236.143 406.086V407.492H222.713V407.721C222.771 409.326 223.229 410.598 224.084 411.535C224.951 412.461 226.1 412.924 227.529 412.924C229.732 412.924 231.162 412.186 231.818 410.709ZM240.08 402.271C240.08 400.537 240.795 399.125 242.225 398.035C243.654 396.934 245.506 396.383 247.779 396.383C250.064 396.383 251.887 396.869 253.246 397.842C254.617 398.803 255.379 400.156 255.531 401.902H251.436C251.271 401.211 250.873 400.672 250.24 400.285C249.619 399.887 248.805 399.688 247.797 399.688C246.789 399.688 245.957 399.904 245.301 400.338C244.645 400.771 244.316 401.334 244.316 402.025C244.316 402.564 244.545 403.01 245.002 403.361C245.471 403.713 246.191 404 247.164 404.223L250.557 404.996C252.408 405.418 253.768 406.045 254.635 406.877C255.502 407.709 255.936 408.828 255.936 410.234C255.936 412.074 255.174 413.562 253.65 414.699C252.127 415.824 250.158 416.387 247.744 416.387C245.342 416.387 243.42 415.895 241.979 414.91C240.549 413.926 239.752 412.561 239.588 410.814H243.895C244.105 411.541 244.545 412.104 245.213 412.502C245.893 412.889 246.771 413.082 247.85 413.082C248.951 413.082 249.848 412.865 250.539 412.432C251.23 411.986 251.576 411.406 251.576 410.691C251.576 409.625 250.691 408.898 248.922 408.512L245.512 407.721C243.66 407.299 242.289 406.648 241.398 405.77C240.52 404.879 240.08 403.713 240.08 402.271ZM260.4 416V396.77H264.742V416H260.4ZM262.562 393.641C261.777 393.641 261.133 393.418 260.629 392.973C260.125 392.516 259.873 391.936 259.873 391.232C259.873 390.529 260.125 389.955 260.629 389.51C261.133 389.053 261.777 388.824 262.562 388.824C263.359 388.824 264.004 389.053 264.496 389.51C265 389.955 265.252 390.529 265.252 391.232C265.252 391.936 265 392.516 264.496 392.973C264.004 393.418 263.359 393.641 262.562 393.641ZM281.986 410.551C282.854 409.473 283.287 408.014 283.287 406.174C283.287 404.334 282.854 402.875 281.986 401.797C281.119 400.707 279.93 400.162 278.418 400.162C276.918 400.162 275.746 400.701 274.902 401.779C274.07 402.857 273.654 404.322 273.654 406.174C273.654 408.025 274.07 409.49 274.902 410.568C275.734 411.635 276.906 412.168 278.418 412.168C279.93 412.168 281.119 411.629 281.986 410.551ZM278.418 423.312C275.969 423.312 273.977 422.814 272.441 421.818C270.918 420.822 270.068 419.492 269.893 417.828H274.27C274.41 418.496 274.85 419.023 275.588 419.41C276.338 419.797 277.305 419.99 278.488 419.99C279.977 419.99 281.137 419.656 281.969 418.988C282.801 418.32 283.217 417.383 283.217 416.176V412.537H282.918C282.367 413.568 281.582 414.359 280.562 414.91C279.555 415.449 278.383 415.719 277.047 415.719C274.633 415.719 272.717 414.857 271.299 413.135C269.881 411.4 269.172 409.08 269.172 406.174C269.172 403.221 269.887 400.865 271.316 399.107C272.746 397.338 274.68 396.453 277.117 396.453C278.43 396.453 279.619 396.758 280.686 397.367C281.752 397.977 282.549 398.803 283.076 399.846H283.375V396.77H287.576V416.07C287.576 418.297 286.75 420.061 285.098 421.361C283.445 422.662 281.219 423.312 278.418 423.312ZM292.938 416V396.77H297.139V399.846H297.438C297.895 398.768 298.656 397.924 299.723 397.314C300.801 396.693 302.055 396.383 303.484 396.383C305.629 396.383 307.281 397.004 308.441 398.246C309.602 399.488 310.182 401.258 310.182 403.555V416H305.84V404.592C305.84 401.65 304.516 400.18 301.867 400.18C300.461 400.18 299.348 400.596 298.527 401.428C297.707 402.26 297.297 403.385 297.297 404.803V416H292.938Z" fill="white"/>
<path d="M191.969 177.109H196.398C196.539 178.246 197.131 179.154 198.174 179.834C199.217 180.502 200.541 180.836 202.146 180.836C203.646 180.836 204.877 180.496 205.838 179.816C206.811 179.125 207.297 178.246 207.297 177.18C207.297 176.266 206.928 175.521 206.189 174.947C205.463 174.373 204.285 173.898 202.656 173.523L199.369 172.768C197.072 172.252 195.367 171.414 194.254 170.254C193.152 169.082 192.602 167.553 192.602 165.666C192.602 163.357 193.463 161.506 195.186 160.111C196.92 158.705 199.205 158.002 202.041 158.002C204.701 158.002 206.904 158.693 208.65 160.076C210.396 161.459 211.322 163.24 211.428 165.42H207.086C206.934 164.307 206.4 163.422 205.486 162.766C204.572 162.109 203.418 161.781 202.023 161.781C200.559 161.781 199.381 162.109 198.49 162.766C197.611 163.41 197.172 164.271 197.172 165.35C197.172 166.205 197.518 166.902 198.209 167.441C198.9 167.969 200.031 168.414 201.602 168.777L204.52 169.445C207.086 170.02 208.943 170.875 210.092 172.012C211.252 173.148 211.832 174.684 211.832 176.617C211.832 179.09 210.936 181.047 209.143 182.488C207.361 183.918 204.936 184.633 201.865 184.633C198.959 184.633 196.609 183.953 194.816 182.594C193.035 181.234 192.086 179.406 191.969 177.109ZM224.541 167.846C223.24 167.846 222.168 168.273 221.324 169.129C220.48 169.984 220.012 171.115 219.918 172.521H228.971C228.924 171.092 228.502 169.955 227.705 169.111C226.908 168.268 225.854 167.846 224.541 167.846ZM229.006 178.709H233.137C232.727 180.467 231.76 181.855 230.236 182.875C228.725 183.883 226.844 184.387 224.594 184.387C221.77 184.387 219.549 183.508 217.932 181.75C216.326 179.98 215.523 177.549 215.523 174.455C215.523 171.361 216.332 168.912 217.949 167.107C219.566 165.291 221.77 164.383 224.559 164.383C227.301 164.383 229.445 165.244 230.992 166.967C232.551 168.678 233.33 171.051 233.33 174.086V175.492H219.9V175.721C219.959 177.326 220.416 178.598 221.271 179.535C222.139 180.461 223.287 180.924 224.717 180.924C226.92 180.924 228.35 180.186 229.006 178.709ZM237.707 184V164.77H241.908V167.758H242.207C242.477 166.797 243.08 166.006 244.018 165.385C244.955 164.764 246.033 164.453 247.252 164.453C248.002 164.453 248.6 164.518 249.045 164.646V168.689C248.6 168.525 247.861 168.443 246.83 168.443C245.424 168.443 244.275 168.854 243.385 169.674C242.506 170.482 242.066 171.555 242.066 172.891V184H237.707ZM250.979 164.77H255.654L260.102 179.641H260.4L264.812 164.77H269.418L262.615 184H257.816L250.979 164.77ZM273.162 184V164.77H277.504V184H273.162ZM275.324 161.641C274.539 161.641 273.895 161.418 273.391 160.973C272.887 160.516 272.635 159.936 272.635 159.232C272.635 158.529 272.887 157.955 273.391 157.51C273.895 157.053 274.539 156.824 275.324 156.824C276.121 156.824 276.766 157.053 277.258 157.51C277.762 157.955 278.014 158.529 278.014 159.232C278.014 159.936 277.762 160.516 277.258 160.973C276.766 161.418 276.121 161.641 275.324 161.641ZM299.529 171.238H295.381C295.17 170.266 294.701 169.492 293.975 168.918C293.248 168.332 292.305 168.039 291.145 168.039C289.645 168.039 288.473 168.59 287.629 169.691C286.797 170.793 286.381 172.34 286.381 174.332C286.381 176.348 286.803 177.918 287.646 179.043C288.49 180.168 289.656 180.73 291.145 180.73C292.281 180.73 293.213 180.467 293.939 179.939C294.678 179.412 295.158 178.65 295.381 177.654H299.529C299.283 179.705 298.422 181.34 296.945 182.559C295.48 183.777 293.553 184.387 291.162 184.387C288.268 184.387 286.012 183.502 284.395 181.732C282.777 179.963 281.969 177.496 281.969 174.332C281.969 171.203 282.777 168.766 284.395 167.02C286.012 165.262 288.262 164.383 291.145 164.383C293.559 164.383 295.498 165.01 296.963 166.264C298.439 167.506 299.295 169.164 299.529 171.238ZM311.764 167.846C310.463 167.846 309.391 168.273 308.547 169.129C307.703 169.984 307.234 171.115 307.141 172.521H316.193C316.146 171.092 315.725 169.955 314.928 169.111C314.131 168.268 313.076 167.846 311.764 167.846ZM316.229 178.709H320.359C319.949 180.467 318.982 181.855 317.459 182.875C315.947 183.883 314.066 184.387 311.816 184.387C308.992 184.387 306.771 183.508 305.154 181.75C303.549 179.98 302.746 177.549 302.746 174.455C302.746 171.361 303.555 168.912 305.172 167.107C306.789 165.291 308.992 164.383 311.781 164.383C314.523 164.383 316.668 165.244 318.215 166.967C319.773 168.678 320.553 171.051 320.553 174.086V175.492H307.123V175.721C307.182 177.326 307.639 178.598 308.494 179.535C309.361 180.461 310.51 180.924 311.939 180.924C314.143 180.924 315.572 180.186 316.229 178.709ZM334.984 158.635H344.494C348.268 158.635 351.197 159.736 353.283 161.939C355.381 164.131 356.43 167.219 356.43 171.203C356.43 175.27 355.387 178.422 353.301 180.66C351.227 182.887 348.291 184 344.494 184H334.984V158.635ZM339.52 162.555V180.08H343.896C346.428 180.08 348.379 179.318 349.75 177.795C351.121 176.271 351.807 174.098 351.807 171.273C351.807 168.508 351.109 166.363 349.715 164.84C348.332 163.316 346.393 162.555 343.896 162.555H339.52ZM369.209 167.846C367.908 167.846 366.836 168.273 365.992 169.129C365.148 169.984 364.68 171.115 364.586 172.521H373.639C373.592 171.092 373.17 169.955 372.373 169.111C371.576 168.268 370.521 167.846 369.209 167.846ZM373.674 178.709H377.805C377.395 180.467 376.428 181.855 374.904 182.875C373.393 183.883 371.512 184.387 369.262 184.387C366.438 184.387 364.217 183.508 362.6 181.75C360.994 179.98 360.191 177.549 360.191 174.455C360.191 171.361 361 168.912 362.617 167.107C364.234 165.291 366.438 164.383 369.227 164.383C371.969 164.383 374.113 165.244 375.66 166.967C377.219 168.678 377.998 171.051 377.998 174.086V175.492H364.568V175.721C364.627 177.326 365.084 178.598 365.939 179.535C366.807 180.461 367.955 180.924 369.385 180.924C371.588 180.924 373.018 180.186 373.674 178.709ZM381.936 170.271C381.936 168.537 382.65 167.125 384.08 166.035C385.51 164.934 387.361 164.383 389.635 164.383C391.92 164.383 393.742 164.869 395.102 165.842C396.473 166.803 397.234 168.156 397.387 169.902H393.291C393.127 169.211 392.729 168.672 392.096 168.285C391.475 167.887 390.66 167.688 389.652 167.688C388.645 167.688 387.812 167.904 387.156 168.338C386.5 168.771 386.172 169.334 386.172 170.025C386.172 170.564 386.4 171.01 386.857 171.361C387.326 171.713 388.047 172 389.02 172.223L392.412 172.996C394.264 173.418 395.623 174.045 396.49 174.877C397.357 175.709 397.791 176.828 397.791 178.234C397.791 180.074 397.029 181.562 395.506 182.699C393.982 183.824 392.014 184.387 389.6 184.387C387.197 184.387 385.275 183.895 383.834 182.91C382.404 181.926 381.607 180.561 381.443 178.814H385.75C385.961 179.541 386.4 180.104 387.068 180.502C387.748 180.889 388.627 181.082 389.705 181.082C390.807 181.082 391.703 180.865 392.395 180.432C393.086 179.986 393.432 179.406 393.432 178.691C393.432 177.625 392.547 176.898 390.777 176.512L387.367 175.721C385.516 175.299 384.145 174.648 383.254 173.77C382.375 172.879 381.936 171.713 381.936 170.271ZM402.256 184V164.77H406.598V184H402.256ZM404.418 161.641C403.633 161.641 402.988 161.418 402.484 160.973C401.98 160.516 401.729 159.936 401.729 159.232C401.729 158.529 401.98 157.955 402.484 157.51C402.988 157.053 403.633 156.824 404.418 156.824C405.215 156.824 405.859 157.053 406.352 157.51C406.855 157.955 407.107 158.529 407.107 159.232C407.107 159.936 406.855 160.516 406.352 160.973C405.859 161.418 405.215 161.641 404.418 161.641ZM423.842 178.551C424.709 177.473 425.143 176.014 425.143 174.174C425.143 172.334 424.709 170.875 423.842 169.797C422.975 168.707 421.785 168.162 420.273 168.162C418.773 168.162 417.602 168.701 416.758 169.779C415.926 170.857 415.51 172.322 415.51 174.174C415.51 176.025 415.926 177.49 416.758 178.568C417.59 179.635 418.762 180.168 420.273 180.168C421.785 180.168 422.975 179.629 423.842 178.551ZM420.273 191.312C417.824 191.312 415.832 190.814 414.297 189.818C412.773 188.822 411.924 187.492 411.748 185.828H416.125C416.266 186.496 416.705 187.023 417.443 187.41C418.193 187.797 419.16 187.99 420.344 187.99C421.832 187.99 422.992 187.656 423.824 186.988C424.656 186.32 425.072 185.383 425.072 184.176V180.537H424.773C424.223 181.568 423.438 182.359 422.418 182.91C421.41 183.449 420.238 183.719 418.902 183.719C416.488 183.719 414.572 182.857 413.154 181.135C411.736 179.4 411.027 177.08 411.027 174.174C411.027 171.221 411.742 168.865 413.172 167.107C414.602 165.338 416.535 164.453 418.973 164.453C420.285 164.453 421.475 164.758 422.541 165.367C423.607 165.977 424.404 166.803 424.932 167.846H425.23V164.77H429.432V184.07C429.432 186.297 428.605 188.061 426.953 189.361C425.301 190.662 423.074 191.312 420.273 191.312ZM434.793 184V164.77H438.994V167.846H439.293C439.75 166.768 440.512 165.924 441.578 165.314C442.656 164.693 443.91 164.383 445.34 164.383C447.484 164.383 449.137 165.004 450.297 166.246C451.457 167.488 452.037 169.258 452.037 171.555V184H447.695V172.592C447.695 169.65 446.371 168.18 443.723 168.18C442.316 168.18 441.203 168.596 440.383 169.428C439.562 170.26 439.152 171.385 439.152 172.803V184H434.793Z" fill="white"/>
<path d="M653.969 177.109H658.398C658.539 178.246 659.131 179.154 660.174 179.834C661.217 180.502 662.541 180.836 664.146 180.836C665.646 180.836 666.877 180.496 667.838 179.816C668.811 179.125 669.297 178.246 669.297 177.18C669.297 176.266 668.928 175.521 668.189 174.947C667.463 174.373 666.285 173.898 664.656 173.523L661.369 172.768C659.072 172.252 657.367 171.414 656.254 170.254C655.152 169.082 654.602 167.553 654.602 165.666C654.602 163.357 655.463 161.506 657.186 160.111C658.92 158.705 661.205 158.002 664.041 158.002C666.701 158.002 668.904 158.693 670.65 160.076C672.396 161.459 673.322 163.24 673.428 165.42H669.086C668.934 164.307 668.4 163.422 667.486 162.766C666.572 162.109 665.418 161.781 664.023 161.781C662.559 161.781 661.381 162.109 660.49 162.766C659.611 163.41 659.172 164.271 659.172 165.35C659.172 166.205 659.518 166.902 660.209 167.441C660.9 167.969 662.031 168.414 663.602 168.777L666.52 169.445C669.086 170.02 670.943 170.875 672.092 172.012C673.252 173.148 673.832 174.684 673.832 176.617C673.832 179.09 672.936 181.047 671.143 182.488C669.361 183.918 666.936 184.633 663.865 184.633C660.959 184.633 658.609 183.953 656.816 182.594C655.035 181.234 654.086 179.406 653.969 177.109ZM679.861 160.182H684.203V164.893H688.422V168.373H684.203V177.812C684.203 178.762 684.414 179.459 684.836 179.904C685.258 180.338 685.926 180.555 686.84 180.555C687.238 180.555 687.719 180.525 688.281 180.467V183.877C687.578 184.018 686.828 184.088 686.031 184.088C683.828 184.088 682.246 183.684 681.285 182.875C680.336 182.066 679.861 180.73 679.861 178.867V168.373H676.732V164.893H679.861V160.182ZM692.676 184V164.77H696.877V167.758H697.176C697.445 166.797 698.049 166.006 698.986 165.385C699.924 164.764 701.002 164.453 702.221 164.453C702.971 164.453 703.568 164.518 704.014 164.646V168.689C703.568 168.525 702.83 168.443 701.799 168.443C700.393 168.443 699.244 168.854 698.354 169.674C697.475 170.482 697.035 171.555 697.035 172.891V184H692.676ZM713.77 180.889C715.082 180.889 716.178 180.514 717.057 179.764C717.936 179.002 718.375 178.064 718.375 176.951V175.422L714.033 175.703C711.643 175.855 710.447 176.723 710.447 178.305C710.447 179.102 710.752 179.734 711.361 180.203C711.982 180.66 712.785 180.889 713.77 180.889ZM712.486 184.316C710.611 184.316 709.082 183.789 707.898 182.734C706.715 181.68 706.123 180.285 706.123 178.551C706.123 176.816 706.75 175.457 708.004 174.473C709.27 173.488 711.074 172.926 713.418 172.785L718.375 172.486V170.869C718.375 169.92 718.064 169.193 717.443 168.689C716.822 168.186 715.926 167.934 714.754 167.934C713.746 167.934 712.914 168.109 712.258 168.461C711.602 168.801 711.174 169.293 710.975 169.938H706.861C707.037 168.238 707.857 166.891 709.322 165.895C710.799 164.887 712.68 164.383 714.965 164.383C717.426 164.383 719.324 164.951 720.66 166.088C722.008 167.225 722.682 168.818 722.682 170.869V184H718.48V181.363H718.182C717.643 182.289 716.869 183.016 715.861 183.543C714.865 184.059 713.74 184.316 712.486 184.316ZM729.326 160.182H733.668V164.893H737.887V168.373H733.668V177.812C733.668 178.762 733.879 179.459 734.301 179.904C734.723 180.338 735.391 180.555 736.305 180.555C736.703 180.555 737.184 180.525 737.746 180.467V183.877C737.043 184.018 736.293 184.088 735.496 184.088C733.293 184.088 731.711 183.684 730.75 182.875C729.801 182.066 729.326 180.73 729.326 178.867V168.373H726.197V164.893H729.326V160.182ZM750.033 167.846C748.732 167.846 747.66 168.273 746.816 169.129C745.973 169.984 745.504 171.115 745.41 172.521H754.463C754.416 171.092 753.994 169.955 753.197 169.111C752.4 168.268 751.346 167.846 750.033 167.846ZM754.498 178.709H758.629C758.219 180.467 757.252 181.855 755.729 182.875C754.217 183.883 752.336 184.387 750.086 184.387C747.262 184.387 745.041 183.508 743.424 181.75C741.818 179.98 741.016 177.549 741.016 174.455C741.016 171.361 741.824 168.912 743.441 167.107C745.059 165.291 747.262 164.383 750.051 164.383C752.793 164.383 754.938 165.244 756.484 166.967C758.043 168.678 758.822 171.051 758.822 174.086V175.492H745.393V175.721C745.451 177.326 745.908 178.598 746.764 179.535C747.631 180.461 748.779 180.924 750.209 180.924C752.412 180.924 753.842 180.186 754.498 178.709ZM775.029 178.551C775.896 177.473 776.33 176.014 776.33 174.174C776.33 172.334 775.896 170.875 775.029 169.797C774.162 168.707 772.973 168.162 771.461 168.162C769.961 168.162 768.789 168.701 767.945 169.779C767.113 170.857 766.697 172.322 766.697 174.174C766.697 176.025 767.113 177.49 767.945 178.568C768.777 179.635 769.949 180.168 771.461 180.168C772.973 180.168 774.162 179.629 775.029 178.551ZM771.461 191.312C769.012 191.312 767.02 190.814 765.484 189.818C763.961 188.822 763.111 187.492 762.936 185.828H767.312C767.453 186.496 767.893 187.023 768.631 187.41C769.381 187.797 770.348 187.99 771.531 187.99C773.02 187.99 774.18 187.656 775.012 186.988C775.844 186.32 776.26 185.383 776.26 184.176V180.537H775.961C775.41 181.568 774.625 182.359 773.605 182.91C772.598 183.449 771.426 183.719 770.09 183.719C767.676 183.719 765.76 182.857 764.342 181.135C762.924 179.4 762.215 177.08 762.215 174.174C762.215 171.221 762.93 168.865 764.359 167.107C765.789 165.338 767.723 164.453 770.16 164.453C771.473 164.453 772.662 164.758 773.729 165.367C774.795 165.977 775.592 166.803 776.119 167.846H776.418V164.77H780.619V184.07C780.619 186.297 779.793 188.061 778.141 189.361C776.488 190.662 774.262 191.312 771.461 191.312ZM786.033 184V164.77H790.375V184H786.033ZM788.195 161.641C787.41 161.641 786.766 161.418 786.262 160.973C785.758 160.516 785.506 159.936 785.506 159.232C785.506 158.529 785.758 157.955 786.262 157.51C786.766 157.053 787.41 156.824 788.195 156.824C788.992 156.824 789.637 157.053 790.129 157.51C790.633 157.955 790.885 158.529 790.885 159.232C790.885 159.936 790.633 160.516 790.129 160.973C789.637 161.418 788.992 161.641 788.195 161.641Z" fill="white"/>
<path d="M969.664 171H965.129V145.635H969.664V157.307H969.963L979.965 145.635H985.168L975.588 156.691L985.924 171H980.387L972.371 159.803L969.664 162.914V171ZM992.85 166.078C993.682 167.18 994.859 167.73 996.383 167.73C997.906 167.73 999.078 167.18 999.898 166.078C1000.73 164.965 1001.15 163.4 1001.15 161.385C1001.15 159.381 1000.73 157.822 999.898 156.709C999.066 155.596 997.895 155.039 996.383 155.039C994.859 155.039 993.682 155.596 992.85 156.709C992.018 157.822 991.602 159.381 991.602 161.385C991.602 163.4 992.018 164.965 992.85 166.078ZM996.383 171.387C993.5 171.387 991.238 170.502 989.598 168.732C987.957 166.951 987.137 164.502 987.137 161.385C987.137 158.291 987.963 155.854 989.615 154.072C991.268 152.279 993.523 151.383 996.383 151.383C999.254 151.383 1001.51 152.273 1003.15 154.055C1004.8 155.836 1005.63 158.279 1005.63 161.385C1005.63 164.502 1004.8 166.951 1003.15 168.732C1001.51 170.502 999.254 171.387 996.383 171.387ZM1010.02 171V151.77H1014.22V154.758H1014.52C1014.79 153.797 1015.4 153.006 1016.33 152.385C1017.27 151.764 1018.35 151.453 1019.57 151.453C1020.32 151.453 1020.92 151.518 1021.36 151.646V155.689C1020.92 155.525 1020.18 155.443 1019.15 155.443C1017.74 155.443 1016.59 155.854 1015.7 156.674C1014.82 157.482 1014.38 158.555 1014.38 159.891V171H1010.02ZM1027.06 147.182H1031.4V151.893H1035.62V155.373H1031.4V164.812C1031.4 165.762 1031.61 166.459 1032.03 166.904C1032.45 167.338 1033.12 167.555 1034.04 167.555C1034.43 167.555 1034.91 167.525 1035.48 167.467V170.877C1034.77 171.018 1034.02 171.088 1033.23 171.088C1031.02 171.088 1029.44 170.684 1028.48 169.875C1027.53 169.066 1027.06 167.73 1027.06 165.867V155.373H1023.93V151.893H1027.06V147.182ZM1040.05 171V144.334H1044.41V171H1040.05ZM1070.19 171.387C1068.68 171.387 1067.3 171.053 1066.04 170.385C1064.8 169.705 1063.9 168.809 1063.34 167.695H1063.04C1062.34 168.855 1061.37 169.764 1060.14 170.42C1058.91 171.064 1057.5 171.387 1055.9 171.387C1053.78 171.387 1052.08 170.854 1050.79 169.787C1049.5 168.709 1048.85 167.297 1048.85 165.551C1048.85 163.816 1049.48 162.457 1050.73 161.473C1052 160.488 1053.8 159.926 1056.15 159.785L1061.11 159.486V157.869C1061.11 156.92 1060.79 156.193 1060.17 155.689C1059.55 155.186 1058.66 154.934 1057.48 154.934C1056.48 154.934 1055.64 155.109 1054.99 155.461C1054.33 155.801 1053.9 156.293 1053.71 156.938H1049.59C1049.76 155.285 1050.55 153.949 1051.98 152.93C1053.42 151.898 1055.21 151.383 1057.34 151.383C1058.82 151.383 1060.09 151.646 1061.14 152.174C1062.2 152.701 1063 153.422 1063.57 154.336H1063.87C1064.5 153.445 1065.37 152.73 1066.48 152.191C1067.6 151.652 1068.81 151.383 1070.12 151.383C1072.74 151.383 1074.79 152.238 1076.29 153.949C1077.79 155.648 1078.54 157.969 1078.54 160.91V162.387H1065.29V162.791C1065.35 164.338 1065.82 165.58 1066.7 166.518C1067.59 167.443 1068.75 167.906 1070.18 167.906C1072.17 167.906 1073.52 167.174 1074.24 165.709H1078.35C1077.93 167.479 1076.99 168.867 1075.54 169.875C1074.1 170.883 1072.31 171.387 1070.19 171.387ZM1069.88 154.846C1068.55 154.846 1067.47 155.262 1066.64 156.094C1065.82 156.926 1065.37 158.039 1065.29 159.434H1074.2C1074.15 158.074 1073.73 156.973 1072.92 156.129C1072.12 155.273 1071.11 154.846 1069.88 154.846ZM1056.62 167.924C1057.89 167.924 1058.95 167.531 1059.8 166.746C1060.67 165.949 1061.11 164.988 1061.11 163.863V162.422L1056.76 162.703C1054.37 162.855 1053.18 163.734 1053.18 165.34C1053.18 166.137 1053.49 166.77 1054.11 167.238C1054.74 167.695 1055.58 167.924 1056.62 167.924ZM1094.77 165.551C1095.63 164.473 1096.07 163.014 1096.07 161.174C1096.07 159.334 1095.63 157.875 1094.77 156.797C1093.9 155.707 1092.71 155.162 1091.2 155.162C1089.7 155.162 1088.53 155.701 1087.68 156.779C1086.85 157.857 1086.44 159.322 1086.44 161.174C1086.44 163.025 1086.85 164.49 1087.68 165.568C1088.52 166.635 1089.69 167.168 1091.2 167.168C1092.71 167.168 1093.9 166.629 1094.77 165.551ZM1091.2 178.312C1088.75 178.312 1086.76 177.814 1085.22 176.818C1083.7 175.822 1082.85 174.492 1082.67 172.828H1087.05C1087.19 173.496 1087.63 174.023 1088.37 174.41C1089.12 174.797 1090.09 174.99 1091.27 174.99C1092.76 174.99 1093.92 174.656 1094.75 173.988C1095.58 173.32 1096 172.383 1096 171.176V167.537H1095.7C1095.15 168.568 1094.36 169.359 1093.34 169.91C1092.34 170.449 1091.16 170.719 1089.83 170.719C1087.41 170.719 1085.5 169.857 1084.08 168.135C1082.66 166.4 1081.95 164.08 1081.95 161.174C1081.95 158.221 1082.67 155.865 1084.1 154.107C1085.53 152.338 1087.46 151.453 1089.9 151.453C1091.21 151.453 1092.4 151.758 1093.47 152.367C1094.53 152.977 1095.33 153.803 1095.86 154.846H1096.16V151.77H1100.36V171.07C1100.36 173.297 1099.53 175.061 1097.88 176.361C1096.23 177.662 1094 178.312 1091.2 178.312ZM1105.72 171V151.77H1109.92V154.846H1110.22C1110.68 153.768 1111.44 152.924 1112.5 152.314C1113.58 151.693 1114.84 151.383 1116.27 151.383C1118.41 151.383 1120.06 152.004 1121.22 153.246C1122.38 154.488 1122.96 156.258 1122.96 158.555V171H1118.62V159.592C1118.62 156.65 1117.3 155.18 1114.65 155.18C1113.24 155.18 1112.13 155.596 1111.31 156.428C1110.49 157.26 1110.08 158.385 1110.08 159.803V171H1105.72ZM1128.2 171V151.77H1132.54V171H1128.2ZM1130.36 148.641C1129.58 148.641 1128.93 148.418 1128.43 147.973C1127.93 147.516 1127.67 146.936 1127.67 146.232C1127.67 145.529 1127.93 144.955 1128.43 144.51C1128.93 144.053 1129.58 143.824 1130.36 143.824C1131.16 143.824 1131.8 144.053 1132.3 144.51C1132.8 144.955 1133.05 145.529 1133.05 146.232C1133.05 146.936 1132.8 147.516 1132.3 147.973C1131.8 148.418 1131.16 148.641 1130.36 148.641ZM1137.96 171V151.77H1142.16V154.846H1142.46C1142.91 153.768 1143.68 152.924 1144.74 152.314C1145.82 151.693 1147.07 151.383 1148.5 151.383C1150.65 151.383 1152.3 152.004 1153.46 153.246C1154.62 154.488 1155.2 156.258 1155.2 158.555V171H1150.86V159.592C1150.86 156.65 1149.54 155.18 1146.89 155.18C1145.48 155.18 1144.37 155.596 1143.55 156.428C1142.73 157.26 1142.32 158.385 1142.32 159.803V171H1137.96ZM1172.22 165.551C1173.08 164.473 1173.52 163.014 1173.52 161.174C1173.52 159.334 1173.08 157.875 1172.22 156.797C1171.35 155.707 1170.16 155.162 1168.65 155.162C1167.15 155.162 1165.98 155.701 1165.13 156.779C1164.3 157.857 1163.88 159.322 1163.88 161.174C1163.88 163.025 1164.3 164.49 1165.13 165.568C1165.96 166.635 1167.14 167.168 1168.65 167.168C1170.16 167.168 1171.35 166.629 1172.22 165.551ZM1168.65 178.312C1166.2 178.312 1164.21 177.814 1162.67 176.818C1161.15 175.822 1160.3 174.492 1160.12 172.828H1164.5C1164.64 173.496 1165.08 174.023 1165.82 174.41C1166.57 174.797 1167.54 174.99 1168.72 174.99C1170.21 174.99 1171.37 174.656 1172.2 173.988C1173.03 173.32 1173.45 172.383 1173.45 171.176V167.537H1173.15C1172.6 168.568 1171.81 169.359 1170.79 169.91C1169.79 170.449 1168.61 170.719 1167.28 170.719C1164.86 170.719 1162.95 169.857 1161.53 168.135C1160.11 166.4 1159.4 164.08 1159.4 161.174C1159.4 158.221 1160.12 155.865 1161.55 154.107C1162.98 152.338 1164.91 151.453 1167.35 151.453C1168.66 151.453 1169.85 151.758 1170.92 152.367C1171.98 152.977 1172.78 153.803 1173.31 154.846H1173.61V151.77H1177.81V171.07C1177.81 173.297 1176.98 175.061 1175.33 176.361C1173.68 177.662 1171.45 178.312 1168.65 178.312ZM1199.34 167.889C1200.65 167.889 1201.75 167.514 1202.63 166.764C1203.51 166.002 1203.95 165.064 1203.95 163.951V162.422L1199.6 162.703C1197.21 162.855 1196.02 163.723 1196.02 165.305C1196.02 166.102 1196.32 166.734 1196.93 167.203C1197.55 167.66 1198.36 167.889 1199.34 167.889ZM1198.06 171.316C1196.18 171.316 1194.65 170.789 1193.47 169.734C1192.29 168.68 1191.69 167.285 1191.69 165.551C1191.69 163.816 1192.32 162.457 1193.57 161.473C1194.84 160.488 1196.64 159.926 1198.99 159.785L1203.95 159.486V157.869C1203.95 156.92 1203.63 156.193 1203.01 155.689C1202.39 155.186 1201.5 154.934 1200.32 154.934C1199.32 154.934 1198.48 155.109 1197.83 155.461C1197.17 155.801 1196.74 156.293 1196.54 156.938H1192.43C1192.61 155.238 1193.43 153.891 1194.89 152.895C1196.37 151.887 1198.25 151.383 1200.54 151.383C1203 151.383 1204.89 151.951 1206.23 153.088C1207.58 154.225 1208.25 155.818 1208.25 157.869V171H1204.05V168.363H1203.75C1203.21 169.289 1202.44 170.016 1201.43 170.543C1200.44 171.059 1199.31 171.316 1198.06 171.316ZM1214.9 171V155.373H1211.77V151.893H1214.9V149.977C1214.9 148.055 1215.4 146.66 1216.41 145.793C1217.43 144.926 1219 144.492 1221.14 144.492C1221.86 144.492 1222.63 144.557 1223.44 144.686V147.938C1223.03 147.844 1222.47 147.797 1221.77 147.797C1220.04 147.797 1219.17 148.617 1219.17 150.258V151.893H1223.33V155.373H1219.24V171H1214.9ZM964.725 201V181.77H969.066V201H964.725ZM966.887 178.641C966.102 178.641 965.457 178.418 964.953 177.973C964.449 177.516 964.197 176.936 964.197 176.232C964.197 175.529 964.449 174.955 964.953 174.51C965.457 174.053 966.102 173.824 966.887 173.824C967.684 173.824 968.328 174.053 968.82 174.51C969.324 174.955 969.576 175.529 969.576 176.232C969.576 176.936 969.324 177.516 968.82 177.973C968.328 178.418 967.684 178.641 966.887 178.641ZM974.48 201V181.77H978.682V184.846H978.98C979.438 183.768 980.199 182.924 981.266 182.314C982.344 181.693 983.598 181.383 985.027 181.383C987.172 181.383 988.824 182.004 989.984 183.246C991.145 184.488 991.725 186.258 991.725 188.555V201H987.383V189.592C987.383 186.65 986.059 185.18 983.41 185.18C982.004 185.18 980.891 185.596 980.07 186.428C979.25 187.26 978.84 188.385 978.84 189.803V201H974.48ZM998.299 177.182H1002.64V181.893H1006.86V185.373H1002.64V194.812C1002.64 195.762 1002.85 196.459 1003.27 196.904C1003.7 197.338 1004.36 197.555 1005.28 197.555C1005.68 197.555 1006.16 197.525 1006.72 197.467V200.877C1006.02 201.018 1005.27 201.088 1004.47 201.088C1002.27 201.088 1000.68 200.684 999.723 199.875C998.773 199.066 998.299 197.73 998.299 195.867V185.373H995.17V181.893H998.299V177.182ZM1019.01 184.846C1017.71 184.846 1016.63 185.273 1015.79 186.129C1014.95 186.984 1014.48 188.115 1014.38 189.521H1023.44C1023.39 188.092 1022.97 186.955 1022.17 186.111C1021.37 185.268 1020.32 184.846 1019.01 184.846ZM1023.47 195.709H1027.6C1027.19 197.467 1026.22 198.855 1024.7 199.875C1023.19 200.883 1021.31 201.387 1019.06 201.387C1016.23 201.387 1014.01 200.508 1012.4 198.75C1010.79 196.98 1009.99 194.549 1009.99 191.455C1009.99 188.361 1010.8 185.912 1012.41 184.107C1014.03 182.291 1016.23 181.383 1019.02 181.383C1021.77 181.383 1023.91 182.244 1025.46 183.967C1027.02 185.678 1027.79 188.051 1027.79 191.086V192.492H1014.37V192.721C1014.42 194.326 1014.88 195.598 1015.74 196.535C1016.6 197.461 1017.75 197.924 1019.18 197.924C1021.38 197.924 1022.81 197.186 1023.47 195.709ZM1032.17 201V181.77H1036.37V184.758H1036.67C1036.94 183.797 1037.54 183.006 1038.48 182.385C1039.42 181.764 1040.5 181.453 1041.72 181.453C1042.47 181.453 1043.06 181.518 1043.51 181.646V185.689C1043.06 185.525 1042.33 185.443 1041.29 185.443C1039.89 185.443 1038.74 185.854 1037.85 186.674C1036.97 187.482 1036.53 188.555 1036.53 189.891V201H1032.17ZM1054.65 184.846C1053.35 184.846 1052.28 185.273 1051.44 186.129C1050.59 186.984 1050.12 188.115 1050.03 189.521H1059.08C1059.04 188.092 1058.62 186.955 1057.82 186.111C1057.02 185.268 1055.97 184.846 1054.65 184.846ZM1059.12 195.709H1063.25C1062.84 197.467 1061.87 198.855 1060.35 199.875C1058.84 200.883 1056.96 201.387 1054.71 201.387C1051.88 201.387 1049.66 200.508 1048.04 198.75C1046.44 196.98 1045.64 194.549 1045.64 191.455C1045.64 188.361 1046.45 185.912 1048.06 184.107C1049.68 182.291 1051.88 181.383 1054.67 181.383C1057.41 181.383 1059.56 182.244 1061.11 183.967C1062.66 185.678 1063.44 188.051 1063.44 191.086V192.492H1050.01V192.721C1050.07 194.326 1050.53 195.598 1051.38 196.535C1052.25 197.461 1053.4 197.924 1054.83 197.924C1057.03 197.924 1058.46 197.186 1059.12 195.709ZM1067.38 187.271C1067.38 185.537 1068.1 184.125 1069.53 183.035C1070.96 181.934 1072.81 181.383 1075.08 181.383C1077.37 181.383 1079.19 181.869 1080.55 182.842C1081.92 183.803 1082.68 185.156 1082.83 186.902H1078.74C1078.57 186.211 1078.17 185.672 1077.54 185.285C1076.92 184.887 1076.11 184.688 1075.1 184.688C1074.09 184.688 1073.26 184.904 1072.6 185.338C1071.95 185.771 1071.62 186.334 1071.62 187.025C1071.62 187.564 1071.85 188.01 1072.3 188.361C1072.77 188.713 1073.49 189 1074.46 189.223L1077.86 189.996C1079.71 190.418 1081.07 191.045 1081.94 191.877C1082.8 192.709 1083.24 193.828 1083.24 195.234C1083.24 197.074 1082.47 198.562 1080.95 199.699C1079.43 200.824 1077.46 201.387 1075.04 201.387C1072.64 201.387 1070.72 200.895 1069.28 199.91C1067.85 198.926 1067.05 197.561 1066.89 195.814H1071.2C1071.41 196.541 1071.85 197.104 1072.51 197.502C1073.19 197.889 1074.07 198.082 1075.15 198.082C1076.25 198.082 1077.15 197.865 1077.84 197.432C1078.53 196.986 1078.88 196.406 1078.88 195.691C1078.88 194.625 1077.99 193.898 1076.22 193.512L1072.81 192.721C1070.96 192.299 1069.59 191.648 1068.7 190.77C1067.82 189.879 1067.38 188.713 1067.38 187.271ZM1086.86 187.271C1086.86 185.537 1087.57 184.125 1089 183.035C1090.43 181.934 1092.28 181.383 1094.56 181.383C1096.84 181.383 1098.66 181.869 1100.02 182.842C1101.39 183.803 1102.16 185.156 1102.31 186.902H1098.21C1098.05 186.211 1097.65 185.672 1097.02 185.285C1096.4 184.887 1095.58 184.688 1094.57 184.688C1093.57 184.688 1092.73 184.904 1092.08 185.338C1091.42 185.771 1091.09 186.334 1091.09 187.025C1091.09 187.564 1091.32 188.01 1091.78 188.361C1092.25 188.713 1092.97 189 1093.94 189.223L1097.33 189.996C1099.19 190.418 1100.54 191.045 1101.41 191.877C1102.28 192.709 1102.71 193.828 1102.71 195.234C1102.71 197.074 1101.95 198.562 1100.43 199.699C1098.9 200.824 1096.94 201.387 1094.52 201.387C1092.12 201.387 1090.2 200.895 1088.76 199.91C1087.33 198.926 1086.53 197.561 1086.37 195.814H1090.67C1090.88 196.541 1091.32 197.104 1091.99 197.502C1092.67 197.889 1093.55 198.082 1094.63 198.082C1095.73 198.082 1096.62 197.865 1097.32 197.432C1098.01 196.986 1098.35 196.406 1098.35 195.691C1098.35 194.625 1097.47 193.898 1095.7 193.512L1092.29 192.721C1090.44 192.299 1089.07 191.648 1088.18 190.77C1087.3 189.879 1086.86 188.713 1086.86 187.271ZM1115.19 184.846C1113.89 184.846 1112.82 185.273 1111.98 186.129C1111.13 186.984 1110.66 188.115 1110.57 189.521H1119.62C1119.58 188.092 1119.15 186.955 1118.36 186.111C1117.56 185.268 1116.51 184.846 1115.19 184.846ZM1119.66 195.709H1123.79C1123.38 197.467 1122.41 198.855 1120.89 199.875C1119.38 200.883 1117.5 201.387 1115.25 201.387C1112.42 201.387 1110.2 200.508 1108.58 198.75C1106.98 196.98 1106.18 194.549 1106.18 191.455C1106.18 188.361 1106.98 185.912 1108.6 184.107C1110.22 182.291 1112.42 181.383 1115.21 181.383C1117.95 181.383 1120.1 182.244 1121.64 183.967C1123.2 185.678 1123.98 188.051 1123.98 191.086V192.492H1110.55V192.721C1110.61 194.326 1111.07 195.598 1111.92 196.535C1112.79 197.461 1113.94 197.924 1115.37 197.924C1117.57 197.924 1119 197.186 1119.66 195.709ZM1128.36 201V181.77H1132.56V184.846H1132.86C1133.32 183.768 1134.08 182.924 1135.14 182.314C1136.22 181.693 1137.48 181.383 1138.91 181.383C1141.05 181.383 1142.7 182.004 1143.86 183.246C1145.02 184.488 1145.6 186.258 1145.6 188.555V201H1141.26V189.592C1141.26 186.65 1139.94 185.18 1137.29 185.18C1135.88 185.18 1134.77 185.596 1133.95 186.428C1133.13 187.26 1132.72 188.385 1132.72 189.803V201H1128.36ZM1152.18 177.182H1156.52V181.893H1160.74V185.373H1156.52V194.812C1156.52 195.762 1156.73 196.459 1157.15 196.904C1157.57 197.338 1158.24 197.555 1159.16 197.555C1159.55 197.555 1160.04 197.525 1160.6 197.467V200.877C1159.89 201.018 1159.14 201.088 1158.35 201.088C1156.14 201.088 1154.56 200.684 1153.6 199.875C1152.65 199.066 1152.18 197.73 1152.18 195.867V185.373H1149.05V181.893H1152.18V177.182ZM1172.88 184.846C1171.58 184.846 1170.51 185.273 1169.67 186.129C1168.82 186.984 1168.36 188.115 1168.26 189.521H1177.31C1177.27 188.092 1176.85 186.955 1176.05 186.111C1175.25 185.268 1174.2 184.846 1172.88 184.846ZM1177.35 195.709H1181.48C1181.07 197.467 1180.1 198.855 1178.58 199.875C1177.07 200.883 1175.19 201.387 1172.94 201.387C1170.11 201.387 1167.89 200.508 1166.28 198.75C1164.67 196.98 1163.87 194.549 1163.87 191.455C1163.87 188.361 1164.68 185.912 1166.29 184.107C1167.91 182.291 1170.11 181.383 1172.9 181.383C1175.64 181.383 1177.79 182.244 1179.34 183.967C1180.89 185.678 1181.67 188.051 1181.67 191.086V192.492H1168.24V192.721C1168.3 194.326 1168.76 195.598 1169.62 196.535C1170.48 197.461 1171.63 197.924 1173.06 197.924C1175.26 197.924 1176.69 197.186 1177.35 195.709ZM1186.05 201V181.77H1190.25V184.758H1190.55C1190.82 183.797 1191.42 183.006 1192.36 182.385C1193.3 181.764 1194.38 181.453 1195.6 181.453C1196.35 181.453 1196.94 181.518 1197.39 181.646V185.689C1196.94 185.525 1196.21 185.443 1195.17 185.443C1193.77 185.443 1192.62 185.854 1191.73 186.674C1190.85 187.482 1190.41 188.555 1190.41 189.891V201H1186.05Z" fill="white"/>
<path d="M956.129 360.635H965.639C969.412 360.635 972.342 361.736 974.428 363.939C976.525 366.131 977.574 369.219 977.574 373.203C977.574 377.27 976.531 380.422 974.445 382.66C972.371 384.887 969.436 386 965.639 386H956.129V360.635ZM960.664 364.555V382.08H965.041C967.572 382.08 969.523 381.318 970.895 379.795C972.266 378.271 972.951 376.098 972.951 373.273C972.951 370.508 972.254 368.363 970.859 366.84C969.477 365.316 967.537 364.555 965.041 364.555H960.664ZM988.754 382.889C990.066 382.889 991.162 382.514 992.041 381.764C992.92 381.002 993.359 380.064 993.359 378.951V377.422L989.018 377.703C986.627 377.855 985.432 378.723 985.432 380.305C985.432 381.102 985.736 381.734 986.346 382.203C986.967 382.66 987.77 382.889 988.754 382.889ZM987.471 386.316C985.596 386.316 984.066 385.789 982.883 384.734C981.699 383.68 981.107 382.285 981.107 380.551C981.107 378.816 981.734 377.457 982.988 376.473C984.254 375.488 986.059 374.926 988.402 374.785L993.359 374.486V372.869C993.359 371.92 993.049 371.193 992.428 370.689C991.807 370.186 990.91 369.934 989.738 369.934C988.73 369.934 987.898 370.109 987.242 370.461C986.586 370.801 986.158 371.293 985.959 371.938H981.846C982.021 370.238 982.842 368.891 984.307 367.895C985.783 366.887 987.664 366.383 989.949 366.383C992.41 366.383 994.309 366.951 995.645 368.088C996.992 369.225 997.666 370.818 997.666 372.869V386H993.465V383.363H993.166C992.627 384.289 991.854 385.016 990.846 385.543C989.85 386.059 988.725 386.316 987.471 386.316ZM1004.31 362.182H1008.65V366.893H1012.87V370.373H1008.65V379.812C1008.65 380.762 1008.86 381.459 1009.29 381.904C1009.71 382.338 1010.38 382.555 1011.29 382.555C1011.69 382.555 1012.17 382.525 1012.73 382.467V385.877C1012.03 386.018 1011.28 386.088 1010.48 386.088C1008.28 386.088 1006.7 385.684 1005.73 384.875C1004.79 384.066 1004.31 382.73 1004.31 380.867V370.373H1001.18V366.893H1004.31V362.182ZM1023.7 382.889C1025.01 382.889 1026.11 382.514 1026.99 381.764C1027.87 381.002 1028.3 380.064 1028.3 378.951V377.422L1023.96 377.703C1021.57 377.855 1020.38 378.723 1020.38 380.305C1020.38 381.102 1020.68 381.734 1021.29 382.203C1021.91 382.66 1022.71 382.889 1023.7 382.889ZM1022.42 386.316C1020.54 386.316 1019.01 385.789 1017.83 384.734C1016.64 383.68 1016.05 382.285 1016.05 380.551C1016.05 378.816 1016.68 377.457 1017.93 376.473C1019.2 375.488 1021 374.926 1023.35 374.785L1028.3 374.486V372.869C1028.3 371.92 1027.99 371.193 1027.37 370.689C1026.75 370.186 1025.86 369.934 1024.68 369.934C1023.68 369.934 1022.84 370.109 1022.19 370.461C1021.53 370.801 1021.1 371.293 1020.9 371.938H1016.79C1016.97 370.238 1017.79 368.891 1019.25 367.895C1020.73 366.887 1022.61 366.383 1024.89 366.383C1027.36 366.383 1029.25 366.951 1030.59 368.088C1031.94 369.225 1032.61 370.818 1032.61 372.869V386H1028.41V383.363H1028.11C1027.57 384.289 1026.8 385.016 1025.79 385.543C1024.79 386.059 1023.67 386.316 1022.42 386.316ZM1065.59 386L1063.5 383.768C1062.5 384.623 1061.3 385.291 1059.91 385.771C1058.52 386.24 1057.04 386.475 1055.5 386.475C1052.86 386.475 1050.74 385.824 1049.13 384.523C1047.53 383.211 1046.73 381.477 1046.73 379.32C1046.73 377.855 1047.12 376.566 1047.9 375.453C1048.69 374.34 1049.91 373.338 1051.56 372.447C1051.61 372.424 1051.78 372.33 1052.07 372.166C1052.38 372.002 1052.56 371.902 1052.63 371.867C1051.48 370.672 1050.67 369.629 1050.19 368.738C1049.71 367.848 1049.47 366.939 1049.47 366.014C1049.47 364.326 1050.12 362.932 1051.44 361.83C1052.76 360.717 1054.42 360.16 1056.41 360.16C1058.42 360.16 1060.06 360.705 1061.35 361.795C1062.64 362.873 1063.29 364.262 1063.29 365.961C1063.29 367.262 1062.86 368.445 1062.02 369.512C1061.18 370.566 1059.84 371.58 1058.01 372.553L1063.41 378.266C1064.08 377.023 1064.41 375.213 1064.41 372.834V371.885H1068.22V373.045C1068.22 376.396 1067.52 379.092 1066.1 381.131L1070.69 386H1065.59ZM1054 374.732C1051.95 375.822 1050.93 377.234 1050.93 378.969C1050.93 380.188 1051.38 381.178 1052.3 381.939C1053.22 382.689 1054.44 383.064 1055.94 383.064C1056.95 383.064 1057.91 382.889 1058.84 382.537C1059.78 382.186 1060.53 381.711 1061.11 381.113L1054.79 374.346C1054.57 374.428 1054.31 374.557 1054 374.732ZM1055.87 370.338C1057.17 369.682 1058.09 369.037 1058.64 368.404C1059.21 367.771 1059.49 367.051 1059.49 366.242C1059.49 365.375 1059.2 364.672 1058.63 364.133C1058.06 363.594 1057.33 363.324 1056.43 363.324C1055.54 363.324 1054.81 363.6 1054.23 364.15C1053.67 364.689 1053.39 365.387 1053.39 366.242C1053.39 366.863 1053.57 367.479 1053.93 368.088C1054.31 368.697 1054.95 369.447 1055.87 370.338ZM955.725 416V396.77H960.066V416H955.725ZM957.887 393.641C957.102 393.641 956.457 393.418 955.953 392.973C955.449 392.516 955.197 391.936 955.197 391.232C955.197 390.529 955.449 389.955 955.953 389.51C956.457 389.053 957.102 388.824 957.887 388.824C958.684 388.824 959.328 389.053 959.82 389.51C960.324 389.955 960.576 390.529 960.576 391.232C960.576 391.936 960.324 392.516 959.82 392.973C959.328 393.418 958.684 393.641 957.887 393.641ZM965.48 416V396.77H969.682V399.846H969.98C970.438 398.768 971.199 397.924 972.266 397.314C973.344 396.693 974.598 396.383 976.027 396.383C978.172 396.383 979.824 397.004 980.984 398.246C982.145 399.488 982.725 401.258 982.725 403.555V416H978.383V404.592C978.383 401.65 977.059 400.18 974.41 400.18C973.004 400.18 971.891 400.596 971.07 401.428C970.25 402.26 969.84 403.385 969.84 404.803V416H965.48ZM994.871 416.316C992.434 416.316 990.506 415.426 989.088 413.645C987.67 411.852 986.961 409.426 986.961 406.367C986.961 403.332 987.67 400.924 989.088 399.143C990.518 397.35 992.445 396.453 994.871 396.453C996.184 396.453 997.355 396.752 998.387 397.35C999.418 397.947 1000.19 398.773 1000.71 399.828H1001.01V389.334H1005.37V416H1001.15V412.959H1000.85C1000.3 414.014 999.494 414.84 998.439 415.438C997.396 416.023 996.207 416.316 994.871 416.316ZM999.758 401.832C998.891 400.719 997.713 400.162 996.225 400.162C994.736 400.162 993.564 400.719 992.709 401.832C991.854 402.934 991.426 404.451 991.426 406.385C991.426 408.33 991.848 409.854 992.691 410.955C993.547 412.057 994.725 412.607 996.225 412.607C997.725 412.607 998.902 412.057 999.758 410.955C1000.62 409.842 1001.06 408.318 1001.06 406.385C1001.06 404.463 1000.62 402.945 999.758 401.832ZM1010.43 402.271C1010.43 400.537 1011.14 399.125 1012.57 398.035C1014 396.934 1015.85 396.383 1018.13 396.383C1020.41 396.383 1022.23 396.869 1023.59 397.842C1024.96 398.803 1025.73 400.156 1025.88 401.902H1021.78C1021.62 401.211 1021.22 400.672 1020.59 400.285C1019.97 399.887 1019.15 399.688 1018.14 399.688C1017.14 399.688 1016.3 399.904 1015.65 400.338C1014.99 400.771 1014.66 401.334 1014.66 402.025C1014.66 402.564 1014.89 403.01 1015.35 403.361C1015.82 403.713 1016.54 404 1017.51 404.223L1020.9 404.996C1022.76 405.418 1024.12 406.045 1024.98 406.877C1025.85 407.709 1026.28 408.828 1026.28 410.234C1026.28 412.074 1025.52 413.562 1024 414.699C1022.47 415.824 1020.51 416.387 1018.09 416.387C1015.69 416.387 1013.77 415.895 1012.33 414.91C1010.9 413.926 1010.1 412.561 1009.94 410.814H1014.24C1014.45 411.541 1014.89 412.104 1015.56 412.502C1016.24 412.889 1017.12 413.082 1018.2 413.082C1019.3 413.082 1020.2 412.865 1020.89 412.432C1021.58 411.986 1021.92 411.406 1021.92 410.691C1021.92 409.625 1021.04 408.898 1019.27 408.512L1015.86 407.721C1014.01 407.299 1012.64 406.648 1011.75 405.77C1010.87 404.879 1010.43 403.713 1010.43 402.271ZM1030.75 416V396.77H1035.09V416H1030.75ZM1032.91 393.641C1032.12 393.641 1031.48 393.418 1030.98 392.973C1030.47 392.516 1030.22 391.936 1030.22 391.232C1030.22 390.529 1030.47 389.955 1030.98 389.51C1031.48 389.053 1032.12 388.824 1032.91 388.824C1033.71 388.824 1034.35 389.053 1034.84 389.51C1035.35 389.955 1035.6 390.529 1035.6 391.232C1035.6 391.936 1035.35 392.516 1034.84 392.973C1034.35 393.418 1033.71 393.641 1032.91 393.641ZM1052.33 410.551C1053.2 409.473 1053.63 408.014 1053.63 406.174C1053.63 404.334 1053.2 402.875 1052.33 401.797C1051.47 400.707 1050.28 400.162 1048.77 400.162C1047.27 400.162 1046.09 400.701 1045.25 401.779C1044.42 402.857 1044 404.322 1044 406.174C1044 408.025 1044.42 409.49 1045.25 410.568C1046.08 411.635 1047.25 412.168 1048.77 412.168C1050.28 412.168 1051.47 411.629 1052.33 410.551ZM1048.77 423.312C1046.32 423.312 1044.32 422.814 1042.79 421.818C1041.27 420.822 1040.42 419.492 1040.24 417.828H1044.62C1044.76 418.496 1045.2 419.023 1045.94 419.41C1046.69 419.797 1047.65 419.99 1048.84 419.99C1050.32 419.99 1051.48 419.656 1052.32 418.988C1053.15 418.32 1053.56 417.383 1053.56 416.176V412.537H1053.27C1052.71 413.568 1051.93 414.359 1050.91 414.91C1049.9 415.449 1048.73 415.719 1047.39 415.719C1044.98 415.719 1043.06 414.857 1041.65 413.135C1040.23 411.4 1039.52 409.08 1039.52 406.174C1039.52 403.221 1040.23 400.865 1041.66 399.107C1043.09 397.338 1045.03 396.453 1047.46 396.453C1048.78 396.453 1049.97 396.758 1051.03 397.367C1052.1 397.977 1052.9 398.803 1053.42 399.846H1053.72V396.77H1057.92V416.07C1057.92 418.297 1057.1 420.061 1055.45 421.361C1053.79 422.662 1051.57 423.312 1048.77 423.312ZM1064.67 392.182H1069.02V396.893H1073.23V400.373H1069.02V409.812C1069.02 410.762 1069.23 411.459 1069.65 411.904C1070.07 412.338 1070.74 412.555 1071.65 412.555C1072.05 412.555 1072.53 412.525 1073.09 412.467V415.877C1072.39 416.018 1071.64 416.088 1070.84 416.088C1068.64 416.088 1067.06 415.684 1066.1 414.875C1065.15 414.066 1064.67 412.73 1064.67 410.867V400.373H1061.54V396.893H1064.67V392.182ZM1085.38 399.846C1084.08 399.846 1083.01 400.273 1082.16 401.129C1081.32 401.984 1080.85 403.115 1080.76 404.521H1089.81C1089.76 403.092 1089.34 401.955 1088.54 401.111C1087.75 400.268 1086.69 399.846 1085.38 399.846ZM1089.85 410.709H1093.98C1093.57 412.467 1092.6 413.855 1091.08 414.875C1089.56 415.883 1087.68 416.387 1085.43 416.387C1082.61 416.387 1080.39 415.508 1078.77 413.75C1077.17 411.98 1076.36 409.549 1076.36 406.455C1076.36 403.361 1077.17 400.912 1078.79 399.107C1080.41 397.291 1082.61 396.383 1085.4 396.383C1088.14 396.383 1090.29 397.244 1091.83 398.967C1093.39 400.678 1094.17 403.051 1094.17 406.086V407.492H1080.74V407.721C1080.8 409.326 1081.26 410.598 1082.11 411.535C1082.98 412.461 1084.13 412.924 1085.56 412.924C1087.76 412.924 1089.19 412.186 1089.85 410.709ZM1098.55 416V396.77H1102.75V399.758H1103.05C1103.32 398.797 1103.92 398.006 1104.86 397.385C1105.79 396.764 1106.87 396.453 1108.09 396.453C1108.84 396.453 1109.44 396.518 1109.88 396.646V400.689C1109.44 400.525 1108.7 400.443 1107.67 400.443C1106.26 400.443 1105.12 400.854 1104.22 401.674C1103.35 402.482 1102.91 403.555 1102.91 404.891V416H1098.55Z" fill="white"/>
<path d="M207.754 587.035L202.621 605H198.35L191.547 579.635H196.275L200.617 598.514H200.881L205.873 579.635H209.898L214.961 598.514H215.207L219.549 579.635H224.242L217.439 605H213.186L208.018 587.035H207.754ZM231.221 600.078C232.053 601.18 233.23 601.73 234.754 601.73C236.277 601.73 237.449 601.18 238.27 600.078C239.102 598.965 239.518 597.4 239.518 595.385C239.518 593.381 239.102 591.822 238.27 590.709C237.438 589.596 236.266 589.039 234.754 589.039C233.23 589.039 232.053 589.596 231.221 590.709C230.389 591.822 229.973 593.381 229.973 595.385C229.973 597.4 230.389 598.965 231.221 600.078ZM234.754 605.387C231.871 605.387 229.609 604.502 227.969 602.732C226.328 600.951 225.508 598.502 225.508 595.385C225.508 592.291 226.334 589.854 227.986 588.072C229.639 586.279 231.895 585.383 234.754 585.383C237.625 585.383 239.881 586.273 241.521 588.055C243.174 589.836 244 592.279 244 595.385C244 598.502 243.174 600.951 241.521 602.732C239.881 604.502 237.625 605.387 234.754 605.387ZM248.395 605V585.77H252.596V588.758H252.895C253.164 587.797 253.768 587.006 254.705 586.385C255.643 585.764 256.721 585.453 257.939 585.453C258.689 585.453 259.287 585.518 259.732 585.646V589.689C259.287 589.525 258.549 589.443 257.518 589.443C256.111 589.443 254.963 589.854 254.072 590.674C253.193 591.482 252.754 592.555 252.754 593.891V605H248.395ZM267.994 593.609L275.096 585.77H280.158L272.494 594.014L280.686 605H275.412L269.242 596.756L267.695 598.303V605H263.336V578.334H267.695V593.609H267.994ZM282.83 591.271C282.83 589.537 283.545 588.125 284.975 587.035C286.404 585.934 288.256 585.383 290.529 585.383C292.814 585.383 294.637 585.869 295.996 586.842C297.367 587.803 298.129 589.156 298.281 590.902H294.186C294.021 590.211 293.623 589.672 292.99 589.285C292.369 588.887 291.555 588.688 290.547 588.688C289.539 588.688 288.707 588.904 288.051 589.338C287.395 589.771 287.066 590.334 287.066 591.025C287.066 591.564 287.295 592.01 287.752 592.361C288.221 592.713 288.941 593 289.914 593.223L293.307 593.996C295.158 594.418 296.518 595.045 297.385 595.877C298.252 596.709 298.686 597.828 298.686 599.234C298.686 601.074 297.924 602.562 296.4 603.699C294.877 604.824 292.908 605.387 290.494 605.387C288.092 605.387 286.17 604.895 284.729 603.91C283.299 602.926 282.502 601.561 282.338 599.814H286.645C286.855 600.541 287.295 601.104 287.963 601.502C288.643 601.889 289.521 602.082 290.6 602.082C291.701 602.082 292.598 601.865 293.289 601.432C293.98 600.986 294.326 600.406 294.326 599.691C294.326 598.625 293.441 597.898 291.672 597.512L288.262 596.721C286.41 596.299 285.039 595.648 284.148 594.77C283.27 593.879 282.83 592.713 282.83 591.271ZM303.273 605V578.334H307.562V588.881H307.879C308.336 587.803 309.098 586.959 310.164 586.35C311.242 585.729 312.496 585.418 313.926 585.418C316.082 585.418 317.752 586.045 318.936 587.299C320.131 588.541 320.729 590.305 320.729 592.59V605H316.387V593.627C316.387 592.174 316.041 591.078 315.35 590.34C314.658 589.59 313.645 589.215 312.309 589.215C310.879 589.215 309.742 589.637 308.898 590.48C308.055 591.324 307.633 592.443 307.633 593.838V605H303.273ZM330.678 600.078C331.51 601.18 332.688 601.73 334.211 601.73C335.734 601.73 336.906 601.18 337.727 600.078C338.559 598.965 338.975 597.4 338.975 595.385C338.975 593.381 338.559 591.822 337.727 590.709C336.895 589.596 335.723 589.039 334.211 589.039C332.688 589.039 331.51 589.596 330.678 590.709C329.846 591.822 329.43 593.381 329.43 595.385C329.43 597.4 329.846 598.965 330.678 600.078ZM334.211 605.387C331.328 605.387 329.066 604.502 327.426 602.732C325.785 600.951 324.965 598.502 324.965 595.385C324.965 592.291 325.791 589.854 327.443 588.072C329.096 586.279 331.352 585.383 334.211 585.383C337.082 585.383 339.338 586.273 340.979 588.055C342.631 589.836 343.457 592.279 343.457 595.385C343.457 598.502 342.631 600.951 340.979 602.732C339.338 604.502 337.082 605.387 334.211 605.387ZM358.328 585.453C360.766 585.453 362.693 586.338 364.111 588.107C365.541 589.877 366.256 592.303 366.256 595.385C366.256 598.455 365.547 600.881 364.129 602.662C362.723 604.432 360.807 605.316 358.381 605.316C357.01 605.316 355.809 605.035 354.777 604.473C353.758 603.898 353.002 603.102 352.51 602.082H352.211V611.152H347.852V585.77H352.053V588.951H352.352C352.902 587.861 353.705 587.006 354.76 586.385C355.826 585.764 357.016 585.453 358.328 585.453ZM356.957 601.607C358.469 601.607 359.646 601.057 360.49 599.955C361.346 598.854 361.773 597.33 361.773 595.385C361.773 593.439 361.346 591.916 360.49 590.814C359.646 589.713 358.475 589.162 356.975 589.162C355.486 589.162 354.309 589.719 353.441 590.832C352.574 591.945 352.135 593.463 352.123 595.385C352.135 597.307 352.568 598.824 353.424 599.938C354.291 601.051 355.469 601.607 356.957 601.607ZM370.193 591.271C370.193 589.537 370.908 588.125 372.338 587.035C373.768 585.934 375.619 585.383 377.893 585.383C380.178 585.383 382 585.869 383.359 586.842C384.73 587.803 385.492 589.156 385.645 590.902H381.549C381.385 590.211 380.986 589.672 380.354 589.285C379.732 588.887 378.918 588.688 377.91 588.688C376.902 588.688 376.07 588.904 375.414 589.338C374.758 589.771 374.43 590.334 374.43 591.025C374.43 591.564 374.658 592.01 375.115 592.361C375.584 592.713 376.305 593 377.277 593.223L380.67 593.996C382.521 594.418 383.881 595.045 384.748 595.877C385.615 596.709 386.049 597.828 386.049 599.234C386.049 601.074 385.287 602.562 383.764 603.699C382.24 604.824 380.271 605.387 377.857 605.387C375.455 605.387 373.533 604.895 372.092 603.91C370.662 602.926 369.865 601.561 369.701 599.814H374.008C374.219 600.541 374.658 601.104 375.326 601.502C376.006 601.889 376.885 602.082 377.963 602.082C379.064 602.082 379.961 601.865 380.652 601.432C381.344 600.986 381.689 600.406 381.689 599.691C381.689 598.625 380.805 597.898 379.035 597.512L375.625 596.721C373.773 596.299 372.402 595.648 371.512 594.77C370.633 593.879 370.193 592.713 370.193 591.271Z" fill="white"/>
<path d="M591.975 386H581.129V360.635H591.729C594.131 360.635 596.018 361.203 597.389 362.34C598.76 363.465 599.445 365.006 599.445 366.963C599.445 368.299 599.012 369.488 598.145 370.531C597.277 371.574 596.205 372.195 594.928 372.395V372.711C596.639 372.875 598.027 373.52 599.094 374.645C600.16 375.758 600.693 377.141 600.693 378.793C600.693 381.02 599.914 382.777 598.355 384.066C596.809 385.355 594.682 386 591.975 386ZM585.664 364.238V371.305H590.041C591.646 371.305 592.865 371.006 593.697 370.408C594.541 369.799 594.963 368.92 594.963 367.771C594.963 366.658 594.582 365.791 593.82 365.17C593.059 364.549 591.992 364.238 590.621 364.238H585.664ZM585.664 382.396H590.938C592.613 382.396 593.885 382.062 594.752 381.395C595.619 380.715 596.053 379.73 596.053 378.441C596.053 377.176 595.602 376.215 594.699 375.559C593.809 374.902 592.496 374.574 590.762 374.574H585.664V382.396ZM605.176 386V366.77H609.377V369.758H609.676C609.945 368.797 610.549 368.006 611.486 367.385C612.424 366.764 613.502 366.453 614.721 366.453C615.471 366.453 616.068 366.518 616.514 366.646V370.689C616.068 370.525 615.33 370.443 614.299 370.443C612.893 370.443 611.744 370.854 610.854 371.674C609.975 372.482 609.535 373.555 609.535 374.891V386H605.176ZM637.08 366.77V386H632.879V382.941H632.58C632.111 384.043 631.355 384.893 630.312 385.49C629.281 386.088 628.051 386.387 626.621 386.387C624.488 386.387 622.812 385.76 621.594 384.506C620.375 383.24 619.766 381.477 619.766 379.215V366.77H624.125V378.178C624.125 381.096 625.461 382.555 628.133 382.555C629.539 382.555 630.652 382.145 631.473 381.324C632.305 380.504 632.721 379.385 632.721 377.967V366.77H637.08ZM654.271 380.551C655.139 379.473 655.572 378.014 655.572 376.174C655.572 374.334 655.139 372.875 654.271 371.797C653.404 370.707 652.215 370.162 650.703 370.162C649.203 370.162 648.031 370.701 647.188 371.779C646.355 372.857 645.939 374.322 645.939 376.174C645.939 378.025 646.355 379.49 647.188 380.568C648.02 381.635 649.191 382.168 650.703 382.168C652.215 382.168 653.404 381.629 654.271 380.551ZM650.703 393.312C648.254 393.312 646.262 392.814 644.727 391.818C643.203 390.822 642.354 389.492 642.178 387.828H646.555C646.695 388.496 647.135 389.023 647.873 389.41C648.623 389.797 649.59 389.99 650.773 389.99C652.262 389.99 653.422 389.656 654.254 388.988C655.086 388.32 655.502 387.383 655.502 386.176V382.537H655.203C654.652 383.568 653.867 384.359 652.848 384.91C651.84 385.449 650.668 385.719 649.332 385.719C646.918 385.719 645.002 384.857 643.584 383.135C642.166 381.4 641.457 379.08 641.457 376.174C641.457 373.221 642.172 370.865 643.602 369.107C645.031 367.338 646.965 366.453 649.402 366.453C650.715 366.453 651.904 366.758 652.971 367.367C654.037 367.977 654.834 368.803 655.361 369.846H655.66V366.77H659.861V386.07C659.861 388.297 659.035 390.061 657.383 391.361C655.73 392.662 653.504 393.312 650.703 393.312ZM673.291 369.846C671.99 369.846 670.918 370.273 670.074 371.129C669.23 371.984 668.762 373.115 668.668 374.521H677.721C677.674 373.092 677.252 371.955 676.455 371.111C675.658 370.268 674.604 369.846 673.291 369.846ZM677.756 380.709H681.887C681.477 382.467 680.51 383.855 678.986 384.875C677.475 385.883 675.594 386.387 673.344 386.387C670.52 386.387 668.299 385.508 666.682 383.75C665.076 381.98 664.273 379.549 664.273 376.455C664.273 373.361 665.082 370.912 666.699 369.107C668.316 367.291 670.52 366.383 673.309 366.383C676.051 366.383 678.195 367.244 679.742 368.967C681.301 370.678 682.08 373.051 682.08 376.086V377.492H668.65V377.721C668.709 379.326 669.166 380.598 670.021 381.535C670.889 382.461 672.037 382.924 673.467 382.924C675.67 382.924 677.1 382.186 677.756 380.709ZM686.457 386V366.77H690.658V369.758H690.957C691.227 368.797 691.83 368.006 692.768 367.385C693.705 366.764 694.783 366.453 696.002 366.453C696.752 366.453 697.35 366.518 697.795 366.646V370.689C697.35 370.525 696.611 370.443 695.58 370.443C694.174 370.443 693.025 370.854 692.135 371.674C691.256 372.482 690.816 373.555 690.816 374.891V386H686.457ZM701.521 386V366.77H705.863V386H701.521ZM703.684 363.641C702.898 363.641 702.254 363.418 701.75 362.973C701.246 362.516 700.994 361.936 700.994 361.232C700.994 360.529 701.246 359.955 701.75 359.51C702.254 359.053 702.898 358.824 703.684 358.824C704.48 358.824 705.125 359.053 705.617 359.51C706.121 359.955 706.373 360.529 706.373 361.232C706.373 361.936 706.121 362.516 705.617 362.973C705.125 363.418 704.48 363.641 703.684 363.641ZM711.277 386V366.77H715.479V369.846H715.777C716.234 368.768 716.996 367.924 718.062 367.314C719.141 366.693 720.395 366.383 721.824 366.383C723.969 366.383 725.621 367.004 726.781 368.246C727.941 369.488 728.521 371.258 728.521 373.555V386H724.18V374.592C724.18 371.65 722.855 370.18 720.207 370.18C718.801 370.18 717.688 370.596 716.867 371.428C716.047 372.26 715.637 373.385 715.637 374.803V386H711.277ZM731.439 366.77H736.115L740.562 381.641H740.861L745.273 366.77H749.879L743.076 386H738.277L731.439 366.77ZM757.561 381.078C758.393 382.18 759.57 382.73 761.094 382.73C762.617 382.73 763.789 382.18 764.609 381.078C765.441 379.965 765.857 378.4 765.857 376.385C765.857 374.381 765.441 372.822 764.609 371.709C763.777 370.596 762.605 370.039 761.094 370.039C759.57 370.039 758.393 370.596 757.561 371.709C756.729 372.822 756.312 374.381 756.312 376.385C756.312 378.4 756.729 379.965 757.561 381.078ZM761.094 386.387C758.211 386.387 755.949 385.502 754.309 383.732C752.668 381.951 751.848 379.502 751.848 376.385C751.848 373.291 752.674 370.854 754.326 369.072C755.979 367.279 758.234 366.383 761.094 366.383C763.965 366.383 766.221 367.273 767.861 369.055C769.514 370.836 770.34 373.279 770.34 376.385C770.34 379.502 769.514 381.951 767.861 383.732C766.221 385.502 763.965 386.387 761.094 386.387ZM774.91 386V359.334H779.27V386H774.91ZM783.119 366.77H787.795L792.242 381.641H792.541L796.953 366.77H801.559L794.756 386H789.957L783.119 366.77ZM812.545 369.846C811.244 369.846 810.172 370.273 809.328 371.129C808.484 371.984 808.016 373.115 807.922 374.521H816.975C816.928 373.092 816.506 371.955 815.709 371.111C814.912 370.268 813.857 369.846 812.545 369.846ZM817.01 380.709H821.141C820.73 382.467 819.764 383.855 818.24 384.875C816.729 385.883 814.848 386.387 812.598 386.387C809.773 386.387 807.553 385.508 805.936 383.75C804.33 381.98 803.527 379.549 803.527 376.455C803.527 373.361 804.336 370.912 805.953 369.107C807.57 367.291 809.773 366.383 812.562 366.383C815.305 366.383 817.449 367.244 818.996 368.967C820.555 370.678 821.334 373.051 821.334 376.086V377.492H807.904V377.721C807.963 379.326 808.42 380.598 809.275 381.535C810.143 382.461 811.291 382.924 812.721 382.924C814.924 382.924 816.354 382.186 817.01 380.709ZM825.711 386V366.77H829.912V369.758H830.211C830.48 368.797 831.084 368.006 832.021 367.385C832.959 366.764 834.037 366.453 835.256 366.453C836.006 366.453 836.604 366.518 837.049 366.646V370.689C836.604 370.525 835.865 370.443 834.834 370.443C833.428 370.443 832.279 370.854 831.389 371.674C830.51 372.482 830.07 373.555 830.07 374.891V386H825.711ZM840.775 386V366.77H845.117V386H840.775ZM842.938 363.641C842.152 363.641 841.508 363.418 841.004 362.973C840.5 362.516 840.248 361.936 840.248 361.232C840.248 360.529 840.5 359.955 841.004 359.51C841.508 359.053 842.152 358.824 842.938 358.824C843.734 358.824 844.379 359.053 844.871 359.51C845.375 359.955 845.627 360.529 845.627 361.232C845.627 361.936 845.375 362.516 844.871 362.973C844.379 363.418 843.734 363.641 842.938 363.641ZM850.531 386V366.77H854.732V369.846H855.031C855.488 368.768 856.25 367.924 857.316 367.314C858.395 366.693 859.648 366.383 861.078 366.383C863.223 366.383 864.875 367.004 866.035 368.246C867.195 369.488 867.775 371.258 867.775 373.555V386H863.434V374.592C863.434 371.65 862.109 370.18 859.461 370.18C858.055 370.18 856.941 370.596 856.121 371.428C855.301 372.26 854.891 373.385 854.891 374.803V386H850.531ZM884.791 380.551C885.658 379.473 886.092 378.014 886.092 376.174C886.092 374.334 885.658 372.875 884.791 371.797C883.924 370.707 882.734 370.162 881.223 370.162C879.723 370.162 878.551 370.701 877.707 371.779C876.875 372.857 876.459 374.322 876.459 376.174C876.459 378.025 876.875 379.49 877.707 380.568C878.539 381.635 879.711 382.168 881.223 382.168C882.734 382.168 883.924 381.629 884.791 380.551ZM881.223 393.312C878.773 393.312 876.781 392.814 875.246 391.818C873.723 390.822 872.873 389.492 872.697 387.828H877.074C877.215 388.496 877.654 389.023 878.393 389.41C879.143 389.797 880.109 389.99 881.293 389.99C882.781 389.99 883.941 389.656 884.773 388.988C885.605 388.32 886.021 387.383 886.021 386.176V382.537H885.723C885.172 383.568 884.387 384.359 883.367 384.91C882.359 385.449 881.188 385.719 879.852 385.719C877.438 385.719 875.521 384.857 874.104 383.135C872.686 381.4 871.977 379.08 871.977 376.174C871.977 373.221 872.691 370.865 874.121 369.107C875.551 367.338 877.484 366.453 879.922 366.453C881.234 366.453 882.424 366.758 883.49 367.367C884.557 367.977 885.354 368.803 885.881 369.846H886.18V366.77H890.381V386.07C890.381 388.297 889.555 390.061 887.902 391.361C886.25 392.662 884.023 393.312 881.223 393.312Z" fill="white"/>
<path d="M627.129 579.635H637.359C639.891 579.635 641.941 580.426 643.512 582.008C645.094 583.59 645.885 585.658 645.885 588.213C645.885 590.721 645.07 592.76 643.441 594.33C641.824 595.9 639.732 596.686 637.166 596.686H631.664V605H627.129V579.635ZM631.664 583.432V592.924H636.146C637.775 592.924 639.035 592.514 639.926 591.693C640.828 590.873 641.279 589.713 641.279 588.213C641.279 586.666 640.834 585.482 639.943 584.662C639.064 583.842 637.805 583.432 636.164 583.432H631.664ZM650.438 605V585.77H654.639V588.758H654.938C655.207 587.797 655.811 587.006 656.748 586.385C657.686 585.764 658.764 585.453 659.982 585.453C660.732 585.453 661.33 585.518 661.775 585.646V589.689C661.33 589.525 660.592 589.443 659.561 589.443C658.154 589.443 657.006 589.854 656.115 590.674C655.236 591.482 654.797 592.555 654.797 593.891V605H650.438ZM669.615 600.078C670.447 601.18 671.625 601.73 673.148 601.73C674.672 601.73 675.844 601.18 676.664 600.078C677.496 598.965 677.912 597.4 677.912 595.385C677.912 593.381 677.496 591.822 676.664 590.709C675.832 589.596 674.66 589.039 673.148 589.039C671.625 589.039 670.447 589.596 669.615 590.709C668.783 591.822 668.367 593.381 668.367 595.385C668.367 597.4 668.783 598.965 669.615 600.078ZM673.148 605.387C670.266 605.387 668.004 604.502 666.363 602.732C664.723 600.951 663.902 598.502 663.902 595.385C663.902 592.291 664.729 589.854 666.381 588.072C668.033 586.279 670.289 585.383 673.148 585.383C676.02 585.383 678.275 586.273 679.916 588.055C681.568 589.836 682.395 592.279 682.395 595.385C682.395 598.502 681.568 600.951 679.916 602.732C678.275 604.502 676.02 605.387 673.148 605.387ZM688.178 581.182H692.52V585.893H696.738V589.373H692.52V598.812C692.52 599.762 692.73 600.459 693.152 600.904C693.574 601.338 694.242 601.555 695.156 601.555C695.555 601.555 696.035 601.525 696.598 601.467V604.877C695.895 605.018 695.145 605.088 694.348 605.088C692.145 605.088 690.562 604.684 689.602 603.875C688.652 603.066 688.178 601.73 688.178 599.867V589.373H685.049V585.893H688.178V581.182ZM705.58 600.078C706.412 601.18 707.59 601.73 709.113 601.73C710.637 601.73 711.809 601.18 712.629 600.078C713.461 598.965 713.877 597.4 713.877 595.385C713.877 593.381 713.461 591.822 712.629 590.709C711.797 589.596 710.625 589.039 709.113 589.039C707.59 589.039 706.412 589.596 705.58 590.709C704.748 591.822 704.332 593.381 704.332 595.385C704.332 597.4 704.748 598.965 705.58 600.078ZM709.113 605.387C706.23 605.387 703.969 604.502 702.328 602.732C700.688 600.951 699.867 598.502 699.867 595.385C699.867 592.291 700.693 589.854 702.346 588.072C703.998 586.279 706.254 585.383 709.113 585.383C711.984 585.383 714.24 586.273 715.881 588.055C717.533 589.836 718.359 592.279 718.359 595.385C718.359 598.502 717.533 600.951 715.881 602.732C714.24 604.502 711.984 605.387 709.113 605.387ZM724.143 581.182H728.484V585.893H732.703V589.373H728.484V598.812C728.484 599.762 728.695 600.459 729.117 600.904C729.539 601.338 730.207 601.555 731.121 601.555C731.52 601.555 732 601.525 732.562 601.467V604.877C731.859 605.018 731.109 605.088 730.312 605.088C728.109 605.088 726.527 604.684 725.566 603.875C724.617 603.066 724.143 601.73 724.143 599.867V589.373H721.014V585.893H724.143V581.182ZM739.066 611.996C738.164 611.996 737.59 611.973 737.344 611.926V608.375C737.59 608.41 737.988 608.428 738.539 608.428C739.465 608.428 740.197 608.229 740.736 607.83C741.287 607.443 741.703 606.811 741.984 605.932L742.213 605.088L735.34 585.77H740.121L744.621 600.781H744.92L749.402 585.77H754.008L747.064 605.615C746.244 607.994 745.242 609.652 744.059 610.59C742.887 611.527 741.223 611.996 739.066 611.996ZM768.246 585.453C770.684 585.453 772.611 586.338 774.029 588.107C775.459 589.877 776.174 592.303 776.174 595.385C776.174 598.455 775.465 600.881 774.047 602.662C772.641 604.432 770.725 605.316 768.299 605.316C766.928 605.316 765.727 605.035 764.695 604.473C763.676 603.898 762.92 603.102 762.428 602.082H762.129V611.152H757.77V585.77H761.971V588.951H762.27C762.82 587.861 763.623 587.006 764.678 586.385C765.744 585.764 766.934 585.453 768.246 585.453ZM766.875 601.607C768.387 601.607 769.564 601.057 770.408 599.955C771.264 598.854 771.691 597.33 771.691 595.385C771.691 593.439 771.264 591.916 770.408 590.814C769.564 589.713 768.393 589.162 766.893 589.162C765.404 589.162 764.227 589.719 763.359 590.832C762.492 591.945 762.053 593.463 762.041 595.385C762.053 597.307 762.486 598.824 763.342 599.938C764.209 601.051 765.387 601.607 766.875 601.607ZM788.619 588.846C787.318 588.846 786.246 589.273 785.402 590.129C784.559 590.984 784.09 592.115 783.996 593.521H793.049C793.002 592.092 792.58 590.955 791.783 590.111C790.986 589.268 789.932 588.846 788.619 588.846ZM793.084 599.709H797.215C796.805 601.467 795.838 602.855 794.314 603.875C792.803 604.883 790.922 605.387 788.672 605.387C785.848 605.387 783.627 604.508 782.01 602.75C780.404 600.98 779.602 598.549 779.602 595.455C779.602 592.361 780.41 589.912 782.027 588.107C783.645 586.291 785.848 585.383 788.637 585.383C791.379 585.383 793.523 586.244 795.07 587.967C796.629 589.678 797.408 592.051 797.408 595.086V596.492H783.979V596.721C784.037 598.326 784.494 599.598 785.35 600.535C786.217 601.461 787.365 601.924 788.795 601.924C790.998 601.924 792.428 601.186 793.084 599.709ZM801.785 605V585.77H805.986V588.758H806.285C806.555 587.797 807.158 587.006 808.096 586.385C809.033 585.764 810.111 585.453 811.33 585.453C812.08 585.453 812.678 585.518 813.123 585.646V589.689C812.678 589.525 811.939 589.443 810.908 589.443C809.502 589.443 808.354 589.854 807.463 590.674C806.584 591.482 806.145 592.555 806.145 593.891V605H801.785Z" fill="white"/>
<path d="M934.711 613.633C931.113 613.633 928.271 612.443 926.186 610.064C924.1 607.674 923.057 604.428 923.057 600.326C923.057 596.201 924.094 592.949 926.168 590.57C928.254 588.191 931.096 587.002 934.693 587.002C937.576 587.002 940.02 587.852 942.023 589.551C944.027 591.238 945.164 593.406 945.434 596.055H940.969C940.652 594.531 939.926 593.318 938.789 592.416C937.652 591.502 936.287 591.045 934.693 591.045C932.537 591.045 930.832 591.877 929.578 593.541C928.324 595.193 927.697 597.449 927.697 600.309C927.697 603.168 928.324 605.43 929.578 607.094C930.832 608.758 932.543 609.59 934.711 609.59C936.316 609.59 937.688 609.174 938.824 608.342C939.961 607.498 940.682 606.367 940.986 604.949H945.451C945.146 607.551 944.01 609.648 942.041 611.242C940.072 612.836 937.629 613.633 934.711 613.633ZM950.092 613V593.77H954.434V613H950.092ZM952.254 590.641C951.469 590.641 950.824 590.418 950.32 589.973C949.816 589.516 949.564 588.936 949.564 588.232C949.564 587.529 949.816 586.955 950.32 586.51C950.824 586.053 951.469 585.824 952.254 585.824C953.051 585.824 953.695 586.053 954.188 586.51C954.691 586.955 954.943 587.529 954.943 588.232C954.943 588.936 954.691 589.516 954.188 589.973C953.695 590.418 953.051 590.641 952.254 590.641ZM959.848 613V593.77H964.049V596.758H964.348C964.617 595.797 965.221 595.006 966.158 594.385C967.096 593.764 968.174 593.453 969.393 593.453C970.143 593.453 970.74 593.518 971.186 593.646V597.689C970.74 597.525 970.002 597.443 968.971 597.443C967.564 597.443 966.416 597.854 965.525 598.674C964.646 599.482 964.207 600.555 964.207 601.891V613H959.848ZM990.873 600.238H986.725C986.514 599.266 986.045 598.492 985.318 597.918C984.592 597.332 983.648 597.039 982.488 597.039C980.988 597.039 979.816 597.59 978.973 598.691C978.141 599.793 977.725 601.34 977.725 603.332C977.725 605.348 978.146 606.918 978.99 608.043C979.834 609.168 981 609.73 982.488 609.73C983.625 609.73 984.557 609.467 985.283 608.939C986.021 608.412 986.502 607.65 986.725 606.654H990.873C990.627 608.705 989.766 610.34 988.289 611.559C986.824 612.777 984.896 613.387 982.506 613.387C979.611 613.387 977.355 612.502 975.738 610.732C974.121 608.963 973.312 606.496 973.312 603.332C973.312 600.203 974.121 597.766 975.738 596.02C977.355 594.262 979.605 593.383 982.488 593.383C984.902 593.383 986.842 594.01 988.307 595.264C989.783 596.506 990.639 598.164 990.873 600.238ZM1012.18 593.77V613H1007.98V609.941H1007.68C1007.21 611.043 1006.45 611.893 1005.41 612.49C1004.38 613.088 1003.15 613.387 1001.72 613.387C999.586 613.387 997.91 612.76 996.691 611.506C995.473 610.24 994.863 608.477 994.863 606.215V593.77H999.223V605.178C999.223 608.096 1000.56 609.555 1003.23 609.555C1004.64 609.555 1005.75 609.145 1006.57 608.324C1007.4 607.504 1007.82 606.385 1007.82 604.967V593.77H1012.18ZM1017.71 613V586.334H1022.07V613H1017.71ZM1047.86 613.387C1046.35 613.387 1044.97 613.053 1043.71 612.385C1042.47 611.705 1041.57 610.809 1041.01 609.695H1040.71C1040 610.855 1039.04 611.764 1037.81 612.42C1036.58 613.064 1035.16 613.387 1033.57 613.387C1031.45 613.387 1029.74 612.854 1028.46 611.787C1027.17 610.709 1026.52 609.297 1026.52 607.551C1026.52 605.816 1027.15 604.457 1028.4 603.473C1029.67 602.488 1031.47 601.926 1033.82 601.785L1038.77 601.486V599.869C1038.77 598.92 1038.46 598.193 1037.84 597.689C1037.22 597.186 1036.32 596.934 1035.15 596.934C1034.14 596.934 1033.31 597.109 1032.66 597.461C1032 597.801 1031.57 598.293 1031.37 598.938H1027.26C1027.42 597.285 1028.22 595.949 1029.65 594.93C1031.09 593.898 1032.88 593.383 1035.01 593.383C1036.49 593.383 1037.75 593.646 1038.81 594.174C1039.86 594.701 1040.67 595.422 1041.23 596.336H1041.53C1042.17 595.445 1043.04 594.73 1044.15 594.191C1045.27 593.652 1046.48 593.383 1047.79 593.383C1050.4 593.383 1052.46 594.238 1053.96 595.949C1055.46 597.648 1056.21 599.969 1056.21 602.91V604.387H1042.96V604.791C1043.02 606.338 1043.48 607.58 1044.36 608.518C1045.25 609.443 1046.41 609.906 1047.84 609.906C1049.84 609.906 1051.19 609.174 1051.9 607.709H1056.02C1055.6 609.479 1054.66 610.867 1053.21 611.875C1051.76 612.883 1049.98 613.387 1047.86 613.387ZM1047.54 596.846C1046.22 596.846 1045.14 597.262 1044.31 598.094C1043.49 598.926 1043.04 600.039 1042.96 601.434H1051.87C1051.82 600.074 1051.39 598.973 1050.59 598.129C1049.79 597.273 1048.78 596.846 1047.54 596.846ZM1034.29 609.924C1035.56 609.924 1036.62 609.531 1037.47 608.746C1038.34 607.949 1038.77 606.988 1038.77 605.863V604.422L1034.43 604.703C1032.04 604.855 1030.85 605.734 1030.85 607.34C1030.85 608.137 1031.16 608.77 1031.78 609.238C1032.41 609.695 1033.25 609.924 1034.29 609.924ZM1060.61 613V593.77H1064.81V596.758H1065.11C1065.38 595.797 1065.98 595.006 1066.92 594.385C1067.85 593.764 1068.93 593.453 1070.15 593.453C1070.9 593.453 1071.5 593.518 1071.94 593.646V597.689C1071.5 597.525 1070.76 597.443 1069.73 597.443C1068.32 597.443 1067.17 597.854 1066.28 598.674C1065.4 599.482 1064.96 600.555 1064.96 601.891V613H1060.61ZM935.871 629.324L929.578 639.115C930.258 639.525 931.055 639.73 931.969 639.73C933.492 639.73 934.664 639.18 935.484 638.078C936.316 636.965 936.732 635.4 936.732 633.385C936.732 631.732 936.445 630.379 935.871 629.324ZM928.084 637.516L934.395 627.689C933.703 627.256 932.895 627.039 931.969 627.039C930.445 627.039 929.268 627.596 928.436 628.709C927.604 629.822 927.188 631.381 927.188 633.385C927.188 635.049 927.486 636.426 928.084 637.516ZM939.422 623.805L938.279 625.58C940.236 627.396 941.215 629.998 941.215 633.385C941.215 636.502 940.389 638.951 938.736 640.732C937.096 642.502 934.84 643.387 931.969 643.387C930.258 643.387 928.758 643.064 927.469 642.42L926.414 644.055L924.604 642.912L925.693 641.225C923.713 639.443 922.723 636.83 922.723 633.385C922.723 630.291 923.549 627.854 925.201 626.072C926.854 624.279 929.109 623.383 931.969 623.383C933.691 623.383 935.209 623.717 936.521 624.385L937.594 622.732L939.422 623.805ZM950.443 631.609L957.545 623.77H962.607L954.943 632.014L963.135 643H957.861L951.691 634.756L950.145 636.303V643H945.785V616.334H950.145V631.609H950.443ZM970.201 638.078C971.033 639.18 972.211 639.73 973.734 639.73C975.258 639.73 976.43 639.18 977.25 638.078C978.082 636.965 978.498 635.4 978.498 633.385C978.498 631.381 978.082 629.822 977.25 628.709C976.418 627.596 975.246 627.039 973.734 627.039C972.211 627.039 971.033 627.596 970.201 628.709C969.369 629.822 968.953 631.381 968.953 633.385C968.953 635.4 969.369 636.965 970.201 638.078ZM973.734 643.387C970.852 643.387 968.59 642.502 966.949 640.732C965.309 638.951 964.488 636.502 964.488 633.385C964.488 630.291 965.314 627.854 966.967 626.072C968.619 624.279 970.875 623.383 973.734 623.383C976.605 623.383 978.861 624.273 980.502 626.055C982.154 627.836 982.98 630.279 982.98 633.385C982.98 636.502 982.154 638.951 980.502 640.732C978.861 642.502 976.605 643.387 973.734 643.387ZM987.375 643V623.77H991.576V626.846H991.875C992.332 625.768 993.094 624.924 994.16 624.314C995.238 623.693 996.492 623.383 997.922 623.383C1000.07 623.383 1001.72 624.004 1002.88 625.246C1004.04 626.488 1004.62 628.258 1004.62 630.555V643H1000.28V631.592C1000.28 628.65 998.953 627.18 996.305 627.18C994.898 627.18 993.785 627.596 992.965 628.428C992.145 629.26 991.734 630.385 991.734 631.803V643H987.375ZM1014.57 638.078C1015.4 639.18 1016.58 639.73 1018.1 639.73C1019.62 639.73 1020.8 639.18 1021.62 638.078C1022.45 636.965 1022.87 635.4 1022.87 633.385C1022.87 631.381 1022.45 629.822 1021.62 628.709C1020.79 627.596 1019.61 627.039 1018.1 627.039C1016.58 627.039 1015.4 627.596 1014.57 628.709C1013.74 629.822 1013.32 631.381 1013.32 633.385C1013.32 635.4 1013.74 636.965 1014.57 638.078ZM1018.1 643.387C1015.22 643.387 1012.96 642.502 1011.32 640.732C1009.68 638.951 1008.86 636.502 1008.86 633.385C1008.86 630.291 1009.68 627.854 1011.33 626.072C1012.99 624.279 1015.24 623.383 1018.1 623.383C1020.97 623.383 1023.23 624.273 1024.87 626.055C1026.52 627.836 1027.35 630.279 1027.35 633.385C1027.35 636.502 1026.52 638.951 1024.87 640.732C1023.23 642.502 1020.97 643.387 1018.1 643.387ZM1031.74 643V623.77H1035.94V626.881H1036.24C1036.65 625.779 1037.33 624.924 1038.26 624.314C1039.2 623.693 1040.31 623.383 1041.59 623.383C1042.89 623.383 1043.99 623.693 1044.91 624.314C1045.82 624.924 1046.48 625.779 1046.89 626.881H1047.19C1047.67 625.814 1048.44 624.965 1049.48 624.332C1050.52 623.699 1051.71 623.383 1053.03 623.383C1054.95 623.383 1056.46 623.951 1057.55 625.088C1058.65 626.225 1059.2 627.789 1059.2 629.781V643H1054.86V630.889C1054.86 628.416 1053.69 627.18 1051.34 627.18C1050.22 627.18 1049.31 627.543 1048.62 628.27C1047.93 628.996 1047.58 629.916 1047.58 631.029V643H1043.34V630.572C1043.34 629.518 1043.03 628.691 1042.41 628.094C1041.79 627.484 1040.94 627.18 1039.86 627.18C1038.79 627.18 1037.89 627.572 1037.17 628.357C1036.46 629.143 1036.1 630.127 1036.1 631.311V643H1031.74ZM1064.42 643V623.77H1068.76V643H1064.42ZM1066.58 620.641C1065.8 620.641 1065.15 620.418 1064.65 619.973C1064.14 619.516 1063.89 618.936 1063.89 618.232C1063.89 617.529 1064.14 616.955 1064.65 616.51C1065.15 616.053 1065.8 615.824 1066.58 615.824C1067.38 615.824 1068.02 616.053 1068.52 616.51C1069.02 616.955 1069.27 617.529 1069.27 618.232C1069.27 618.936 1069.02 619.516 1068.52 619.973C1068.02 620.418 1067.38 620.641 1066.58 620.641Z" fill="white"/>
</svg>
